G04 #@! TF.GenerationSoftware,KiCad,Pcbnew,(6.0.5)*
G04 #@! TF.CreationDate,2022-05-11T01:06:37+02:00*
G04 #@! TF.ProjectId,HighBong_V2,48696768-426f-46e6-975f-56322e6b6963,rev?*
G04 #@! TF.SameCoordinates,Original*
G04 #@! TF.FileFunction,Legend,Bot*
G04 #@! TF.FilePolarity,Positive*
%FSLAX46Y46*%
G04 Gerber Fmt 4.6, Leading zero omitted, Abs format (unit mm)*
G04 Created by KiCad (PCBNEW (6.0.5)) date 2022-05-11 01:06:37*
%MOMM*%
%LPD*%
G01*
G04 APERTURE LIST*
G04 Aperture macros list*
%AMRoundRect*
0 Rectangle with rounded corners*
0 $1 Rounding radius*
0 $2 $3 $4 $5 $6 $7 $8 $9 X,Y pos of 4 corners*
0 Add a 4 corners polygon primitive as box body*
4,1,4,$2,$3,$4,$5,$6,$7,$8,$9,$2,$3,0*
0 Add four circle primitives for the rounded corners*
1,1,$1+$1,$2,$3*
1,1,$1+$1,$4,$5*
1,1,$1+$1,$6,$7*
1,1,$1+$1,$8,$9*
0 Add four rect primitives between the rounded corners*
20,1,$1+$1,$2,$3,$4,$5,0*
20,1,$1+$1,$4,$5,$6,$7,0*
20,1,$1+$1,$6,$7,$8,$9,0*
20,1,$1+$1,$8,$9,$2,$3,0*%
G04 Aperture macros list end*
%ADD10C,0.025400*%
%ADD11C,0.150000*%
%ADD12C,0.120000*%
%ADD13R,1.700000X1.700000*%
%ADD14O,1.700000X1.700000*%
%ADD15RoundRect,0.250000X-0.250000X-2.500000X0.250000X-2.500000X0.250000X2.500000X-0.250000X2.500000X0*%
%ADD16RoundRect,0.250000X-0.550000X-1.250000X0.550000X-1.250000X0.550000X1.250000X-0.550000X1.250000X0*%
%ADD17RoundRect,0.250000X0.337500X0.475000X-0.337500X0.475000X-0.337500X-0.475000X0.337500X-0.475000X0*%
%ADD18RoundRect,0.250000X-0.350000X-0.450000X0.350000X-0.450000X0.350000X0.450000X-0.350000X0.450000X0*%
%ADD19R,0.900000X2.000000*%
%ADD20R,2.000000X0.900000*%
%ADD21R,5.000000X5.000000*%
G04 APERTURE END LIST*
D10*
X101248028Y-145176723D02*
X101228676Y-145118666D01*
X101209323Y-145099314D01*
X101170619Y-145079961D01*
X101112561Y-145079961D01*
X101073857Y-145099314D01*
X101054504Y-145118666D01*
X101035152Y-145157371D01*
X101035152Y-145312190D01*
X101441552Y-145312190D01*
X101441552Y-145176723D01*
X101422200Y-145138019D01*
X101402847Y-145118666D01*
X101364142Y-145099314D01*
X101325438Y-145099314D01*
X101286733Y-145118666D01*
X101267380Y-145138019D01*
X101248028Y-145176723D01*
X101248028Y-145312190D01*
X101035152Y-144847733D02*
X101054504Y-144886438D01*
X101073857Y-144905790D01*
X101112561Y-144925142D01*
X101228676Y-144925142D01*
X101267380Y-144905790D01*
X101286733Y-144886438D01*
X101306085Y-144847733D01*
X101306085Y-144789676D01*
X101286733Y-144750971D01*
X101267380Y-144731619D01*
X101228676Y-144712266D01*
X101112561Y-144712266D01*
X101073857Y-144731619D01*
X101054504Y-144750971D01*
X101035152Y-144789676D01*
X101035152Y-144847733D01*
X101035152Y-144480038D02*
X101054504Y-144518742D01*
X101073857Y-144538095D01*
X101112561Y-144557447D01*
X101228676Y-144557447D01*
X101267380Y-144538095D01*
X101286733Y-144518742D01*
X101306085Y-144480038D01*
X101306085Y-144421980D01*
X101286733Y-144383276D01*
X101267380Y-144363923D01*
X101228676Y-144344571D01*
X101112561Y-144344571D01*
X101073857Y-144363923D01*
X101054504Y-144383276D01*
X101035152Y-144421980D01*
X101035152Y-144480038D01*
X101306085Y-144228457D02*
X101306085Y-144073638D01*
X101441552Y-144170400D02*
X101093209Y-144170400D01*
X101054504Y-144151047D01*
X101035152Y-144112342D01*
X101035152Y-144073638D01*
X101035152Y-143880114D02*
X101054504Y-143918819D01*
X101093209Y-143938171D01*
X101441552Y-143938171D01*
X101035152Y-143667238D02*
X101054504Y-143705942D01*
X101073857Y-143725295D01*
X101112561Y-143744647D01*
X101228676Y-143744647D01*
X101267380Y-143725295D01*
X101286733Y-143705942D01*
X101306085Y-143667238D01*
X101306085Y-143609180D01*
X101286733Y-143570476D01*
X101267380Y-143551123D01*
X101228676Y-143531771D01*
X101112561Y-143531771D01*
X101073857Y-143551123D01*
X101054504Y-143570476D01*
X101035152Y-143609180D01*
X101035152Y-143667238D01*
X101035152Y-143183428D02*
X101248028Y-143183428D01*
X101286733Y-143202780D01*
X101306085Y-143241485D01*
X101306085Y-143318895D01*
X101286733Y-143357600D01*
X101054504Y-143183428D02*
X101035152Y-143222133D01*
X101035152Y-143318895D01*
X101054504Y-143357600D01*
X101093209Y-143376952D01*
X101131914Y-143376952D01*
X101170619Y-143357600D01*
X101189971Y-143318895D01*
X101189971Y-143222133D01*
X101209323Y-143183428D01*
X101035152Y-142815733D02*
X101441552Y-142815733D01*
X101054504Y-142815733D02*
X101035152Y-142854438D01*
X101035152Y-142931847D01*
X101054504Y-142970552D01*
X101073857Y-142989904D01*
X101112561Y-143009257D01*
X101228676Y-143009257D01*
X101267380Y-142989904D01*
X101286733Y-142970552D01*
X101306085Y-142931847D01*
X101306085Y-142854438D01*
X101286733Y-142815733D01*
X101054504Y-142467390D02*
X101035152Y-142506095D01*
X101035152Y-142583504D01*
X101054504Y-142622209D01*
X101093209Y-142641561D01*
X101248028Y-142641561D01*
X101286733Y-142622209D01*
X101306085Y-142583504D01*
X101306085Y-142506095D01*
X101286733Y-142467390D01*
X101248028Y-142448038D01*
X101209323Y-142448038D01*
X101170619Y-142641561D01*
X101035152Y-142273866D02*
X101306085Y-142273866D01*
X101228676Y-142273866D02*
X101267380Y-142254514D01*
X101286733Y-142235161D01*
X101306085Y-142196457D01*
X101306085Y-142157752D01*
D11*
X112093333Y-142824380D02*
X112093333Y-143538666D01*
X112140952Y-143681523D01*
X112236190Y-143776761D01*
X112379047Y-143824380D01*
X112474285Y-143824380D01*
X111093333Y-143824380D02*
X111664761Y-143824380D01*
X111379047Y-143824380D02*
X111379047Y-142824380D01*
X111474285Y-142967238D01*
X111569523Y-143062476D01*
X111664761Y-143110095D01*
D12*
X109666666Y-101357142D02*
X109714285Y-101404761D01*
X109857142Y-101452380D01*
X109952380Y-101452380D01*
X110095238Y-101404761D01*
X110190476Y-101309523D01*
X110238095Y-101214285D01*
X110285714Y-101023809D01*
X110285714Y-100880952D01*
X110238095Y-100690476D01*
X110190476Y-100595238D01*
X110095238Y-100500000D01*
X109952380Y-100452380D01*
X109857142Y-100452380D01*
X109714285Y-100500000D01*
X109666666Y-100547619D01*
X108714285Y-101452380D02*
X109285714Y-101452380D01*
X109000000Y-101452380D02*
X109000000Y-100452380D01*
X109095238Y-100595238D01*
X109190476Y-100690476D01*
X109285714Y-100738095D01*
X109666666Y-107202380D02*
X110000000Y-106726190D01*
X110238095Y-107202380D02*
X110238095Y-106202380D01*
X109857142Y-106202380D01*
X109761904Y-106250000D01*
X109714285Y-106297619D01*
X109666666Y-106392857D01*
X109666666Y-106535714D01*
X109714285Y-106630952D01*
X109761904Y-106678571D01*
X109857142Y-106726190D01*
X110238095Y-106726190D01*
X108714285Y-107202380D02*
X109285714Y-107202380D01*
X109000000Y-107202380D02*
X109000000Y-106202380D01*
X109095238Y-106345238D01*
X109190476Y-106440476D01*
X109285714Y-106488095D01*
D11*
X117681333Y-151344380D02*
X117681333Y-152058666D01*
X117728952Y-152201523D01*
X117824190Y-152296761D01*
X117967047Y-152344380D01*
X118062285Y-152344380D01*
X117300380Y-151344380D02*
X116681333Y-151344380D01*
X117014666Y-151725333D01*
X116871809Y-151725333D01*
X116776571Y-151772952D01*
X116728952Y-151820571D01*
X116681333Y-151915809D01*
X116681333Y-152153904D01*
X116728952Y-152249142D01*
X116776571Y-152296761D01*
X116871809Y-152344380D01*
X117157523Y-152344380D01*
X117252761Y-152296761D01*
X117300380Y-152249142D01*
X112761904Y-127452380D02*
X112761904Y-128261904D01*
X112714285Y-128357142D01*
X112666666Y-128404761D01*
X112571428Y-128452380D01*
X112380952Y-128452380D01*
X112285714Y-128404761D01*
X112238095Y-128357142D01*
X112190476Y-128261904D01*
X112190476Y-127452380D01*
X111761904Y-127547619D02*
X111714285Y-127500000D01*
X111619047Y-127452380D01*
X111380952Y-127452380D01*
X111285714Y-127500000D01*
X111238095Y-127547619D01*
X111190476Y-127642857D01*
X111190476Y-127738095D01*
X111238095Y-127880952D01*
X111809523Y-128452380D01*
X111190476Y-128452380D01*
D12*
X104675000Y-141432000D02*
X104675000Y-142282000D01*
X107000000Y-137062000D02*
X107000000Y-134672000D01*
X118845000Y-137062000D02*
X116520000Y-137062000D01*
X104675000Y-142282000D02*
X118845000Y-142282000D01*
X118845000Y-137912000D02*
X118845000Y-137062000D01*
X118845000Y-142282000D02*
X118845000Y-141432000D01*
X104675000Y-137062000D02*
X107000000Y-137062000D01*
X104675000Y-137912000D02*
X104675000Y-137062000D01*
X109735252Y-103300200D02*
X109212748Y-103300200D01*
X109735252Y-101830200D02*
X109212748Y-101830200D01*
X109272336Y-104268600D02*
X109726464Y-104268600D01*
X109272336Y-105738600D02*
X109726464Y-105738600D01*
X116099000Y-149850000D02*
X116099000Y-149000000D01*
X107929000Y-149850000D02*
X107929000Y-149000000D01*
X107929000Y-153370000D02*
X107929000Y-154220000D01*
X116099000Y-149000000D02*
X113774000Y-149000000D01*
X107929000Y-149000000D02*
X110254000Y-149000000D01*
X110254000Y-149000000D02*
X110254000Y-146610000D01*
X116099000Y-154220000D02*
X116099000Y-153370000D01*
X107929000Y-154220000D02*
X116099000Y-154220000D01*
X103755000Y-108228000D02*
X103755000Y-107848000D01*
X97335000Y-108228000D02*
X97335000Y-126468000D01*
X97335000Y-126468000D02*
X103755000Y-126468000D01*
X122300000Y-126468000D02*
X123080000Y-126468000D01*
X97335000Y-108228000D02*
X103755000Y-108228000D01*
X123080000Y-126468000D02*
X123080000Y-125468000D01*
X122300000Y-108228000D02*
X123080000Y-108228000D01*
X123080000Y-108228000D02*
X123080000Y-109228000D01*
%LPC*%
D13*
X122174000Y-146802000D03*
D14*
X122174000Y-144262000D03*
X122174000Y-141722000D03*
X122174000Y-139182000D03*
D15*
X107760000Y-137422000D03*
X109760000Y-137422000D03*
X111760000Y-137422000D03*
X113760000Y-137422000D03*
X115760000Y-137422000D03*
D16*
X118160000Y-139672000D03*
X105360000Y-139672000D03*
D17*
X110511500Y-102565200D03*
X108436500Y-102565200D03*
D18*
X108499400Y-105003600D03*
X110499400Y-105003600D03*
D15*
X111014000Y-149360000D03*
X113014000Y-149360000D03*
D16*
X115414000Y-151610000D03*
X108614000Y-151610000D03*
D19*
X104945000Y-108848000D03*
X106215000Y-108848000D03*
X107485000Y-108848000D03*
X108755000Y-108848000D03*
X110025000Y-108848000D03*
X111295000Y-108848000D03*
X112565000Y-108848000D03*
X113835000Y-108848000D03*
X115105000Y-108848000D03*
X116375000Y-108848000D03*
X117645000Y-108848000D03*
X118915000Y-108848000D03*
X120185000Y-108848000D03*
X121455000Y-108848000D03*
D20*
X122455000Y-111633000D03*
X122455000Y-112903000D03*
X122455000Y-114173000D03*
X122455000Y-115443000D03*
X122455000Y-116713000D03*
X122455000Y-117983000D03*
X122455000Y-119253000D03*
X122455000Y-120523000D03*
X122455000Y-121793000D03*
X122455000Y-123063000D03*
D19*
X121455000Y-125848000D03*
X120185000Y-125848000D03*
X118915000Y-125848000D03*
X117645000Y-125848000D03*
X116375000Y-125848000D03*
X115105000Y-125848000D03*
X113835000Y-125848000D03*
X112565000Y-125848000D03*
X111295000Y-125848000D03*
X110025000Y-125848000D03*
X108755000Y-125848000D03*
X107485000Y-125848000D03*
X106215000Y-125848000D03*
X104945000Y-125848000D03*
D21*
X112445000Y-116348000D03*
M02*
