G04 #@! TF.GenerationSoftware,KiCad,Pcbnew,(6.0.5)*
G04 #@! TF.CreationDate,2022-05-21T23:03:55+02:00*
G04 #@! TF.ProjectId,HighBong_V2,48696768-426f-46e6-975f-56322e6b6963,rev?*
G04 #@! TF.SameCoordinates,Original*
G04 #@! TF.FileFunction,Legend,Top*
G04 #@! TF.FilePolarity,Positive*
%FSLAX46Y46*%
G04 Gerber Fmt 4.6, Leading zero omitted, Abs format (unit mm)*
G04 Created by KiCad (PCBNEW (6.0.5)) date 2022-05-21 23:03:55*
%MOMM*%
%LPD*%
G01*
G04 APERTURE LIST*
G04 Aperture macros list*
%AMRoundRect*
0 Rectangle with rounded corners*
0 $1 Rounding radius*
0 $2 $3 $4 $5 $6 $7 $8 $9 X,Y pos of 4 corners*
0 Add a 4 corners polygon primitive as box body*
4,1,4,$2,$3,$4,$5,$6,$7,$8,$9,$2,$3,0*
0 Add four circle primitives for the rounded corners*
1,1,$1+$1,$2,$3*
1,1,$1+$1,$4,$5*
1,1,$1+$1,$6,$7*
1,1,$1+$1,$8,$9*
0 Add four rect primitives between the rounded corners*
20,1,$1+$1,$2,$3,$4,$5,0*
20,1,$1+$1,$4,$5,$6,$7,0*
20,1,$1+$1,$6,$7,$8,$9,0*
20,1,$1+$1,$8,$9,$2,$3,0*%
G04 Aperture macros list end*
%ADD10C,0.200000*%
%ADD11C,0.160000*%
%ADD12C,0.150000*%
%ADD13C,0.040000*%
%ADD14C,0.120000*%
%ADD15C,0.203200*%
%ADD16C,0.127000*%
%ADD17RoundRect,0.250000X-0.350000X-0.450000X0.350000X-0.450000X0.350000X0.450000X-0.350000X0.450000X0*%
%ADD18R,1.700000X1.700000*%
%ADD19O,1.700000X1.700000*%
%ADD20RoundRect,0.150000X-0.150000X0.587500X-0.150000X-0.587500X0.150000X-0.587500X0.150000X0.587500X0*%
%ADD21RoundRect,0.250000X-0.450000X0.350000X-0.450000X-0.350000X0.450000X-0.350000X0.450000X0.350000X0*%
%ADD22R,1.550000X1.300000*%
%ADD23R,1.498600X0.698500*%
%ADD24R,0.797560X0.998220*%
%ADD25R,2.000000X1.500000*%
%ADD26R,2.000000X3.800000*%
G04 APERTURE END LIST*
D10*
X105828571Y-103042857D02*
X105828571Y-101842857D01*
X105828571Y-102414285D02*
X106514285Y-102414285D01*
X106514285Y-103042857D02*
X106514285Y-101842857D01*
X107085714Y-103042857D02*
X107085714Y-102242857D01*
X107085714Y-101842857D02*
X107028571Y-101900000D01*
X107085714Y-101957142D01*
X107142857Y-101900000D01*
X107085714Y-101842857D01*
X107085714Y-101957142D01*
X108171428Y-102242857D02*
X108171428Y-103214285D01*
X108114285Y-103328571D01*
X108057142Y-103385714D01*
X107942857Y-103442857D01*
X107771428Y-103442857D01*
X107657142Y-103385714D01*
X108171428Y-102985714D02*
X108057142Y-103042857D01*
X107828571Y-103042857D01*
X107714285Y-102985714D01*
X107657142Y-102928571D01*
X107600000Y-102814285D01*
X107600000Y-102471428D01*
X107657142Y-102357142D01*
X107714285Y-102300000D01*
X107828571Y-102242857D01*
X108057142Y-102242857D01*
X108171428Y-102300000D01*
X108742857Y-103042857D02*
X108742857Y-101842857D01*
X109257142Y-103042857D02*
X109257142Y-102414285D01*
X109200000Y-102300000D01*
X109085714Y-102242857D01*
X108914285Y-102242857D01*
X108800000Y-102300000D01*
X108742857Y-102357142D01*
X109828571Y-102585714D02*
X110742857Y-102585714D01*
X111714285Y-102414285D02*
X111885714Y-102471428D01*
X111942857Y-102528571D01*
X112000000Y-102642857D01*
X112000000Y-102814285D01*
X111942857Y-102928571D01*
X111885714Y-102985714D01*
X111771428Y-103042857D01*
X111314285Y-103042857D01*
X111314285Y-101842857D01*
X111714285Y-101842857D01*
X111828571Y-101900000D01*
X111885714Y-101957142D01*
X111942857Y-102071428D01*
X111942857Y-102185714D01*
X111885714Y-102300000D01*
X111828571Y-102357142D01*
X111714285Y-102414285D01*
X111314285Y-102414285D01*
X112685714Y-103042857D02*
X112571428Y-102985714D01*
X112514285Y-102928571D01*
X112457142Y-102814285D01*
X112457142Y-102471428D01*
X112514285Y-102357142D01*
X112571428Y-102300000D01*
X112685714Y-102242857D01*
X112857142Y-102242857D01*
X112971428Y-102300000D01*
X113028571Y-102357142D01*
X113085714Y-102471428D01*
X113085714Y-102814285D01*
X113028571Y-102928571D01*
X112971428Y-102985714D01*
X112857142Y-103042857D01*
X112685714Y-103042857D01*
X113600000Y-102242857D02*
X113600000Y-103042857D01*
X113600000Y-102357142D02*
X113657142Y-102300000D01*
X113771428Y-102242857D01*
X113942857Y-102242857D01*
X114057142Y-102300000D01*
X114114285Y-102414285D01*
X114114285Y-103042857D01*
X115200000Y-102242857D02*
X115200000Y-103214285D01*
X115142857Y-103328571D01*
X115085714Y-103385714D01*
X114971428Y-103442857D01*
X114800000Y-103442857D01*
X114685714Y-103385714D01*
X115200000Y-102985714D02*
X115085714Y-103042857D01*
X114857142Y-103042857D01*
X114742857Y-102985714D01*
X114685714Y-102928571D01*
X114628571Y-102814285D01*
X114628571Y-102471428D01*
X114685714Y-102357142D01*
X114742857Y-102300000D01*
X114857142Y-102242857D01*
X115085714Y-102242857D01*
X115200000Y-102300000D01*
X116571428Y-102242857D02*
X116857142Y-103042857D01*
X117142857Y-102242857D01*
X117542857Y-101957142D02*
X117600000Y-101900000D01*
X117714285Y-101842857D01*
X118000000Y-101842857D01*
X118114285Y-101900000D01*
X118171428Y-101957142D01*
X118228571Y-102071428D01*
X118228571Y-102185714D01*
X118171428Y-102357142D01*
X117485714Y-103042857D01*
X118228571Y-103042857D01*
D11*
X101656904Y-152874323D02*
X101656904Y-153481466D01*
X101611666Y-153602895D01*
X101521190Y-153683847D01*
X101385476Y-153724323D01*
X101295000Y-153724323D01*
X102561666Y-153724323D02*
X102109285Y-153724323D01*
X102109285Y-152874323D01*
X103421190Y-153643371D02*
X103375952Y-153683847D01*
X103240238Y-153724323D01*
X103149761Y-153724323D01*
X103014047Y-153683847D01*
X102923571Y-153602895D01*
X102878333Y-153521942D01*
X102833095Y-153360038D01*
X102833095Y-153238609D01*
X102878333Y-153076704D01*
X102923571Y-152995752D01*
X103014047Y-152914800D01*
X103149761Y-152874323D01*
X103240238Y-152874323D01*
X103375952Y-152914800D01*
X103421190Y-152955276D01*
X104099761Y-152874323D02*
X104099761Y-153481466D01*
X104054523Y-153602895D01*
X103964047Y-153683847D01*
X103828333Y-153724323D01*
X103737857Y-153724323D01*
X105004523Y-153724323D02*
X104552142Y-153724323D01*
X104552142Y-152874323D01*
X105864047Y-153643371D02*
X105818809Y-153683847D01*
X105683095Y-153724323D01*
X105592619Y-153724323D01*
X105456904Y-153683847D01*
X105366428Y-153602895D01*
X105321190Y-153521942D01*
X105275952Y-153360038D01*
X105275952Y-153238609D01*
X105321190Y-153076704D01*
X105366428Y-152995752D01*
X105456904Y-152914800D01*
X105592619Y-152874323D01*
X105683095Y-152874323D01*
X105818809Y-152914800D01*
X105864047Y-152955276D01*
X106542619Y-152874323D02*
X106542619Y-153481466D01*
X106497380Y-153602895D01*
X106406904Y-153683847D01*
X106271190Y-153724323D01*
X106180714Y-153724323D01*
X107447380Y-153724323D02*
X106995000Y-153724323D01*
X106995000Y-152874323D01*
X108306904Y-153643371D02*
X108261666Y-153683847D01*
X108125952Y-153724323D01*
X108035476Y-153724323D01*
X107899761Y-153683847D01*
X107809285Y-153602895D01*
X107764047Y-153521942D01*
X107718809Y-153360038D01*
X107718809Y-153238609D01*
X107764047Y-153076704D01*
X107809285Y-152995752D01*
X107899761Y-152914800D01*
X108035476Y-152874323D01*
X108125952Y-152874323D01*
X108261666Y-152914800D01*
X108306904Y-152955276D01*
X108985476Y-152874323D02*
X108985476Y-153481466D01*
X108940238Y-153602895D01*
X108849761Y-153683847D01*
X108714047Y-153724323D01*
X108623571Y-153724323D01*
X109890238Y-153724323D02*
X109437857Y-153724323D01*
X109437857Y-152874323D01*
X110749761Y-153643371D02*
X110704523Y-153683847D01*
X110568809Y-153724323D01*
X110478333Y-153724323D01*
X110342619Y-153683847D01*
X110252142Y-153602895D01*
X110206904Y-153521942D01*
X110161666Y-153360038D01*
X110161666Y-153238609D01*
X110206904Y-153076704D01*
X110252142Y-152995752D01*
X110342619Y-152914800D01*
X110478333Y-152874323D01*
X110568809Y-152874323D01*
X110704523Y-152914800D01*
X110749761Y-152955276D01*
X122627380Y-136557142D02*
X121627380Y-136557142D01*
X121627380Y-136319047D01*
X121675000Y-136176190D01*
X121770238Y-136080952D01*
X121865476Y-136033333D01*
X122055952Y-135985714D01*
X122198809Y-135985714D01*
X122389285Y-136033333D01*
X122484523Y-136080952D01*
X122579761Y-136176190D01*
X122627380Y-136319047D01*
X122627380Y-136557142D01*
X122579761Y-135176190D02*
X122627380Y-135271428D01*
X122627380Y-135461904D01*
X122579761Y-135557142D01*
X122484523Y-135604761D01*
X122103571Y-135604761D01*
X122008333Y-135557142D01*
X121960714Y-135461904D01*
X121960714Y-135271428D01*
X122008333Y-135176190D01*
X122103571Y-135128571D01*
X122198809Y-135128571D01*
X122294047Y-135604761D01*
X122579761Y-134747619D02*
X122627380Y-134652380D01*
X122627380Y-134461904D01*
X122579761Y-134366666D01*
X122484523Y-134319047D01*
X122436904Y-134319047D01*
X122341666Y-134366666D01*
X122294047Y-134461904D01*
X122294047Y-134604761D01*
X122246428Y-134700000D01*
X122151190Y-134747619D01*
X122103571Y-134747619D01*
X122008333Y-134700000D01*
X121960714Y-134604761D01*
X121960714Y-134461904D01*
X122008333Y-134366666D01*
X122627380Y-133890476D02*
X121960714Y-133890476D01*
X121627380Y-133890476D02*
X121675000Y-133938095D01*
X121722619Y-133890476D01*
X121675000Y-133842857D01*
X121627380Y-133890476D01*
X121722619Y-133890476D01*
X121960714Y-132985714D02*
X122770238Y-132985714D01*
X122865476Y-133033333D01*
X122913095Y-133080952D01*
X122960714Y-133176190D01*
X122960714Y-133319047D01*
X122913095Y-133414285D01*
X122579761Y-132985714D02*
X122627380Y-133080952D01*
X122627380Y-133271428D01*
X122579761Y-133366666D01*
X122532142Y-133414285D01*
X122436904Y-133461904D01*
X122151190Y-133461904D01*
X122055952Y-133414285D01*
X122008333Y-133366666D01*
X121960714Y-133271428D01*
X121960714Y-133080952D01*
X122008333Y-132985714D01*
X121960714Y-132509523D02*
X122627380Y-132509523D01*
X122055952Y-132509523D02*
X122008333Y-132461904D01*
X121960714Y-132366666D01*
X121960714Y-132223809D01*
X122008333Y-132128571D01*
X122103571Y-132080952D01*
X122627380Y-132080952D01*
X122579761Y-131223809D02*
X122627380Y-131319047D01*
X122627380Y-131509523D01*
X122579761Y-131604761D01*
X122484523Y-131652380D01*
X122103571Y-131652380D01*
X122008333Y-131604761D01*
X121960714Y-131509523D01*
X121960714Y-131319047D01*
X122008333Y-131223809D01*
X122103571Y-131176190D01*
X122198809Y-131176190D01*
X122294047Y-131652380D01*
X122627380Y-130319047D02*
X121627380Y-130319047D01*
X122579761Y-130319047D02*
X122627380Y-130414285D01*
X122627380Y-130604761D01*
X122579761Y-130700000D01*
X122532142Y-130747619D01*
X122436904Y-130795238D01*
X122151190Y-130795238D01*
X122055952Y-130747619D01*
X122008333Y-130700000D01*
X121960714Y-130604761D01*
X121960714Y-130414285D01*
X122008333Y-130319047D01*
X122627380Y-129080952D02*
X121627380Y-129080952D01*
X122008333Y-129080952D02*
X121960714Y-128985714D01*
X121960714Y-128795238D01*
X122008333Y-128700000D01*
X122055952Y-128652380D01*
X122151190Y-128604761D01*
X122436904Y-128604761D01*
X122532142Y-128652380D01*
X122579761Y-128700000D01*
X122627380Y-128795238D01*
X122627380Y-128985714D01*
X122579761Y-129080952D01*
X121960714Y-128271428D02*
X122627380Y-128033333D01*
X121960714Y-127795238D02*
X122627380Y-128033333D01*
X122865476Y-128128571D01*
X122913095Y-128176190D01*
X122960714Y-128271428D01*
X122627380Y-126652380D02*
X121627380Y-126652380D01*
X122341666Y-126319047D01*
X121627380Y-125985714D01*
X122627380Y-125985714D01*
X122627380Y-125080952D02*
X122103571Y-125080952D01*
X122008333Y-125128571D01*
X121960714Y-125223809D01*
X121960714Y-125414285D01*
X122008333Y-125509523D01*
X122579761Y-125080952D02*
X122627380Y-125176190D01*
X122627380Y-125414285D01*
X122579761Y-125509523D01*
X122484523Y-125557142D01*
X122389285Y-125557142D01*
X122294047Y-125509523D01*
X122246428Y-125414285D01*
X122246428Y-125176190D01*
X122198809Y-125080952D01*
X122627380Y-124700000D02*
X121960714Y-124176190D01*
X121960714Y-124700000D02*
X122627380Y-124176190D01*
X122627380Y-123795238D02*
X121960714Y-123795238D01*
X122151190Y-123795238D02*
X122055952Y-123747619D01*
X122008333Y-123700000D01*
X121960714Y-123604761D01*
X121960714Y-123509523D01*
X122627380Y-122652380D02*
X122627380Y-123223809D01*
X122627380Y-122938095D02*
X121627380Y-122938095D01*
X121770238Y-123033333D01*
X121865476Y-123128571D01*
X121913095Y-123223809D01*
X122627380Y-122176190D02*
X122627380Y-121985714D01*
X122579761Y-121890476D01*
X122532142Y-121842857D01*
X122389285Y-121747619D01*
X122198809Y-121700000D01*
X121817857Y-121700000D01*
X121722619Y-121747619D01*
X121675000Y-121795238D01*
X121627380Y-121890476D01*
X121627380Y-122080952D01*
X121675000Y-122176190D01*
X121722619Y-122223809D01*
X121817857Y-122271428D01*
X122055952Y-122271428D01*
X122151190Y-122223809D01*
X122198809Y-122176190D01*
X122246428Y-122080952D01*
X122246428Y-121890476D01*
X122198809Y-121795238D01*
X122151190Y-121747619D01*
X122055952Y-121700000D01*
X122627380Y-121223809D02*
X122627380Y-121033333D01*
X122579761Y-120938095D01*
X122532142Y-120890476D01*
X122389285Y-120795238D01*
X122198809Y-120747619D01*
X121817857Y-120747619D01*
X121722619Y-120795238D01*
X121675000Y-120842857D01*
X121627380Y-120938095D01*
X121627380Y-121128571D01*
X121675000Y-121223809D01*
X121722619Y-121271428D01*
X121817857Y-121319047D01*
X122055952Y-121319047D01*
X122151190Y-121271428D01*
X122198809Y-121223809D01*
X122246428Y-121128571D01*
X122246428Y-120938095D01*
X122198809Y-120842857D01*
X122151190Y-120795238D01*
X122055952Y-120747619D01*
X122055952Y-120176190D02*
X122008333Y-120271428D01*
X121960714Y-120319047D01*
X121865476Y-120366666D01*
X121817857Y-120366666D01*
X121722619Y-120319047D01*
X121675000Y-120271428D01*
X121627380Y-120176190D01*
X121627380Y-119985714D01*
X121675000Y-119890476D01*
X121722619Y-119842857D01*
X121817857Y-119795238D01*
X121865476Y-119795238D01*
X121960714Y-119842857D01*
X122008333Y-119890476D01*
X122055952Y-119985714D01*
X122055952Y-120176190D01*
X122103571Y-120271428D01*
X122151190Y-120319047D01*
X122246428Y-120366666D01*
X122436904Y-120366666D01*
X122532142Y-120319047D01*
X122579761Y-120271428D01*
X122627380Y-120176190D01*
X122627380Y-119985714D01*
X122579761Y-119890476D01*
X122532142Y-119842857D01*
X122436904Y-119795238D01*
X122246428Y-119795238D01*
X122151190Y-119842857D01*
X122103571Y-119890476D01*
X122055952Y-119985714D01*
D12*
X108318269Y-141422380D02*
X107984936Y-140946190D01*
X107746840Y-141422380D02*
X107746840Y-140422380D01*
X108127793Y-140422380D01*
X108223031Y-140470000D01*
X108270650Y-140517619D01*
X108318269Y-140612857D01*
X108318269Y-140755714D01*
X108270650Y-140850952D01*
X108223031Y-140898571D01*
X108127793Y-140946190D01*
X107746840Y-140946190D01*
X108699221Y-140517619D02*
X108746840Y-140470000D01*
X108842078Y-140422380D01*
X109080174Y-140422380D01*
X109175412Y-140470000D01*
X109223031Y-140517619D01*
X109270650Y-140612857D01*
X109270650Y-140708095D01*
X109223031Y-140850952D01*
X108651602Y-141422380D01*
X109270650Y-141422380D01*
X121840666Y-148584380D02*
X121840666Y-149298666D01*
X121793047Y-149441523D01*
X121697809Y-149536761D01*
X121554952Y-149584380D01*
X121459714Y-149584380D01*
X122269238Y-148679619D02*
X122316857Y-148632000D01*
X122412095Y-148584380D01*
X122650190Y-148584380D01*
X122745428Y-148632000D01*
X122793047Y-148679619D01*
X122840666Y-148774857D01*
X122840666Y-148870095D01*
X122793047Y-149012952D01*
X122221619Y-149584380D01*
X122840666Y-149584380D01*
X108870761Y-135421619D02*
X108775523Y-135374000D01*
X108680285Y-135278761D01*
X108537428Y-135135904D01*
X108442190Y-135088285D01*
X108346952Y-135088285D01*
X108394571Y-135326380D02*
X108299333Y-135278761D01*
X108204095Y-135183523D01*
X108156476Y-134993047D01*
X108156476Y-134659714D01*
X108204095Y-134469238D01*
X108299333Y-134374000D01*
X108394571Y-134326380D01*
X108585047Y-134326380D01*
X108680285Y-134374000D01*
X108775523Y-134469238D01*
X108823142Y-134659714D01*
X108823142Y-134993047D01*
X108775523Y-135183523D01*
X108680285Y-135278761D01*
X108585047Y-135326380D01*
X108394571Y-135326380D01*
X109156476Y-134326380D02*
X109775523Y-134326380D01*
X109442190Y-134707333D01*
X109585047Y-134707333D01*
X109680285Y-134754952D01*
X109727904Y-134802571D01*
X109775523Y-134897809D01*
X109775523Y-135135904D01*
X109727904Y-135231142D01*
X109680285Y-135278761D01*
X109585047Y-135326380D01*
X109299333Y-135326380D01*
X109204095Y-135278761D01*
X109156476Y-135231142D01*
X115640380Y-127928666D02*
X115164190Y-128262000D01*
X115640380Y-128500095D02*
X114640380Y-128500095D01*
X114640380Y-128119142D01*
X114688000Y-128023904D01*
X114735619Y-127976285D01*
X114830857Y-127928666D01*
X114973714Y-127928666D01*
X115068952Y-127976285D01*
X115116571Y-128023904D01*
X115164190Y-128119142D01*
X115164190Y-128500095D01*
X114973714Y-127071523D02*
X115640380Y-127071523D01*
X114592761Y-127309619D02*
X115307047Y-127547714D01*
X115307047Y-126928666D01*
X110666666Y-114804761D02*
X110809523Y-114852380D01*
X111047619Y-114852380D01*
X111142857Y-114804761D01*
X111190476Y-114757142D01*
X111238095Y-114661904D01*
X111238095Y-114566666D01*
X111190476Y-114471428D01*
X111142857Y-114423809D01*
X111047619Y-114376190D01*
X110857142Y-114328571D01*
X110761904Y-114280952D01*
X110714285Y-114233333D01*
X110666666Y-114138095D01*
X110666666Y-114042857D01*
X110714285Y-113947619D01*
X110761904Y-113900000D01*
X110857142Y-113852380D01*
X111095238Y-113852380D01*
X111238095Y-113900000D01*
X111571428Y-113852380D02*
X111809523Y-114852380D01*
X112000000Y-114138095D01*
X112190476Y-114852380D01*
X112428571Y-113852380D01*
X112761904Y-113947619D02*
X112809523Y-113900000D01*
X112904761Y-113852380D01*
X113142857Y-113852380D01*
X113238095Y-113900000D01*
X113285714Y-113947619D01*
X113333333Y-114042857D01*
X113333333Y-114138095D01*
X113285714Y-114280952D01*
X112714285Y-114852380D01*
X113333333Y-114852380D01*
X111830380Y-127912666D02*
X111354190Y-128246000D01*
X111830380Y-128484095D02*
X110830380Y-128484095D01*
X110830380Y-128103142D01*
X110878000Y-128007904D01*
X110925619Y-127960285D01*
X111020857Y-127912666D01*
X111163714Y-127912666D01*
X111258952Y-127960285D01*
X111306571Y-128007904D01*
X111354190Y-128103142D01*
X111354190Y-128484095D01*
X110830380Y-127007904D02*
X110830380Y-127484095D01*
X111306571Y-127531714D01*
X111258952Y-127484095D01*
X111211333Y-127388857D01*
X111211333Y-127150761D01*
X111258952Y-127055523D01*
X111306571Y-127007904D01*
X111401809Y-126960285D01*
X111639904Y-126960285D01*
X111735142Y-127007904D01*
X111782761Y-127055523D01*
X111830380Y-127150761D01*
X111830380Y-127388857D01*
X111782761Y-127484095D01*
X111735142Y-127531714D01*
D13*
X103996857Y-143294000D02*
X104025428Y-143208285D01*
X104025428Y-143065428D01*
X103996857Y-143008285D01*
X103968285Y-142979714D01*
X103911142Y-142951142D01*
X103854000Y-142951142D01*
X103796857Y-142979714D01*
X103768285Y-143008285D01*
X103739714Y-143065428D01*
X103711142Y-143179714D01*
X103682571Y-143236857D01*
X103654000Y-143265428D01*
X103596857Y-143294000D01*
X103539714Y-143294000D01*
X103482571Y-143265428D01*
X103454000Y-143236857D01*
X103425428Y-143179714D01*
X103425428Y-143036857D01*
X103454000Y-142951142D01*
X103425428Y-142751142D02*
X104025428Y-142608285D01*
X103596857Y-142494000D01*
X104025428Y-142379714D01*
X103425428Y-142236857D01*
X104025428Y-141694000D02*
X104025428Y-142036857D01*
X104025428Y-141865428D02*
X103425428Y-141865428D01*
X103511142Y-141922571D01*
X103568285Y-141979714D01*
X103596857Y-142036857D01*
D12*
X108020380Y-127928666D02*
X107544190Y-128262000D01*
X108020380Y-128500095D02*
X107020380Y-128500095D01*
X107020380Y-128119142D01*
X107068000Y-128023904D01*
X107115619Y-127976285D01*
X107210857Y-127928666D01*
X107353714Y-127928666D01*
X107448952Y-127976285D01*
X107496571Y-128023904D01*
X107544190Y-128119142D01*
X107544190Y-128500095D01*
X107020380Y-127071523D02*
X107020380Y-127262000D01*
X107068000Y-127357238D01*
X107115619Y-127404857D01*
X107258476Y-127500095D01*
X107448952Y-127547714D01*
X107829904Y-127547714D01*
X107925142Y-127500095D01*
X107972761Y-127452476D01*
X108020380Y-127357238D01*
X108020380Y-127166761D01*
X107972761Y-127071523D01*
X107925142Y-127023904D01*
X107829904Y-126976285D01*
X107591809Y-126976285D01*
X107496571Y-127023904D01*
X107448952Y-127071523D01*
X107401333Y-127166761D01*
X107401333Y-127357238D01*
X107448952Y-127452476D01*
X107496571Y-127500095D01*
X107591809Y-127547714D01*
X110998095Y-142552380D02*
X110998095Y-143361904D01*
X111045714Y-143457142D01*
X111093333Y-143504761D01*
X111188571Y-143552380D01*
X111379047Y-143552380D01*
X111474285Y-143504761D01*
X111521904Y-143457142D01*
X111569523Y-143361904D01*
X111569523Y-142552380D01*
X112569523Y-143552380D02*
X111998095Y-143552380D01*
X112283809Y-143552380D02*
X112283809Y-142552380D01*
X112188571Y-142695238D01*
X112093333Y-142790476D01*
X111998095Y-142838095D01*
X105060761Y-135421619D02*
X104965523Y-135374000D01*
X104870285Y-135278761D01*
X104727428Y-135135904D01*
X104632190Y-135088285D01*
X104536952Y-135088285D01*
X104584571Y-135326380D02*
X104489333Y-135278761D01*
X104394095Y-135183523D01*
X104346476Y-134993047D01*
X104346476Y-134659714D01*
X104394095Y-134469238D01*
X104489333Y-134374000D01*
X104584571Y-134326380D01*
X104775047Y-134326380D01*
X104870285Y-134374000D01*
X104965523Y-134469238D01*
X105013142Y-134659714D01*
X105013142Y-134993047D01*
X104965523Y-135183523D01*
X104870285Y-135278761D01*
X104775047Y-135326380D01*
X104584571Y-135326380D01*
X105870285Y-134659714D02*
X105870285Y-135326380D01*
X105632190Y-134278761D02*
X105394095Y-134993047D01*
X106013142Y-134993047D01*
X112680761Y-135421619D02*
X112585523Y-135374000D01*
X112490285Y-135278761D01*
X112347428Y-135135904D01*
X112252190Y-135088285D01*
X112156952Y-135088285D01*
X112204571Y-135326380D02*
X112109333Y-135278761D01*
X112014095Y-135183523D01*
X111966476Y-134993047D01*
X111966476Y-134659714D01*
X112014095Y-134469238D01*
X112109333Y-134374000D01*
X112204571Y-134326380D01*
X112395047Y-134326380D01*
X112490285Y-134374000D01*
X112585523Y-134469238D01*
X112633142Y-134659714D01*
X112633142Y-134993047D01*
X112585523Y-135183523D01*
X112490285Y-135278761D01*
X112395047Y-135326380D01*
X112204571Y-135326380D01*
X113014095Y-134421619D02*
X113061714Y-134374000D01*
X113156952Y-134326380D01*
X113395047Y-134326380D01*
X113490285Y-134374000D01*
X113537904Y-134421619D01*
X113585523Y-134516857D01*
X113585523Y-134612095D01*
X113537904Y-134754952D01*
X112966476Y-135326380D01*
X113585523Y-135326380D01*
X116490761Y-135421619D02*
X116395523Y-135374000D01*
X116300285Y-135278761D01*
X116157428Y-135135904D01*
X116062190Y-135088285D01*
X115966952Y-135088285D01*
X116014571Y-135326380D02*
X115919333Y-135278761D01*
X115824095Y-135183523D01*
X115776476Y-134993047D01*
X115776476Y-134659714D01*
X115824095Y-134469238D01*
X115919333Y-134374000D01*
X116014571Y-134326380D01*
X116205047Y-134326380D01*
X116300285Y-134374000D01*
X116395523Y-134469238D01*
X116443142Y-134659714D01*
X116443142Y-134993047D01*
X116395523Y-135183523D01*
X116300285Y-135278761D01*
X116205047Y-135326380D01*
X116014571Y-135326380D01*
X117395523Y-135326380D02*
X116824095Y-135326380D01*
X117109809Y-135326380D02*
X117109809Y-134326380D01*
X117014571Y-134469238D01*
X116919333Y-134564476D01*
X116824095Y-134612095D01*
X119450380Y-127928666D02*
X118974190Y-128262000D01*
X119450380Y-128500095D02*
X118450380Y-128500095D01*
X118450380Y-128119142D01*
X118498000Y-128023904D01*
X118545619Y-127976285D01*
X118640857Y-127928666D01*
X118783714Y-127928666D01*
X118878952Y-127976285D01*
X118926571Y-128023904D01*
X118974190Y-128119142D01*
X118974190Y-128500095D01*
X118450380Y-127595333D02*
X118450380Y-126976285D01*
X118831333Y-127309619D01*
X118831333Y-127166761D01*
X118878952Y-127071523D01*
X118926571Y-127023904D01*
X119021809Y-126976285D01*
X119259904Y-126976285D01*
X119355142Y-127023904D01*
X119402761Y-127071523D01*
X119450380Y-127166761D01*
X119450380Y-127452476D01*
X119402761Y-127547714D01*
X119355142Y-127595333D01*
D14*
X108484936Y-138457000D02*
X108939064Y-138457000D01*
X108484936Y-139927000D02*
X108939064Y-139927000D01*
X123504000Y-148132000D02*
X122174000Y-148132000D01*
X123504000Y-137852000D02*
X120844000Y-137852000D01*
X123504000Y-146802000D02*
X123504000Y-148132000D01*
X123504000Y-145532000D02*
X120844000Y-145532000D01*
X123504000Y-145532000D02*
X123504000Y-137852000D01*
X120844000Y-145532000D02*
X120844000Y-137852000D01*
X110526000Y-131826000D02*
X110526000Y-132476000D01*
X107406000Y-131826000D02*
X107406000Y-132476000D01*
X107406000Y-131826000D02*
X107406000Y-131176000D01*
X110526000Y-131826000D02*
X110526000Y-130151000D01*
X114273000Y-127534936D02*
X114273000Y-127989064D01*
X112803000Y-127534936D02*
X112803000Y-127989064D01*
X115230000Y-106770000D02*
X115230000Y-106800000D01*
X108770000Y-113230000D02*
X108770000Y-113200000D01*
X108770000Y-106770000D02*
X108770000Y-106800000D01*
X115230000Y-113230000D02*
X108770000Y-113230000D01*
X115230000Y-113200000D02*
X115230000Y-113230000D01*
X108770000Y-111300000D02*
X108770000Y-108700000D01*
X115230000Y-111300000D02*
X115230000Y-108700000D01*
X115230000Y-106770000D02*
X108770000Y-106770000D01*
X110463000Y-127518936D02*
X110463000Y-127973064D01*
X108993000Y-127518936D02*
X108993000Y-127973064D01*
D15*
X103151940Y-139908280D02*
X103151940Y-146603720D01*
X100556060Y-139908280D02*
X103151940Y-139908280D01*
X103151940Y-146603720D02*
X100556060Y-146603720D01*
D16*
X99054920Y-141856460D02*
X100355400Y-141856460D01*
D15*
X100556060Y-146603720D02*
X100556060Y-139908280D01*
D16*
X100355400Y-144655540D02*
X99054920Y-144655540D01*
X99054920Y-144655540D02*
X99054920Y-141856460D01*
D14*
X106653000Y-127534936D02*
X106653000Y-127989064D01*
X105183000Y-127534936D02*
X105183000Y-127989064D01*
X109910000Y-150984000D02*
X113670000Y-150984000D01*
X107660000Y-144164000D02*
X113670000Y-144164000D01*
X113670000Y-144164000D02*
X113670000Y-145424000D01*
X113670000Y-150984000D02*
X113670000Y-149724000D01*
X103596000Y-131826000D02*
X103596000Y-132476000D01*
X106716000Y-131826000D02*
X106716000Y-132476000D01*
X103596000Y-131826000D02*
X103596000Y-131176000D01*
X106716000Y-131826000D02*
X106716000Y-130151000D01*
X114336000Y-131826000D02*
X114336000Y-130151000D01*
X111216000Y-131826000D02*
X111216000Y-131176000D01*
X114336000Y-131826000D02*
X114336000Y-132476000D01*
X111216000Y-131826000D02*
X111216000Y-132476000D01*
X118146000Y-131826000D02*
X118146000Y-130151000D01*
X118146000Y-131826000D02*
X118146000Y-132476000D01*
X115026000Y-131826000D02*
X115026000Y-132476000D01*
X115026000Y-131826000D02*
X115026000Y-131176000D01*
X118083000Y-127534936D02*
X118083000Y-127989064D01*
X116613000Y-127534936D02*
X116613000Y-127989064D01*
%LPC*%
D17*
X107712000Y-139192000D03*
X109712000Y-139192000D03*
D18*
X122174000Y-146802000D03*
D19*
X122174000Y-144262000D03*
X122174000Y-141722000D03*
X122174000Y-139182000D03*
D20*
X109916000Y-130888500D03*
X108016000Y-130888500D03*
X108966000Y-132763500D03*
D21*
X113538000Y-126762000D03*
X113538000Y-128762000D03*
D22*
X108025000Y-112250000D03*
X115975000Y-112250000D03*
X115975000Y-107750000D03*
X108025000Y-107750000D03*
D21*
X109728000Y-126746000D03*
X109728000Y-128746000D03*
D23*
X104101900Y-141008100D03*
X104101900Y-144005300D03*
X104101900Y-145503900D03*
D24*
X100754180Y-139108180D03*
X100754180Y-147403820D03*
X102953820Y-139108180D03*
X102953820Y-147403820D03*
D21*
X105918000Y-126762000D03*
X105918000Y-128762000D03*
D25*
X108610000Y-145274000D03*
X108610000Y-147574000D03*
D26*
X114910000Y-147574000D03*
D25*
X108610000Y-149874000D03*
D20*
X106106000Y-130888500D03*
X104206000Y-130888500D03*
X105156000Y-132763500D03*
X113726000Y-130888500D03*
X111826000Y-130888500D03*
X112776000Y-132763500D03*
X117536000Y-130888500D03*
X115636000Y-130888500D03*
X116586000Y-132763500D03*
D21*
X117348000Y-126762000D03*
X117348000Y-128762000D03*
M02*
