%FSLAX45Y45*%
G04 Gerber Fmt 4.5, Leading zero omitted, Abs format (unit mm)*
G04 Created by KiCad (PCBNEW (6.0.5)) date 2022-05-21 23:03:58*
%MOMM*%
%LPD*%
G01*
G04 APERTURE LIST*
%TA.AperFunction,Profile*%
%ADD10C,0.100000*%
%TD*%
%ADD11C,0.200000*%
%ADD12C,0.040000*%
%ADD13C,0.100000*%
G04 APERTURE END LIST*
D10*
X10200000Y-15500000D02*
X12200000Y-15500000D01*
X10730000Y-10510000D02*
G75*
G03*
X10730000Y-10510000I-65000J0D01*
G01*
X10367600Y-10150000D02*
G75*
G03*
X10367600Y-10150000I-57600J0D01*
G01*
X12200000Y-10510000D02*
G75*
G03*
X12200000Y-10510000I-110000J0D01*
G01*
X12400000Y-10200000D02*
X12400000Y-15300000D01*
X10420000Y-15090000D02*
G75*
G03*
X10420000Y-15090000I-110000J0D01*
G01*
X12200000Y-15500000D02*
G75*
G03*
X12400000Y-15300000I0J200000D01*
G01*
X10200000Y-10000000D02*
G75*
G03*
X10000000Y-10200000I0J-200000D01*
G01*
X10000000Y-15300000D02*
G75*
G03*
X10200000Y-15500000I200000J0D01*
G01*
X11800000Y-15075000D02*
G75*
G03*
X11800000Y-15075000I-75000J0D01*
G01*
X12400000Y-10200000D02*
G75*
G03*
X12200000Y-10000000I-200000J0D01*
G01*
X12147600Y-15350000D02*
G75*
G03*
X12147600Y-15350000I-57600J0D01*
G01*
X10420000Y-10510000D02*
G75*
G03*
X10420000Y-10510000I-110000J0D01*
G01*
X10200000Y-10000000D02*
X12200000Y-10000000D01*
X12200000Y-15090000D02*
G75*
G03*
X12200000Y-15090000I-110000J0D01*
G01*
X10000000Y-15300000D02*
X10000000Y-10200000D01*
D11*
D12*
X10400600Y-12876600D02*
X10440600Y-12916600D01*
X10440600Y-12876600D02*
X10400600Y-12916600D01*
X10597200Y-11079800D02*
X10637200Y-11119800D01*
X10637200Y-11079800D02*
X10597200Y-11119800D01*
X10622600Y-13365800D02*
X10662600Y-13405800D01*
X10662600Y-13365800D02*
X10622600Y-13405800D01*
X10851200Y-12273600D02*
X10891200Y-12313600D01*
X10891200Y-12273600D02*
X10851200Y-12313600D01*
X10952800Y-13365800D02*
X10992800Y-13405800D01*
X10992800Y-13365800D02*
X10952800Y-13405800D01*
X11054400Y-15269200D02*
X11094400Y-15309200D01*
X11094400Y-15269200D02*
X11054400Y-15309200D01*
X11156000Y-12273600D02*
X11196000Y-12313600D01*
X11196000Y-12273600D02*
X11156000Y-12313600D01*
X11156000Y-13365800D02*
X11196000Y-13405800D01*
X11196000Y-13365800D02*
X11156000Y-13405800D01*
X11232200Y-14508800D02*
X11272200Y-14548800D01*
X11272200Y-14508800D02*
X11232200Y-14548800D01*
X11410000Y-12273600D02*
X11450000Y-12313600D01*
X11450000Y-12273600D02*
X11410000Y-12313600D01*
X11410000Y-13365800D02*
X11450000Y-13405800D01*
X11450000Y-13365800D02*
X11410000Y-13405800D01*
X11537000Y-14102400D02*
X11577000Y-14142400D01*
X11577000Y-14102400D02*
X11537000Y-14142400D01*
X11617500Y-12277900D02*
X11657500Y-12317900D01*
X11657500Y-12277900D02*
X11617500Y-12317900D01*
X11740200Y-13619800D02*
X11780200Y-13659800D01*
X11780200Y-13619800D02*
X11740200Y-13659800D01*
X11816400Y-12273600D02*
X11856400Y-12313600D01*
X11856400Y-12273600D02*
X11816400Y-12313600D01*
X12197400Y-13518200D02*
X12237400Y-13558200D01*
X12237400Y-13518200D02*
X12197400Y-13558200D01*
X12248200Y-10952800D02*
X12288200Y-10992800D01*
X12288200Y-10952800D02*
X12248200Y-10992800D01*
D13*
X12267400Y-13918200D02*
G75*
G03*
X12267400Y-13918200I-50000J0D01*
G01*
X12267400Y-14172200D02*
G75*
G03*
X12267400Y-14172200I-50000J0D01*
G01*
X12267400Y-14426200D02*
G75*
G03*
X12267400Y-14426200I-50000J0D01*
G01*
X12267400Y-14680200D02*
G75*
G03*
X12267400Y-14680200I-50000J0D01*
G01*
D11*
X10252619Y-15815476D02*
X10252619Y-15615476D01*
X10300238Y-15615476D01*
X10328810Y-15625000D01*
X10347857Y-15644048D01*
X10357381Y-15663095D01*
X10366905Y-15701190D01*
X10366905Y-15729762D01*
X10357381Y-15767857D01*
X10347857Y-15786905D01*
X10328810Y-15805952D01*
X10300238Y-15815476D01*
X10252619Y-15815476D01*
X10452619Y-15815476D02*
X10452619Y-15682143D01*
X10452619Y-15720238D02*
X10462143Y-15701190D01*
X10471667Y-15691667D01*
X10490714Y-15682143D01*
X10509762Y-15682143D01*
X10576429Y-15815476D02*
X10576429Y-15682143D01*
X10576429Y-15615476D02*
X10566905Y-15625000D01*
X10576429Y-15634524D01*
X10585952Y-15625000D01*
X10576429Y-15615476D01*
X10576429Y-15634524D01*
X10700238Y-15815476D02*
X10681190Y-15805952D01*
X10671667Y-15786905D01*
X10671667Y-15615476D01*
X10805000Y-15815476D02*
X10785952Y-15805952D01*
X10776429Y-15786905D01*
X10776429Y-15615476D01*
X11033571Y-15815476D02*
X11033571Y-15615476D01*
X11100238Y-15758333D01*
X11166905Y-15615476D01*
X11166905Y-15815476D01*
X11347857Y-15815476D02*
X11347857Y-15710714D01*
X11338333Y-15691667D01*
X11319286Y-15682143D01*
X11281190Y-15682143D01*
X11262143Y-15691667D01*
X11347857Y-15805952D02*
X11328809Y-15815476D01*
X11281190Y-15815476D01*
X11262143Y-15805952D01*
X11252619Y-15786905D01*
X11252619Y-15767857D01*
X11262143Y-15748809D01*
X11281190Y-15739286D01*
X11328809Y-15739286D01*
X11347857Y-15729762D01*
X11443095Y-15682143D02*
X11443095Y-15882143D01*
X11443095Y-15691667D02*
X11462143Y-15682143D01*
X11500238Y-15682143D01*
X11519286Y-15691667D01*
X11528809Y-15701190D01*
X11538333Y-15720238D01*
X11538333Y-15777381D01*
X11528809Y-15796428D01*
X11519286Y-15805952D01*
X11500238Y-15815476D01*
X11462143Y-15815476D01*
X11443095Y-15805952D01*
X11624048Y-15796428D02*
X11633571Y-15805952D01*
X11624048Y-15815476D01*
X11614524Y-15805952D01*
X11624048Y-15796428D01*
X11624048Y-15815476D01*
X11624048Y-15691667D02*
X11633571Y-15701190D01*
X11624048Y-15710714D01*
X11614524Y-15701190D01*
X11624048Y-15691667D01*
X11624048Y-15710714D01*
D12*
X9955000Y-16125000D02*
X9995000Y-16165000D01*
X9995000Y-16125000D02*
X9955000Y-16165000D01*
D11*
X10290714Y-16035476D02*
X10309762Y-16035476D01*
X10328810Y-16045000D01*
X10338333Y-16054524D01*
X10347857Y-16073571D01*
X10357381Y-16111667D01*
X10357381Y-16159286D01*
X10347857Y-16197381D01*
X10338333Y-16216428D01*
X10328810Y-16225952D01*
X10309762Y-16235476D01*
X10290714Y-16235476D01*
X10271667Y-16225952D01*
X10262143Y-16216428D01*
X10252619Y-16197381D01*
X10243095Y-16159286D01*
X10243095Y-16111667D01*
X10252619Y-16073571D01*
X10262143Y-16054524D01*
X10271667Y-16045000D01*
X10290714Y-16035476D01*
X10443095Y-16216428D02*
X10452619Y-16225952D01*
X10443095Y-16235476D01*
X10433571Y-16225952D01*
X10443095Y-16216428D01*
X10443095Y-16235476D01*
X10624048Y-16102143D02*
X10624048Y-16235476D01*
X10576429Y-16025952D02*
X10528810Y-16168809D01*
X10652619Y-16168809D01*
X10766905Y-16035476D02*
X10785952Y-16035476D01*
X10805000Y-16045000D01*
X10814524Y-16054524D01*
X10824048Y-16073571D01*
X10833571Y-16111667D01*
X10833571Y-16159286D01*
X10824048Y-16197381D01*
X10814524Y-16216428D01*
X10805000Y-16225952D01*
X10785952Y-16235476D01*
X10766905Y-16235476D01*
X10747857Y-16225952D01*
X10738333Y-16216428D01*
X10728810Y-16197381D01*
X10719286Y-16159286D01*
X10719286Y-16111667D01*
X10728810Y-16073571D01*
X10738333Y-16054524D01*
X10747857Y-16045000D01*
X10766905Y-16035476D01*
X10957381Y-16035476D02*
X10976429Y-16035476D01*
X10995476Y-16045000D01*
X11005000Y-16054524D01*
X11014524Y-16073571D01*
X11024048Y-16111667D01*
X11024048Y-16159286D01*
X11014524Y-16197381D01*
X11005000Y-16216428D01*
X10995476Y-16225952D01*
X10976429Y-16235476D01*
X10957381Y-16235476D01*
X10938333Y-16225952D01*
X10928810Y-16216428D01*
X10919286Y-16197381D01*
X10909762Y-16159286D01*
X10909762Y-16111667D01*
X10919286Y-16073571D01*
X10928810Y-16054524D01*
X10938333Y-16045000D01*
X10957381Y-16035476D01*
X11109762Y-16235476D02*
X11109762Y-16102143D01*
X11109762Y-16121190D02*
X11119286Y-16111667D01*
X11138333Y-16102143D01*
X11166905Y-16102143D01*
X11185952Y-16111667D01*
X11195476Y-16130714D01*
X11195476Y-16235476D01*
X11195476Y-16130714D02*
X11205000Y-16111667D01*
X11224048Y-16102143D01*
X11252619Y-16102143D01*
X11271667Y-16111667D01*
X11281190Y-16130714D01*
X11281190Y-16235476D01*
X11376428Y-16235476D02*
X11376428Y-16102143D01*
X11376428Y-16121190D02*
X11385952Y-16111667D01*
X11405000Y-16102143D01*
X11433571Y-16102143D01*
X11452619Y-16111667D01*
X11462143Y-16130714D01*
X11462143Y-16235476D01*
X11462143Y-16130714D02*
X11471667Y-16111667D01*
X11490714Y-16102143D01*
X11519286Y-16102143D01*
X11538333Y-16111667D01*
X11547857Y-16130714D01*
X11547857Y-16235476D01*
X11938333Y-16025952D02*
X11766905Y-16283095D01*
X12195476Y-16035476D02*
X12214524Y-16035476D01*
X12233571Y-16045000D01*
X12243095Y-16054524D01*
X12252619Y-16073571D01*
X12262143Y-16111667D01*
X12262143Y-16159286D01*
X12252619Y-16197381D01*
X12243095Y-16216428D01*
X12233571Y-16225952D01*
X12214524Y-16235476D01*
X12195476Y-16235476D01*
X12176428Y-16225952D01*
X12166905Y-16216428D01*
X12157381Y-16197381D01*
X12147857Y-16159286D01*
X12147857Y-16111667D01*
X12157381Y-16073571D01*
X12166905Y-16054524D01*
X12176428Y-16045000D01*
X12195476Y-16035476D01*
X12347857Y-16216428D02*
X12357381Y-16225952D01*
X12347857Y-16235476D01*
X12338333Y-16225952D01*
X12347857Y-16216428D01*
X12347857Y-16235476D01*
X12481190Y-16035476D02*
X12500238Y-16035476D01*
X12519286Y-16045000D01*
X12528809Y-16054524D01*
X12538333Y-16073571D01*
X12547857Y-16111667D01*
X12547857Y-16159286D01*
X12538333Y-16197381D01*
X12528809Y-16216428D01*
X12519286Y-16225952D01*
X12500238Y-16235476D01*
X12481190Y-16235476D01*
X12462143Y-16225952D01*
X12452619Y-16216428D01*
X12443095Y-16197381D01*
X12433571Y-16159286D01*
X12433571Y-16111667D01*
X12443095Y-16073571D01*
X12452619Y-16054524D01*
X12462143Y-16045000D01*
X12481190Y-16035476D01*
X12738333Y-16235476D02*
X12624048Y-16235476D01*
X12681190Y-16235476D02*
X12681190Y-16035476D01*
X12662143Y-16064048D01*
X12643095Y-16083095D01*
X12624048Y-16092619D01*
X12919286Y-16035476D02*
X12824048Y-16035476D01*
X12814524Y-16130714D01*
X12824048Y-16121190D01*
X12843095Y-16111667D01*
X12890714Y-16111667D01*
X12909762Y-16121190D01*
X12919286Y-16130714D01*
X12928809Y-16149762D01*
X12928809Y-16197381D01*
X12919286Y-16216428D01*
X12909762Y-16225952D01*
X12890714Y-16235476D01*
X12843095Y-16235476D01*
X12824048Y-16225952D01*
X12814524Y-16216428D01*
X12995476Y-16035476D02*
X13128809Y-16035476D01*
X13043095Y-16235476D01*
X13195476Y-16035476D02*
X13195476Y-16073571D01*
X13271667Y-16035476D02*
X13271667Y-16073571D01*
X13566905Y-16311667D02*
X13557381Y-16302143D01*
X13538333Y-16273571D01*
X13528809Y-16254524D01*
X13519286Y-16225952D01*
X13509762Y-16178333D01*
X13509762Y-16140238D01*
X13519286Y-16092619D01*
X13528809Y-16064048D01*
X13538333Y-16045000D01*
X13557381Y-16016428D01*
X13566905Y-16006905D01*
X13747857Y-16235476D02*
X13633571Y-16235476D01*
X13690714Y-16235476D02*
X13690714Y-16035476D01*
X13671667Y-16064048D01*
X13652619Y-16083095D01*
X13633571Y-16092619D01*
X13814524Y-16035476D02*
X13947857Y-16035476D01*
X13862143Y-16235476D01*
X14176428Y-16235476D02*
X14176428Y-16035476D01*
X14262143Y-16235476D02*
X14262143Y-16130714D01*
X14252619Y-16111667D01*
X14233571Y-16102143D01*
X14205000Y-16102143D01*
X14185952Y-16111667D01*
X14176428Y-16121190D01*
X14385952Y-16235476D02*
X14366905Y-16225952D01*
X14357381Y-16216428D01*
X14347857Y-16197381D01*
X14347857Y-16140238D01*
X14357381Y-16121190D01*
X14366905Y-16111667D01*
X14385952Y-16102143D01*
X14414524Y-16102143D01*
X14433571Y-16111667D01*
X14443095Y-16121190D01*
X14452619Y-16140238D01*
X14452619Y-16197381D01*
X14443095Y-16216428D01*
X14433571Y-16225952D01*
X14414524Y-16235476D01*
X14385952Y-16235476D01*
X14566905Y-16235476D02*
X14547857Y-16225952D01*
X14538333Y-16206905D01*
X14538333Y-16035476D01*
X14719286Y-16225952D02*
X14700238Y-16235476D01*
X14662143Y-16235476D01*
X14643095Y-16225952D01*
X14633571Y-16206905D01*
X14633571Y-16130714D01*
X14643095Y-16111667D01*
X14662143Y-16102143D01*
X14700238Y-16102143D01*
X14719286Y-16111667D01*
X14728809Y-16130714D01*
X14728809Y-16149762D01*
X14633571Y-16168809D01*
X14805000Y-16225952D02*
X14824048Y-16235476D01*
X14862143Y-16235476D01*
X14881190Y-16225952D01*
X14890714Y-16206905D01*
X14890714Y-16197381D01*
X14881190Y-16178333D01*
X14862143Y-16168809D01*
X14833571Y-16168809D01*
X14814524Y-16159286D01*
X14805000Y-16140238D01*
X14805000Y-16130714D01*
X14814524Y-16111667D01*
X14833571Y-16102143D01*
X14862143Y-16102143D01*
X14881190Y-16111667D01*
X14957381Y-16311667D02*
X14966905Y-16302143D01*
X14985952Y-16273571D01*
X14995476Y-16254524D01*
X15005000Y-16225952D01*
X15014524Y-16178333D01*
X15014524Y-16140238D01*
X15005000Y-16092619D01*
X14995476Y-16064048D01*
X14985952Y-16045000D01*
X14966905Y-16016428D01*
X14957381Y-16006905D01*
D13*
X9995000Y-16409000D02*
G75*
G03*
X9995000Y-16409000I-50000J0D01*
G01*
D11*
X10357381Y-16499476D02*
X10243095Y-16499476D01*
X10300238Y-16499476D02*
X10300238Y-16299476D01*
X10281190Y-16328048D01*
X10262143Y-16347095D01*
X10243095Y-16356619D01*
X10443095Y-16480428D02*
X10452619Y-16489952D01*
X10443095Y-16499476D01*
X10433571Y-16489952D01*
X10443095Y-16480428D01*
X10443095Y-16499476D01*
X10576429Y-16299476D02*
X10595476Y-16299476D01*
X10614524Y-16309000D01*
X10624048Y-16318524D01*
X10633571Y-16337571D01*
X10643095Y-16375667D01*
X10643095Y-16423286D01*
X10633571Y-16461381D01*
X10624048Y-16480428D01*
X10614524Y-16489952D01*
X10595476Y-16499476D01*
X10576429Y-16499476D01*
X10557381Y-16489952D01*
X10547857Y-16480428D01*
X10538333Y-16461381D01*
X10528810Y-16423286D01*
X10528810Y-16375667D01*
X10538333Y-16337571D01*
X10547857Y-16318524D01*
X10557381Y-16309000D01*
X10576429Y-16299476D01*
X10766905Y-16299476D02*
X10785952Y-16299476D01*
X10805000Y-16309000D01*
X10814524Y-16318524D01*
X10824048Y-16337571D01*
X10833571Y-16375667D01*
X10833571Y-16423286D01*
X10824048Y-16461381D01*
X10814524Y-16480428D01*
X10805000Y-16489952D01*
X10785952Y-16499476D01*
X10766905Y-16499476D01*
X10747857Y-16489952D01*
X10738333Y-16480428D01*
X10728810Y-16461381D01*
X10719286Y-16423286D01*
X10719286Y-16375667D01*
X10728810Y-16337571D01*
X10738333Y-16318524D01*
X10747857Y-16309000D01*
X10766905Y-16299476D01*
X10957381Y-16299476D02*
X10976429Y-16299476D01*
X10995476Y-16309000D01*
X11005000Y-16318524D01*
X11014524Y-16337571D01*
X11024048Y-16375667D01*
X11024048Y-16423286D01*
X11014524Y-16461381D01*
X11005000Y-16480428D01*
X10995476Y-16489952D01*
X10976429Y-16499476D01*
X10957381Y-16499476D01*
X10938333Y-16489952D01*
X10928810Y-16480428D01*
X10919286Y-16461381D01*
X10909762Y-16423286D01*
X10909762Y-16375667D01*
X10919286Y-16337571D01*
X10928810Y-16318524D01*
X10938333Y-16309000D01*
X10957381Y-16299476D01*
X11109762Y-16499476D02*
X11109762Y-16366143D01*
X11109762Y-16385190D02*
X11119286Y-16375667D01*
X11138333Y-16366143D01*
X11166905Y-16366143D01*
X11185952Y-16375667D01*
X11195476Y-16394714D01*
X11195476Y-16499476D01*
X11195476Y-16394714D02*
X11205000Y-16375667D01*
X11224048Y-16366143D01*
X11252619Y-16366143D01*
X11271667Y-16375667D01*
X11281190Y-16394714D01*
X11281190Y-16499476D01*
X11376428Y-16499476D02*
X11376428Y-16366143D01*
X11376428Y-16385190D02*
X11385952Y-16375667D01*
X11405000Y-16366143D01*
X11433571Y-16366143D01*
X11452619Y-16375667D01*
X11462143Y-16394714D01*
X11462143Y-16499476D01*
X11462143Y-16394714D02*
X11471667Y-16375667D01*
X11490714Y-16366143D01*
X11519286Y-16366143D01*
X11538333Y-16375667D01*
X11547857Y-16394714D01*
X11547857Y-16499476D01*
X11938333Y-16289952D02*
X11766905Y-16547095D01*
X12195476Y-16299476D02*
X12214524Y-16299476D01*
X12233571Y-16309000D01*
X12243095Y-16318524D01*
X12252619Y-16337571D01*
X12262143Y-16375667D01*
X12262143Y-16423286D01*
X12252619Y-16461381D01*
X12243095Y-16480428D01*
X12233571Y-16489952D01*
X12214524Y-16499476D01*
X12195476Y-16499476D01*
X12176428Y-16489952D01*
X12166905Y-16480428D01*
X12157381Y-16461381D01*
X12147857Y-16423286D01*
X12147857Y-16375667D01*
X12157381Y-16337571D01*
X12166905Y-16318524D01*
X12176428Y-16309000D01*
X12195476Y-16299476D01*
X12347857Y-16480428D02*
X12357381Y-16489952D01*
X12347857Y-16499476D01*
X12338333Y-16489952D01*
X12347857Y-16480428D01*
X12347857Y-16499476D01*
X12481190Y-16299476D02*
X12500238Y-16299476D01*
X12519286Y-16309000D01*
X12528809Y-16318524D01*
X12538333Y-16337571D01*
X12547857Y-16375667D01*
X12547857Y-16423286D01*
X12538333Y-16461381D01*
X12528809Y-16480428D01*
X12519286Y-16489952D01*
X12500238Y-16499476D01*
X12481190Y-16499476D01*
X12462143Y-16489952D01*
X12452619Y-16480428D01*
X12443095Y-16461381D01*
X12433571Y-16423286D01*
X12433571Y-16375667D01*
X12443095Y-16337571D01*
X12452619Y-16318524D01*
X12462143Y-16309000D01*
X12481190Y-16299476D01*
X12614524Y-16299476D02*
X12738333Y-16299476D01*
X12671667Y-16375667D01*
X12700238Y-16375667D01*
X12719286Y-16385190D01*
X12728809Y-16394714D01*
X12738333Y-16413762D01*
X12738333Y-16461381D01*
X12728809Y-16480428D01*
X12719286Y-16489952D01*
X12700238Y-16499476D01*
X12643095Y-16499476D01*
X12624048Y-16489952D01*
X12614524Y-16480428D01*
X12833571Y-16499476D02*
X12871667Y-16499476D01*
X12890714Y-16489952D01*
X12900238Y-16480428D01*
X12919286Y-16451857D01*
X12928809Y-16413762D01*
X12928809Y-16337571D01*
X12919286Y-16318524D01*
X12909762Y-16309000D01*
X12890714Y-16299476D01*
X12852619Y-16299476D01*
X12833571Y-16309000D01*
X12824048Y-16318524D01*
X12814524Y-16337571D01*
X12814524Y-16385190D01*
X12824048Y-16404238D01*
X12833571Y-16413762D01*
X12852619Y-16423286D01*
X12890714Y-16423286D01*
X12909762Y-16413762D01*
X12919286Y-16404238D01*
X12928809Y-16385190D01*
X13100238Y-16366143D02*
X13100238Y-16499476D01*
X13052619Y-16289952D02*
X13005000Y-16432809D01*
X13128809Y-16432809D01*
X13195476Y-16299476D02*
X13195476Y-16337571D01*
X13271667Y-16299476D02*
X13271667Y-16337571D01*
X13566905Y-16575667D02*
X13557381Y-16566143D01*
X13538333Y-16537571D01*
X13528809Y-16518524D01*
X13519286Y-16489952D01*
X13509762Y-16442333D01*
X13509762Y-16404238D01*
X13519286Y-16356619D01*
X13528809Y-16328048D01*
X13538333Y-16309000D01*
X13557381Y-16280428D01*
X13566905Y-16270905D01*
X13728809Y-16366143D02*
X13728809Y-16499476D01*
X13681190Y-16289952D02*
X13633571Y-16432809D01*
X13757381Y-16432809D01*
X13985952Y-16499476D02*
X13985952Y-16299476D01*
X14071667Y-16499476D02*
X14071667Y-16394714D01*
X14062143Y-16375667D01*
X14043095Y-16366143D01*
X14014524Y-16366143D01*
X13995476Y-16375667D01*
X13985952Y-16385190D01*
X14195476Y-16499476D02*
X14176428Y-16489952D01*
X14166905Y-16480428D01*
X14157381Y-16461381D01*
X14157381Y-16404238D01*
X14166905Y-16385190D01*
X14176428Y-16375667D01*
X14195476Y-16366143D01*
X14224048Y-16366143D01*
X14243095Y-16375667D01*
X14252619Y-16385190D01*
X14262143Y-16404238D01*
X14262143Y-16461381D01*
X14252619Y-16480428D01*
X14243095Y-16489952D01*
X14224048Y-16499476D01*
X14195476Y-16499476D01*
X14376428Y-16499476D02*
X14357381Y-16489952D01*
X14347857Y-16470905D01*
X14347857Y-16299476D01*
X14528809Y-16489952D02*
X14509762Y-16499476D01*
X14471667Y-16499476D01*
X14452619Y-16489952D01*
X14443095Y-16470905D01*
X14443095Y-16394714D01*
X14452619Y-16375667D01*
X14471667Y-16366143D01*
X14509762Y-16366143D01*
X14528809Y-16375667D01*
X14538333Y-16394714D01*
X14538333Y-16413762D01*
X14443095Y-16432809D01*
X14614524Y-16489952D02*
X14633571Y-16499476D01*
X14671667Y-16499476D01*
X14690714Y-16489952D01*
X14700238Y-16470905D01*
X14700238Y-16461381D01*
X14690714Y-16442333D01*
X14671667Y-16432809D01*
X14643095Y-16432809D01*
X14624048Y-16423286D01*
X14614524Y-16404238D01*
X14614524Y-16394714D01*
X14624048Y-16375667D01*
X14643095Y-16366143D01*
X14671667Y-16366143D01*
X14690714Y-16375667D01*
X14766905Y-16575667D02*
X14776428Y-16566143D01*
X14795476Y-16537571D01*
X14805000Y-16518524D01*
X14814524Y-16489952D01*
X14824048Y-16442333D01*
X14824048Y-16404238D01*
X14814524Y-16356619D01*
X14805000Y-16328048D01*
X14795476Y-16309000D01*
X14776428Y-16280428D01*
X14766905Y-16270905D01*
M02*
