M48
; DRILL file {KiCad (6.0.5)} date Sa 21 Mai 2022 23:03:57 CEST
; FORMAT={-:-/ absolute / metric / decimal}
; #@! TF.CreationDate,2022-05-21T23:03:57+02:00
; #@! TF.GenerationSoftware,Kicad,Pcbnew,(6.0.5)
; #@! TF.FileFunction,Plated,1,2,PTH
FMAT,2
METRIC
; #@! TA.AperFunction,Plated,PTH,ViaDrill
T1C0.400
; #@! TA.AperFunction,Plated,PTH,ComponentDrill
T2C1.000
%
G90
G05
T1
X104.206Y-128.966
X106.172Y-110.998
X106.426Y-133.858
X108.712Y-122.936
X109.728Y-133.858
X110.744Y-152.892
X111.76Y-122.936
X111.76Y-133.858
X112.522Y-145.288
X114.3Y-122.936
X114.3Y-133.858
X115.57Y-141.224
X116.375Y-122.979
X117.602Y-136.398
X118.364Y-122.936
X122.174Y-135.382
X122.682Y-109.728
T2
X122.174Y-139.182
X122.174Y-141.722
X122.174Y-144.262
X122.174Y-146.802
T0
M30
