G04 #@! TF.GenerationSoftware,KiCad,Pcbnew,(6.0.5)*
G04 #@! TF.CreationDate,2022-05-11T01:06:37+02:00*
G04 #@! TF.ProjectId,HighBong_V2,48696768-426f-46e6-975f-56322e6b6963,rev?*
G04 #@! TF.SameCoordinates,Original*
G04 #@! TF.FileFunction,Copper,L1,Top*
G04 #@! TF.FilePolarity,Positive*
%FSLAX46Y46*%
G04 Gerber Fmt 4.6, Leading zero omitted, Abs format (unit mm)*
G04 Created by KiCad (PCBNEW (6.0.5)) date 2022-05-11 01:06:37*
%MOMM*%
%LPD*%
G01*
G04 APERTURE LIST*
G04 Aperture macros list*
%AMRoundRect*
0 Rectangle with rounded corners*
0 $1 Rounding radius*
0 $2 $3 $4 $5 $6 $7 $8 $9 X,Y pos of 4 corners*
0 Add a 4 corners polygon primitive as box body*
4,1,4,$2,$3,$4,$5,$6,$7,$8,$9,$2,$3,0*
0 Add four circle primitives for the rounded corners*
1,1,$1+$1,$2,$3*
1,1,$1+$1,$4,$5*
1,1,$1+$1,$6,$7*
1,1,$1+$1,$8,$9*
0 Add four rect primitives between the rounded corners*
20,1,$1+$1,$2,$3,$4,$5,0*
20,1,$1+$1,$4,$5,$6,$7,0*
20,1,$1+$1,$6,$7,$8,$9,0*
20,1,$1+$1,$8,$9,$2,$3,0*%
G04 Aperture macros list end*
G04 #@! TA.AperFunction,SMDPad,CuDef*
%ADD10RoundRect,0.250000X-0.350000X-0.450000X0.350000X-0.450000X0.350000X0.450000X-0.350000X0.450000X0*%
G04 #@! TD*
G04 #@! TA.AperFunction,ComponentPad*
%ADD11R,1.700000X1.700000*%
G04 #@! TD*
G04 #@! TA.AperFunction,ComponentPad*
%ADD12O,1.700000X1.700000*%
G04 #@! TD*
G04 #@! TA.AperFunction,SMDPad,CuDef*
%ADD13RoundRect,0.150000X-0.150000X0.587500X-0.150000X-0.587500X0.150000X-0.587500X0.150000X0.587500X0*%
G04 #@! TD*
G04 #@! TA.AperFunction,SMDPad,CuDef*
%ADD14RoundRect,0.250000X-0.450000X0.350000X-0.450000X-0.350000X0.450000X-0.350000X0.450000X0.350000X0*%
G04 #@! TD*
G04 #@! TA.AperFunction,SMDPad,CuDef*
%ADD15R,1.550000X1.300000*%
G04 #@! TD*
G04 #@! TA.AperFunction,SMDPad,CuDef*
%ADD16R,1.498600X0.698500*%
G04 #@! TD*
G04 #@! TA.AperFunction,SMDPad,CuDef*
%ADD17R,0.797560X0.998220*%
G04 #@! TD*
G04 #@! TA.AperFunction,SMDPad,CuDef*
%ADD18R,2.000000X1.500000*%
G04 #@! TD*
G04 #@! TA.AperFunction,SMDPad,CuDef*
%ADD19R,2.000000X3.800000*%
G04 #@! TD*
G04 #@! TA.AperFunction,ViaPad*
%ADD20C,0.800000*%
G04 #@! TD*
G04 #@! TA.AperFunction,Conductor*
%ADD21C,0.250000*%
G04 #@! TD*
G04 APERTURE END LIST*
D10*
X107712000Y-139192000D03*
X109712000Y-139192000D03*
D11*
X122174000Y-146802000D03*
D12*
X122174000Y-144262000D03*
X122174000Y-141722000D03*
X122174000Y-139182000D03*
D13*
X109916000Y-130888500D03*
X108016000Y-130888500D03*
X108966000Y-132763500D03*
D14*
X113538000Y-126762000D03*
X113538000Y-128762000D03*
D15*
X108025000Y-112250000D03*
X115975000Y-112250000D03*
X115975000Y-107750000D03*
X108025000Y-107750000D03*
D14*
X109728000Y-126746000D03*
X109728000Y-128746000D03*
D16*
X104101900Y-141516100D03*
X104101900Y-144513300D03*
X104101900Y-146011900D03*
D17*
X102953820Y-139616180D03*
X100754180Y-147911820D03*
X100754180Y-139616180D03*
X102953820Y-147911820D03*
D14*
X105918000Y-126762000D03*
X105918000Y-128762000D03*
D18*
X108610000Y-145274000D03*
X108610000Y-147574000D03*
D19*
X114910000Y-147574000D03*
D18*
X108610000Y-149874000D03*
D13*
X106106000Y-130888500D03*
X104206000Y-130888500D03*
X105156000Y-132763500D03*
X113726000Y-130888500D03*
X111826000Y-130888500D03*
X112776000Y-132763500D03*
X117536000Y-130888500D03*
X115636000Y-130888500D03*
X116586000Y-132763500D03*
D14*
X117348000Y-126762000D03*
X117348000Y-128762000D03*
D20*
X122682000Y-109728000D03*
X104206000Y-128966000D03*
X111746000Y-145274000D03*
X118364000Y-122936000D03*
X114300000Y-122936000D03*
X111760000Y-122936000D03*
X108712000Y-122936000D03*
X115570000Y-141224000D03*
X106172000Y-110998000D03*
X117602000Y-136398000D03*
X106426000Y-133858000D03*
X111014000Y-152892000D03*
X109728000Y-133858000D03*
X111760000Y-133858000D03*
X114300000Y-133858000D03*
X116375000Y-122979000D03*
X122174000Y-135382000D03*
D21*
X111826000Y-130888500D02*
X112309572Y-130888500D01*
X108507428Y-130888500D02*
X108016000Y-130888500D01*
X122174000Y-139182000D02*
X121148000Y-140208000D01*
X113501072Y-132080000D02*
X114444500Y-132080000D01*
X111746000Y-142508000D02*
X111746000Y-145274000D01*
X115975000Y-107750000D02*
X120704000Y-107750000D01*
X122428000Y-109474000D02*
X122682000Y-109728000D01*
X110763980Y-131950520D02*
X109569448Y-131950520D01*
X104101900Y-144513300D02*
X107849300Y-144513300D01*
X101854000Y-133240500D02*
X104206000Y-130888500D01*
X121148000Y-140208000D02*
X114046000Y-140208000D01*
X108025000Y-107750000D02*
X115975000Y-107750000D01*
X104206000Y-130888500D02*
X104206000Y-128966000D01*
X104206000Y-130888500D02*
X104697428Y-130888500D01*
X120704000Y-107750000D02*
X122428000Y-109474000D01*
X114444500Y-132080000D02*
X115636000Y-130888500D01*
X104101900Y-144513300D02*
X101854000Y-142265400D01*
X106953980Y-131950520D02*
X108016000Y-130888500D01*
X111826000Y-130888500D02*
X110763980Y-131950520D01*
X114046000Y-140208000D02*
X111746000Y-142508000D01*
X104697428Y-130888500D02*
X105759448Y-131950520D01*
X107849300Y-144513300D02*
X108610000Y-145274000D01*
X108610000Y-145274000D02*
X111746000Y-145274000D01*
X109569448Y-131950520D02*
X108507428Y-130888500D01*
X112309572Y-130888500D02*
X113501072Y-132080000D01*
X105759448Y-131950520D02*
X106953980Y-131950520D01*
X101854000Y-142265400D02*
X101854000Y-133240500D01*
X118364000Y-122936000D02*
X118364000Y-125746000D01*
X118364000Y-125746000D02*
X117348000Y-126762000D01*
X113538000Y-123698000D02*
X114300000Y-122936000D01*
X113538000Y-126762000D02*
X113538000Y-124206000D01*
X113538000Y-124206000D02*
X113538000Y-123698000D01*
X110998000Y-122936000D02*
X111760000Y-122936000D01*
X109728000Y-124206000D02*
X110998000Y-122936000D01*
X109728000Y-126746000D02*
X109728000Y-124206000D01*
X105918000Y-124206000D02*
X107188000Y-122936000D01*
X107188000Y-122936000D02*
X108712000Y-122936000D01*
X105918000Y-126762000D02*
X105918000Y-124206000D01*
X114910000Y-147574000D02*
X114910000Y-141884000D01*
X120142000Y-112014000D02*
X120142000Y-133858000D01*
X120142000Y-133858000D02*
X117602000Y-136398000D01*
X107188000Y-109982000D02*
X118110000Y-109982000D01*
X118110000Y-109982000D02*
X120142000Y-112014000D01*
X114910000Y-141884000D02*
X115570000Y-141224000D01*
X108610000Y-147574000D02*
X114910000Y-147574000D01*
X106172000Y-110998000D02*
X107188000Y-109982000D01*
X115682000Y-146802000D02*
X114910000Y-147574000D01*
X122174000Y-146802000D02*
X115682000Y-146802000D01*
X105331500Y-132763500D02*
X106426000Y-133858000D01*
X105156000Y-132763500D02*
X105331500Y-132763500D01*
X110998000Y-152908000D02*
X108712000Y-152908000D01*
X108610000Y-152806000D02*
X108610000Y-149874000D01*
X108712000Y-152908000D02*
X108610000Y-152806000D01*
X111014000Y-152892000D02*
X110998000Y-152908000D01*
X108966000Y-133096000D02*
X109728000Y-133858000D01*
X108966000Y-132763500D02*
X108966000Y-133096000D01*
X112776000Y-132763500D02*
X112776000Y-132842000D01*
X112776000Y-132842000D02*
X111760000Y-133858000D01*
X116586000Y-132763500D02*
X115394500Y-132763500D01*
X115394500Y-132763500D02*
X114300000Y-133858000D01*
X117348000Y-128762000D02*
X117348000Y-130700500D01*
X117348000Y-130700500D02*
X117536000Y-130888500D01*
X113538000Y-130700500D02*
X113726000Y-130888500D01*
X113538000Y-128762000D02*
X113538000Y-130700500D01*
X109728000Y-128746000D02*
X109728000Y-130700500D01*
X109728000Y-130700500D02*
X109916000Y-130888500D01*
X105918000Y-130700500D02*
X106106000Y-130888500D01*
X105918000Y-128762000D02*
X105918000Y-130700500D01*
X108025000Y-112250000D02*
X115975000Y-112250000D01*
X116375000Y-122979000D02*
X116375000Y-112650000D01*
X116375000Y-112650000D02*
X115975000Y-112250000D01*
X104101900Y-141516100D02*
X104101900Y-141262100D01*
X106172000Y-139192000D02*
X107712000Y-139192000D01*
X104101900Y-141262100D02*
X106172000Y-139192000D01*
X109712000Y-139192000D02*
X118364000Y-139192000D01*
X118364000Y-139192000D02*
X122174000Y-135382000D01*
G04 #@! TA.AperFunction,Conductor*
G36*
X102219007Y-100528502D02*
G01*
X102265500Y-100582158D01*
X102275604Y-100652432D01*
X102246110Y-100717012D01*
X102233964Y-100729231D01*
X102209961Y-100750281D01*
X102086565Y-100906809D01*
X101993760Y-101083202D01*
X101934654Y-101273554D01*
X101911227Y-101471489D01*
X101913096Y-101500000D01*
X101924263Y-101670380D01*
X101925684Y-101675976D01*
X101925685Y-101675981D01*
X101954068Y-101787737D01*
X101973326Y-101863564D01*
X101975743Y-101868807D01*
X102031160Y-101989017D01*
X102056772Y-102044573D01*
X102171807Y-102207344D01*
X102314578Y-102346425D01*
X102480304Y-102457160D01*
X102485607Y-102459438D01*
X102485610Y-102459440D01*
X102658128Y-102533559D01*
X102663435Y-102535839D01*
X102735516Y-102552149D01*
X102852201Y-102578553D01*
X102852207Y-102578554D01*
X102857838Y-102579828D01*
X102863609Y-102580055D01*
X102863611Y-102580055D01*
X102924556Y-102582449D01*
X103057001Y-102587653D01*
X103156959Y-102573160D01*
X103248535Y-102559883D01*
X103248540Y-102559882D01*
X103254256Y-102559053D01*
X103259728Y-102557195D01*
X103259730Y-102557195D01*
X103437532Y-102496839D01*
X103437534Y-102496838D01*
X103442996Y-102494984D01*
X103616899Y-102397594D01*
X103770143Y-102270143D01*
X103897594Y-102116899D01*
X103994984Y-101942996D01*
X104059053Y-101754256D01*
X104059882Y-101748540D01*
X104059883Y-101748535D01*
X104085571Y-101571359D01*
X104087653Y-101557001D01*
X104089146Y-101500000D01*
X104070908Y-101301519D01*
X104042712Y-101201542D01*
X104018373Y-101115244D01*
X104018372Y-101115242D01*
X104016805Y-101109685D01*
X104003746Y-101083202D01*
X103931205Y-100936104D01*
X103928650Y-100930923D01*
X103809393Y-100771219D01*
X103761581Y-100727022D01*
X103725138Y-100666096D01*
X103727419Y-100595136D01*
X103767701Y-100536674D01*
X103833196Y-100509271D01*
X103847112Y-100508500D01*
X121950633Y-100508500D01*
X121970018Y-100510000D01*
X121984851Y-100512310D01*
X121984855Y-100512310D01*
X121993724Y-100513691D01*
X122008981Y-100511696D01*
X122034302Y-100510953D01*
X122203285Y-100523039D01*
X122221064Y-100525596D01*
X122411392Y-100566999D01*
X122428641Y-100572063D01*
X122611150Y-100640136D01*
X122627502Y-100647604D01*
X122798458Y-100740952D01*
X122813582Y-100750672D01*
X122969514Y-100867402D01*
X122983100Y-100879175D01*
X123120825Y-101016900D01*
X123132598Y-101030486D01*
X123249328Y-101186418D01*
X123259048Y-101201542D01*
X123352396Y-101372498D01*
X123359864Y-101388850D01*
X123427937Y-101571359D01*
X123433001Y-101588607D01*
X123474404Y-101778936D01*
X123476961Y-101796715D01*
X123488540Y-101958601D01*
X123487793Y-101976565D01*
X123487692Y-101984845D01*
X123486309Y-101993724D01*
X123487474Y-102002630D01*
X123490436Y-102025283D01*
X123491500Y-102041621D01*
X123491500Y-138291558D01*
X123471498Y-138359679D01*
X123417842Y-138406172D01*
X123347568Y-138416276D01*
X123282988Y-138386782D01*
X123259709Y-138359999D01*
X123256429Y-138354929D01*
X123250136Y-138346757D01*
X123106806Y-138189240D01*
X123099273Y-138182215D01*
X122932139Y-138050222D01*
X122923552Y-138044517D01*
X122737117Y-137941599D01*
X122727705Y-137937369D01*
X122526959Y-137866280D01*
X122516988Y-137863646D01*
X122445837Y-137850972D01*
X122432540Y-137852432D01*
X122428000Y-137866989D01*
X122428000Y-139310000D01*
X122407998Y-139378121D01*
X122354342Y-139424614D01*
X122302000Y-139436000D01*
X120857225Y-139436000D01*
X120843694Y-139439973D01*
X120842257Y-139449966D01*
X120872565Y-139584446D01*
X120875645Y-139594275D01*
X120955770Y-139791603D01*
X120960413Y-139800794D01*
X121071694Y-139982388D01*
X121077777Y-139990699D01*
X121217213Y-140151667D01*
X121224580Y-140158883D01*
X121388434Y-140294916D01*
X121396881Y-140300831D01*
X121465969Y-140341203D01*
X121514693Y-140392842D01*
X121527764Y-140462625D01*
X121501033Y-140528396D01*
X121460584Y-140561752D01*
X121447607Y-140568507D01*
X121443474Y-140571610D01*
X121443471Y-140571612D01*
X121275873Y-140697448D01*
X121268965Y-140702635D01*
X121114629Y-140864138D01*
X121111715Y-140868410D01*
X121111714Y-140868411D01*
X121054083Y-140952895D01*
X120988743Y-141048680D01*
X120957810Y-141115319D01*
X120907363Y-141224000D01*
X120894688Y-141251305D01*
X120834989Y-141466570D01*
X120811251Y-141688695D01*
X120811548Y-141693848D01*
X120811548Y-141693851D01*
X120821811Y-141871835D01*
X120824110Y-141911715D01*
X120825247Y-141916761D01*
X120825248Y-141916767D01*
X120846539Y-142011237D01*
X120873222Y-142129639D01*
X120910495Y-142221431D01*
X120948881Y-142315965D01*
X120957266Y-142336616D01*
X120976466Y-142367948D01*
X121051722Y-142490754D01*
X121073987Y-142527088D01*
X121220250Y-142695938D01*
X121392126Y-142838632D01*
X121462595Y-142879811D01*
X121465445Y-142881476D01*
X121514169Y-142933114D01*
X121527240Y-143002897D01*
X121500509Y-143068669D01*
X121460055Y-143102027D01*
X121447607Y-143108507D01*
X121443474Y-143111610D01*
X121443471Y-143111612D01*
X121419247Y-143129800D01*
X121268965Y-143242635D01*
X121114629Y-143404138D01*
X120988743Y-143588680D01*
X120894688Y-143791305D01*
X120834989Y-144006570D01*
X120811251Y-144228695D01*
X120811548Y-144233848D01*
X120811548Y-144233851D01*
X120813653Y-144270351D01*
X120824110Y-144451715D01*
X120825247Y-144456761D01*
X120825248Y-144456767D01*
X120849304Y-144563508D01*
X120873222Y-144669639D01*
X120957266Y-144876616D01*
X121008942Y-144960944D01*
X121051722Y-145030754D01*
X121073987Y-145067088D01*
X121220250Y-145235938D01*
X121224230Y-145239242D01*
X121228981Y-145243187D01*
X121268616Y-145302090D01*
X121270113Y-145373071D01*
X121232997Y-145433593D01*
X121192724Y-145458112D01*
X121077295Y-145501385D01*
X120960739Y-145588739D01*
X120873385Y-145705295D01*
X120822255Y-145841684D01*
X120815500Y-145903866D01*
X120815500Y-146042500D01*
X120795498Y-146110621D01*
X120741842Y-146157114D01*
X120689500Y-146168500D01*
X116544500Y-146168500D01*
X116476379Y-146148498D01*
X116429886Y-146094842D01*
X116418500Y-146042500D01*
X116418500Y-145625866D01*
X116411745Y-145563684D01*
X116360615Y-145427295D01*
X116273261Y-145310739D01*
X116156705Y-145223385D01*
X116020316Y-145172255D01*
X115958134Y-145165500D01*
X115669500Y-145165500D01*
X115601379Y-145145498D01*
X115554886Y-145091842D01*
X115543500Y-145039500D01*
X115543500Y-142258078D01*
X115563502Y-142189957D01*
X115617158Y-142143464D01*
X115656333Y-142132768D01*
X115658884Y-142132500D01*
X115665487Y-142132500D01*
X115671940Y-142131128D01*
X115671943Y-142131128D01*
X115734513Y-142117828D01*
X115852288Y-142092794D01*
X115928164Y-142059012D01*
X116020722Y-142017803D01*
X116020724Y-142017802D01*
X116026752Y-142015118D01*
X116181253Y-141902866D01*
X116185675Y-141897955D01*
X116304621Y-141765852D01*
X116304622Y-141765851D01*
X116309040Y-141760944D01*
X116377713Y-141641999D01*
X116401223Y-141601279D01*
X116401224Y-141601278D01*
X116404527Y-141595556D01*
X116463542Y-141413928D01*
X116467072Y-141380348D01*
X116482814Y-141230565D01*
X116483504Y-141224000D01*
X116480907Y-141199292D01*
X116464232Y-141040635D01*
X116464232Y-141040633D01*
X116463542Y-141034072D01*
X116404527Y-140852444D01*
X116376321Y-140803589D01*
X116355613Y-140767722D01*
X116309040Y-140687056D01*
X116221471Y-140589800D01*
X116185675Y-140550045D01*
X116185674Y-140550044D01*
X116181253Y-140545134D01*
X116067690Y-140462625D01*
X116032094Y-140436763D01*
X116032093Y-140436762D01*
X116026752Y-140432882D01*
X116020724Y-140430198D01*
X116020722Y-140430197D01*
X115858319Y-140357891D01*
X115858318Y-140357891D01*
X115852288Y-140355206D01*
X115734998Y-140330275D01*
X115671944Y-140316872D01*
X115671939Y-140316872D01*
X115665487Y-140315500D01*
X115474513Y-140315500D01*
X115468061Y-140316872D01*
X115468056Y-140316872D01*
X115405002Y-140330275D01*
X115287712Y-140355206D01*
X115281682Y-140357891D01*
X115281681Y-140357891D01*
X115119278Y-140430197D01*
X115119276Y-140430198D01*
X115113248Y-140432882D01*
X115107907Y-140436762D01*
X115107906Y-140436763D01*
X115072310Y-140462625D01*
X114958747Y-140545134D01*
X114954326Y-140550044D01*
X114954325Y-140550045D01*
X114918530Y-140589800D01*
X114830960Y-140687056D01*
X114784387Y-140767722D01*
X114763680Y-140803589D01*
X114735473Y-140852444D01*
X114676458Y-141034072D01*
X114675768Y-141040633D01*
X114675768Y-141040635D01*
X114659093Y-141199292D01*
X114632080Y-141264949D01*
X114622878Y-141275217D01*
X114517747Y-141380348D01*
X114509461Y-141387888D01*
X114502982Y-141392000D01*
X114497557Y-141397777D01*
X114456357Y-141441651D01*
X114453602Y-141444493D01*
X114433865Y-141464230D01*
X114431385Y-141467427D01*
X114423682Y-141476447D01*
X114393414Y-141508679D01*
X114389595Y-141515625D01*
X114389593Y-141515628D01*
X114383652Y-141526434D01*
X114372801Y-141542953D01*
X114360386Y-141558959D01*
X114357241Y-141566228D01*
X114357238Y-141566232D01*
X114342826Y-141599537D01*
X114337609Y-141610187D01*
X114316305Y-141648940D01*
X114314334Y-141656615D01*
X114314334Y-141656616D01*
X114311267Y-141668562D01*
X114304863Y-141687266D01*
X114302014Y-141693851D01*
X114296819Y-141705855D01*
X114295580Y-141713678D01*
X114295577Y-141713688D01*
X114289901Y-141749524D01*
X114287495Y-141761144D01*
X114278472Y-141796289D01*
X114276500Y-141803970D01*
X114276500Y-141824224D01*
X114274949Y-141843934D01*
X114271780Y-141863943D01*
X114272526Y-141871835D01*
X114275941Y-141907961D01*
X114276500Y-141919819D01*
X114276500Y-145039500D01*
X114256498Y-145107621D01*
X114202842Y-145154114D01*
X114150500Y-145165500D01*
X113861866Y-145165500D01*
X113799684Y-145172255D01*
X113663295Y-145223385D01*
X113546739Y-145310739D01*
X113459385Y-145427295D01*
X113408255Y-145563684D01*
X113401500Y-145625866D01*
X113401500Y-146814500D01*
X113381498Y-146882621D01*
X113327842Y-146929114D01*
X113275500Y-146940500D01*
X110244500Y-146940500D01*
X110176379Y-146920498D01*
X110129886Y-146866842D01*
X110118500Y-146814500D01*
X110118500Y-146775866D01*
X110111745Y-146713684D01*
X110060615Y-146577295D01*
X110002047Y-146499148D01*
X109977199Y-146432642D01*
X109992252Y-146363259D01*
X110002047Y-146348018D01*
X110054786Y-146277648D01*
X110063324Y-146262054D01*
X110108478Y-146141606D01*
X110112105Y-146126351D01*
X110117631Y-146075486D01*
X110118000Y-146068672D01*
X110118000Y-145546115D01*
X110113525Y-145530876D01*
X110112135Y-145529671D01*
X110104452Y-145528000D01*
X107120116Y-145528000D01*
X107104877Y-145532475D01*
X107103672Y-145533865D01*
X107102001Y-145541548D01*
X107102001Y-146068669D01*
X107102371Y-146075490D01*
X107107895Y-146126352D01*
X107111521Y-146141604D01*
X107156676Y-146262054D01*
X107165214Y-146277648D01*
X107217953Y-146348018D01*
X107242801Y-146414524D01*
X107227748Y-146483907D01*
X107217953Y-146499148D01*
X107159385Y-146577295D01*
X107108255Y-146713684D01*
X107101500Y-146775866D01*
X107101500Y-148372134D01*
X107108255Y-148434316D01*
X107159385Y-148570705D01*
X107164770Y-148577890D01*
X107164771Y-148577892D01*
X107217640Y-148648435D01*
X107242488Y-148714942D01*
X107227435Y-148784324D01*
X107217640Y-148799565D01*
X107164771Y-148870108D01*
X107159385Y-148877295D01*
X107108255Y-149013684D01*
X107101500Y-149075866D01*
X107101500Y-150672134D01*
X107108255Y-150734316D01*
X107159385Y-150870705D01*
X107246739Y-150987261D01*
X107363295Y-151074615D01*
X107499684Y-151125745D01*
X107561866Y-151132500D01*
X107850500Y-151132500D01*
X107918621Y-151152502D01*
X107965114Y-151206158D01*
X107976500Y-151258500D01*
X107976500Y-152727233D01*
X107975973Y-152738416D01*
X107974298Y-152745909D01*
X107974547Y-152753835D01*
X107974547Y-152753836D01*
X107976438Y-152813986D01*
X107976500Y-152817945D01*
X107976500Y-152845856D01*
X107976997Y-152849790D01*
X107976997Y-152849791D01*
X107977005Y-152849856D01*
X107977938Y-152861693D01*
X107979327Y-152905889D01*
X107984978Y-152925339D01*
X107988987Y-152944700D01*
X107991526Y-152964797D01*
X107994445Y-152972168D01*
X107994445Y-152972170D01*
X108007804Y-153005912D01*
X108011649Y-153017142D01*
X108016635Y-153034305D01*
X108023982Y-153059593D01*
X108028015Y-153066412D01*
X108028017Y-153066417D01*
X108034293Y-153077028D01*
X108042988Y-153094776D01*
X108050448Y-153113617D01*
X108055110Y-153120033D01*
X108055110Y-153120034D01*
X108076436Y-153149387D01*
X108082952Y-153159307D01*
X108105458Y-153197362D01*
X108119782Y-153211686D01*
X108132617Y-153226713D01*
X108144528Y-153243107D01*
X108169247Y-153263556D01*
X108178591Y-153271286D01*
X108187371Y-153279276D01*
X108208350Y-153300255D01*
X108215887Y-153308537D01*
X108220000Y-153315018D01*
X108269653Y-153361645D01*
X108272495Y-153364400D01*
X108292230Y-153384135D01*
X108295427Y-153386615D01*
X108304447Y-153394318D01*
X108336679Y-153424586D01*
X108343625Y-153428405D01*
X108343628Y-153428407D01*
X108354434Y-153434348D01*
X108370953Y-153445199D01*
X108386959Y-153457614D01*
X108394228Y-153460759D01*
X108394232Y-153460762D01*
X108427537Y-153475174D01*
X108438187Y-153480391D01*
X108476940Y-153501695D01*
X108484615Y-153503666D01*
X108484616Y-153503666D01*
X108496562Y-153506733D01*
X108515267Y-153513137D01*
X108533855Y-153521181D01*
X108541678Y-153522420D01*
X108541688Y-153522423D01*
X108577524Y-153528099D01*
X108589144Y-153530505D01*
X108624289Y-153539528D01*
X108631970Y-153541500D01*
X108652224Y-153541500D01*
X108671934Y-153543051D01*
X108691943Y-153546220D01*
X108699835Y-153545474D01*
X108735961Y-153542059D01*
X108747819Y-153541500D01*
X110322797Y-153541500D01*
X110390918Y-153561502D01*
X110401790Y-153569804D01*
X110402747Y-153570866D01*
X110424329Y-153586546D01*
X110539716Y-153670380D01*
X110557248Y-153683118D01*
X110563276Y-153685802D01*
X110563278Y-153685803D01*
X110717027Y-153754256D01*
X110731712Y-153760794D01*
X110825113Y-153780647D01*
X110912056Y-153799128D01*
X110912061Y-153799128D01*
X110918513Y-153800500D01*
X111109487Y-153800500D01*
X111115939Y-153799128D01*
X111115944Y-153799128D01*
X111202887Y-153780647D01*
X111296288Y-153760794D01*
X111310973Y-153754256D01*
X111464722Y-153685803D01*
X111464724Y-153685802D01*
X111470752Y-153683118D01*
X111625253Y-153570866D01*
X111672824Y-153518033D01*
X111748621Y-153433852D01*
X111748622Y-153433851D01*
X111753040Y-153428944D01*
X111839451Y-153279276D01*
X111845223Y-153269279D01*
X111845224Y-153269278D01*
X111848527Y-153263556D01*
X111907542Y-153081928D01*
X111909890Y-153059593D01*
X111926814Y-152898565D01*
X111927504Y-152892000D01*
X111922654Y-152845856D01*
X111908232Y-152708635D01*
X111908232Y-152708633D01*
X111907542Y-152702072D01*
X111848527Y-152520444D01*
X111844325Y-152513165D01*
X111764621Y-152375115D01*
X111753040Y-152355056D01*
X111744575Y-152345654D01*
X111629675Y-152218045D01*
X111629674Y-152218044D01*
X111625253Y-152213134D01*
X111470752Y-152100882D01*
X111464724Y-152098198D01*
X111464722Y-152098197D01*
X111302319Y-152025891D01*
X111302318Y-152025891D01*
X111296288Y-152023206D01*
X111202887Y-152003353D01*
X111115944Y-151984872D01*
X111115939Y-151984872D01*
X111109487Y-151983500D01*
X110918513Y-151983500D01*
X110912061Y-151984872D01*
X110912056Y-151984872D01*
X110825113Y-152003353D01*
X110731712Y-152023206D01*
X110725682Y-152025891D01*
X110725681Y-152025891D01*
X110563278Y-152098197D01*
X110563276Y-152098198D01*
X110557248Y-152100882D01*
X110402747Y-152213134D01*
X110385029Y-152232812D01*
X110324586Y-152270050D01*
X110291395Y-152274500D01*
X109369500Y-152274500D01*
X109301379Y-152254498D01*
X109254886Y-152200842D01*
X109243500Y-152148500D01*
X109243500Y-151258500D01*
X109263502Y-151190379D01*
X109317158Y-151143886D01*
X109369500Y-151132500D01*
X109658134Y-151132500D01*
X109720316Y-151125745D01*
X109856705Y-151074615D01*
X109973261Y-150987261D01*
X110060615Y-150870705D01*
X110111745Y-150734316D01*
X110118500Y-150672134D01*
X110118500Y-149075866D01*
X110111745Y-149013684D01*
X110060615Y-148877295D01*
X110055229Y-148870108D01*
X110002360Y-148799565D01*
X109977512Y-148733058D01*
X109992565Y-148663676D01*
X110002360Y-148648435D01*
X110055229Y-148577892D01*
X110055230Y-148577890D01*
X110060615Y-148570705D01*
X110111745Y-148434316D01*
X110118500Y-148372134D01*
X110118500Y-148333500D01*
X110138502Y-148265379D01*
X110192158Y-148218886D01*
X110244500Y-148207500D01*
X113275500Y-148207500D01*
X113343621Y-148227502D01*
X113390114Y-148281158D01*
X113401500Y-148333500D01*
X113401500Y-149522134D01*
X113408255Y-149584316D01*
X113459385Y-149720705D01*
X113546739Y-149837261D01*
X113663295Y-149924615D01*
X113799684Y-149975745D01*
X113861866Y-149982500D01*
X115958134Y-149982500D01*
X116020316Y-149975745D01*
X116156705Y-149924615D01*
X116273261Y-149837261D01*
X116360615Y-149720705D01*
X116411745Y-149584316D01*
X116418500Y-149522134D01*
X116418500Y-147561500D01*
X116438502Y-147493379D01*
X116492158Y-147446886D01*
X116544500Y-147435500D01*
X120689500Y-147435500D01*
X120757621Y-147455502D01*
X120804114Y-147509158D01*
X120815500Y-147561500D01*
X120815500Y-147700134D01*
X120822255Y-147762316D01*
X120873385Y-147898705D01*
X120960739Y-148015261D01*
X121077295Y-148102615D01*
X121213684Y-148153745D01*
X121275866Y-148160500D01*
X123072134Y-148160500D01*
X123134316Y-148153745D01*
X123270705Y-148102615D01*
X123289935Y-148088203D01*
X123356442Y-148063355D01*
X123425824Y-148078408D01*
X123476054Y-148128582D01*
X123491500Y-148189029D01*
X123491500Y-152950633D01*
X123490000Y-152970018D01*
X123487690Y-152984851D01*
X123487690Y-152984855D01*
X123486309Y-152993724D01*
X123488136Y-153007693D01*
X123488304Y-153008976D01*
X123489047Y-153034302D01*
X123476984Y-153202973D01*
X123476962Y-153203279D01*
X123474404Y-153221064D01*
X123437599Y-153390255D01*
X123433001Y-153411392D01*
X123427937Y-153428641D01*
X123359864Y-153611150D01*
X123352396Y-153627502D01*
X123259048Y-153798458D01*
X123249328Y-153813582D01*
X123132598Y-153969514D01*
X123120825Y-153983100D01*
X122983100Y-154120825D01*
X122969514Y-154132598D01*
X122813582Y-154249328D01*
X122798458Y-154259048D01*
X122627502Y-154352396D01*
X122611150Y-154359864D01*
X122428641Y-154427937D01*
X122411393Y-154433001D01*
X122221064Y-154474404D01*
X122203285Y-154476961D01*
X122041395Y-154488540D01*
X122023435Y-154487793D01*
X122015155Y-154487692D01*
X122006276Y-154486309D01*
X121974714Y-154490436D01*
X121958379Y-154491500D01*
X121852229Y-154491500D01*
X121784108Y-154471498D01*
X121737615Y-154417842D01*
X121727511Y-154347568D01*
X121757005Y-154282988D01*
X121763134Y-154276405D01*
X121765705Y-154273834D01*
X121770143Y-154270143D01*
X121897594Y-154116899D01*
X121994984Y-153942996D01*
X122038915Y-153813582D01*
X122057195Y-153759730D01*
X122057195Y-153759728D01*
X122059053Y-153754256D01*
X122059882Y-153748540D01*
X122059883Y-153748535D01*
X122079802Y-153611150D01*
X122087653Y-153557001D01*
X122089146Y-153500000D01*
X122072647Y-153320444D01*
X122071437Y-153307273D01*
X122071436Y-153307270D01*
X122070908Y-153301519D01*
X122062382Y-153271286D01*
X122018373Y-153115244D01*
X122018372Y-153115242D01*
X122016805Y-153109685D01*
X122009459Y-153094787D01*
X121931205Y-152936104D01*
X121928650Y-152930923D01*
X121809393Y-152771219D01*
X121663030Y-152635922D01*
X121603063Y-152598086D01*
X121556125Y-152544820D01*
X121545435Y-152474632D01*
X121574389Y-152409808D01*
X121622081Y-152375115D01*
X121682385Y-152350137D01*
X121682393Y-152350133D01*
X121686963Y-152348240D01*
X121691183Y-152345654D01*
X121885202Y-152226759D01*
X121885208Y-152226755D01*
X121889416Y-152224176D01*
X122069969Y-152069969D01*
X122224176Y-151889416D01*
X122226755Y-151885208D01*
X122226759Y-151885202D01*
X122345654Y-151691183D01*
X122348240Y-151686963D01*
X122439105Y-151467594D01*
X122463399Y-151366401D01*
X122493380Y-151241524D01*
X122493381Y-151241518D01*
X122494535Y-151236711D01*
X122513165Y-151000000D01*
X122494535Y-150763289D01*
X122487580Y-150734316D01*
X122440260Y-150537218D01*
X122439105Y-150532406D01*
X122348240Y-150313037D01*
X122345654Y-150308817D01*
X122226759Y-150114798D01*
X122226755Y-150114792D01*
X122224176Y-150110584D01*
X122069969Y-149930031D01*
X122057322Y-149919229D01*
X122045382Y-149909032D01*
X121889416Y-149775824D01*
X121885208Y-149773245D01*
X121885202Y-149773241D01*
X121691183Y-149654346D01*
X121686963Y-149651760D01*
X121682393Y-149649867D01*
X121682389Y-149649865D01*
X121472167Y-149562789D01*
X121472165Y-149562788D01*
X121467594Y-149560895D01*
X121387391Y-149541640D01*
X121241524Y-149506620D01*
X121241518Y-149506619D01*
X121236711Y-149505465D01*
X121000000Y-149486835D01*
X120763289Y-149505465D01*
X120758482Y-149506619D01*
X120758476Y-149506620D01*
X120612609Y-149541640D01*
X120532406Y-149560895D01*
X120527835Y-149562788D01*
X120527833Y-149562789D01*
X120317611Y-149649865D01*
X120317607Y-149649867D01*
X120313037Y-149651760D01*
X120308817Y-149654346D01*
X120114798Y-149773241D01*
X120114792Y-149773245D01*
X120110584Y-149775824D01*
X119954618Y-149909032D01*
X119942679Y-149919229D01*
X119930031Y-149930031D01*
X119775824Y-150110584D01*
X119773245Y-150114792D01*
X119773241Y-150114798D01*
X119654346Y-150308817D01*
X119651760Y-150313037D01*
X119560895Y-150532406D01*
X119559740Y-150537218D01*
X119512421Y-150734316D01*
X119505465Y-150763289D01*
X119487308Y-150993995D01*
X119486835Y-151000000D01*
X119487223Y-151004930D01*
X119487223Y-151004933D01*
X119494913Y-151102642D01*
X119505465Y-151236711D01*
X119506619Y-151241518D01*
X119506620Y-151241524D01*
X119536601Y-151366401D01*
X119560895Y-151467594D01*
X119651760Y-151686963D01*
X119654346Y-151691183D01*
X119773241Y-151885202D01*
X119773245Y-151885208D01*
X119775824Y-151889416D01*
X119930031Y-152069969D01*
X120110584Y-152224176D01*
X120114792Y-152226755D01*
X120114798Y-152226759D01*
X120308817Y-152345654D01*
X120313037Y-152348240D01*
X120317607Y-152350133D01*
X120317611Y-152350135D01*
X120376574Y-152374558D01*
X120431855Y-152419107D01*
X120454276Y-152486470D01*
X120436718Y-152555261D01*
X120392781Y-152599250D01*
X120359816Y-152618862D01*
X120209961Y-152750281D01*
X120086565Y-152906809D01*
X120083876Y-152911920D01*
X120083874Y-152911923D01*
X120063508Y-152950633D01*
X119993760Y-153083202D01*
X119973209Y-153149387D01*
X119942539Y-153248161D01*
X119934654Y-153273554D01*
X119911227Y-153471489D01*
X119913096Y-153500000D01*
X119924263Y-153670380D01*
X119925684Y-153675976D01*
X119925685Y-153675981D01*
X119958799Y-153806366D01*
X119973326Y-153863564D01*
X119975743Y-153868807D01*
X120012265Y-153948029D01*
X120056772Y-154044573D01*
X120060105Y-154049289D01*
X120110662Y-154120825D01*
X120171807Y-154207344D01*
X120236273Y-154270143D01*
X120241511Y-154275246D01*
X120276349Y-154337107D01*
X120272212Y-154407983D01*
X120230413Y-154465371D01*
X120164224Y-154491050D01*
X120153590Y-154491500D01*
X102049367Y-154491500D01*
X102029982Y-154490000D01*
X102015149Y-154487690D01*
X102015145Y-154487690D01*
X102006276Y-154486309D01*
X101991019Y-154488304D01*
X101965698Y-154489047D01*
X101796715Y-154476961D01*
X101778936Y-154474404D01*
X101588607Y-154433001D01*
X101571359Y-154427937D01*
X101388850Y-154359864D01*
X101372498Y-154352396D01*
X101201542Y-154259048D01*
X101186418Y-154249328D01*
X101030486Y-154132598D01*
X101016900Y-154120825D01*
X100879175Y-153983100D01*
X100867402Y-153969514D01*
X100750672Y-153813582D01*
X100740952Y-153798458D01*
X100647604Y-153627502D01*
X100640136Y-153611150D01*
X100572063Y-153428641D01*
X100566999Y-153411392D01*
X100562401Y-153390255D01*
X100525596Y-153221064D01*
X100523038Y-153203278D01*
X100523017Y-153202973D01*
X100511719Y-153045011D01*
X100512805Y-153022245D01*
X100512334Y-153022203D01*
X100512770Y-153017345D01*
X100513576Y-153012552D01*
X100513729Y-153000000D01*
X100509773Y-152972376D01*
X100508500Y-152954514D01*
X100508500Y-151000000D01*
X101486835Y-151000000D01*
X101487223Y-151004930D01*
X101487223Y-151004933D01*
X101494913Y-151102642D01*
X101505465Y-151236711D01*
X101506619Y-151241518D01*
X101506620Y-151241524D01*
X101536601Y-151366401D01*
X101560895Y-151467594D01*
X101651760Y-151686963D01*
X101654346Y-151691183D01*
X101773241Y-151885202D01*
X101773245Y-151885208D01*
X101775824Y-151889416D01*
X101930031Y-152069969D01*
X102110584Y-152224176D01*
X102114792Y-152226755D01*
X102114798Y-152226759D01*
X102308817Y-152345654D01*
X102313037Y-152348240D01*
X102317607Y-152350133D01*
X102317611Y-152350135D01*
X102377919Y-152375115D01*
X102532406Y-152439105D01*
X102612609Y-152458360D01*
X102758476Y-152493380D01*
X102758482Y-152493381D01*
X102763289Y-152494535D01*
X103000000Y-152513165D01*
X103236711Y-152494535D01*
X103241518Y-152493381D01*
X103241524Y-152493380D01*
X103387391Y-152458360D01*
X103467594Y-152439105D01*
X103622081Y-152375115D01*
X103682389Y-152350135D01*
X103682393Y-152350133D01*
X103686963Y-152348240D01*
X103691183Y-152345654D01*
X103885202Y-152226759D01*
X103885208Y-152226755D01*
X103889416Y-152224176D01*
X104069969Y-152069969D01*
X104224176Y-151889416D01*
X104226755Y-151885208D01*
X104226759Y-151885202D01*
X104345654Y-151691183D01*
X104348240Y-151686963D01*
X104439105Y-151467594D01*
X104463399Y-151366401D01*
X104493380Y-151241524D01*
X104493381Y-151241518D01*
X104494535Y-151236711D01*
X104513165Y-151000000D01*
X104494535Y-150763289D01*
X104487580Y-150734316D01*
X104440260Y-150537218D01*
X104439105Y-150532406D01*
X104348240Y-150313037D01*
X104345654Y-150308817D01*
X104226759Y-150114798D01*
X104226755Y-150114792D01*
X104224176Y-150110584D01*
X104069969Y-149930031D01*
X104057322Y-149919229D01*
X104045382Y-149909032D01*
X103889416Y-149775824D01*
X103885208Y-149773245D01*
X103885202Y-149773241D01*
X103691183Y-149654346D01*
X103686963Y-149651760D01*
X103682393Y-149649867D01*
X103682389Y-149649865D01*
X103472167Y-149562789D01*
X103472165Y-149562788D01*
X103467594Y-149560895D01*
X103387391Y-149541640D01*
X103241524Y-149506620D01*
X103241518Y-149506619D01*
X103236711Y-149505465D01*
X103000000Y-149486835D01*
X102763289Y-149505465D01*
X102758482Y-149506619D01*
X102758476Y-149506620D01*
X102612609Y-149541640D01*
X102532406Y-149560895D01*
X102527835Y-149562788D01*
X102527833Y-149562789D01*
X102317611Y-149649865D01*
X102317607Y-149649867D01*
X102313037Y-149651760D01*
X102308817Y-149654346D01*
X102114798Y-149773241D01*
X102114792Y-149773245D01*
X102110584Y-149775824D01*
X101954618Y-149909032D01*
X101942679Y-149919229D01*
X101930031Y-149930031D01*
X101775824Y-150110584D01*
X101773245Y-150114792D01*
X101773241Y-150114798D01*
X101654346Y-150308817D01*
X101651760Y-150313037D01*
X101560895Y-150532406D01*
X101559740Y-150537218D01*
X101512421Y-150734316D01*
X101505465Y-150763289D01*
X101487308Y-150993995D01*
X101486835Y-151000000D01*
X100508500Y-151000000D01*
X100508500Y-149045430D01*
X100528502Y-148977309D01*
X100582158Y-148930816D01*
X100634500Y-148919430D01*
X101201094Y-148919430D01*
X101263276Y-148912675D01*
X101399665Y-148861545D01*
X101516221Y-148774191D01*
X101603575Y-148657635D01*
X101654705Y-148521246D01*
X101661460Y-148459064D01*
X102046540Y-148459064D01*
X102053295Y-148521246D01*
X102104425Y-148657635D01*
X102191779Y-148774191D01*
X102308335Y-148861545D01*
X102444724Y-148912675D01*
X102506906Y-148919430D01*
X103400734Y-148919430D01*
X103462916Y-148912675D01*
X103599305Y-148861545D01*
X103715861Y-148774191D01*
X103803215Y-148657635D01*
X103854345Y-148521246D01*
X103861100Y-148459064D01*
X103861100Y-147364576D01*
X103854345Y-147302394D01*
X103803215Y-147166005D01*
X103797830Y-147158820D01*
X103797829Y-147158818D01*
X103732174Y-147071215D01*
X103707326Y-147004708D01*
X103722379Y-146935326D01*
X103772553Y-146885096D01*
X103833000Y-146869650D01*
X104899334Y-146869650D01*
X104961516Y-146862895D01*
X105097905Y-146811765D01*
X105214461Y-146724411D01*
X105301815Y-146607855D01*
X105352945Y-146471466D01*
X105359700Y-146409284D01*
X105359700Y-145614516D01*
X105352945Y-145552334D01*
X105301815Y-145415945D01*
X105296429Y-145408758D01*
X105243210Y-145337748D01*
X105218362Y-145271241D01*
X105233415Y-145201859D01*
X105243210Y-145186618D01*
X105295986Y-145116199D01*
X105304524Y-145100604D01*
X105341532Y-145001885D01*
X107102000Y-145001885D01*
X107106475Y-145017124D01*
X107107865Y-145018329D01*
X107115548Y-145020000D01*
X108337885Y-145020000D01*
X108353124Y-145015525D01*
X108354329Y-145014135D01*
X108356000Y-145006452D01*
X108356000Y-145001885D01*
X108864000Y-145001885D01*
X108868475Y-145017124D01*
X108869865Y-145018329D01*
X108877548Y-145020000D01*
X110099884Y-145020000D01*
X110115123Y-145015525D01*
X110116328Y-145014135D01*
X110117999Y-145006452D01*
X110117999Y-144479331D01*
X110117629Y-144472510D01*
X110112105Y-144421648D01*
X110108479Y-144406396D01*
X110063324Y-144285946D01*
X110054786Y-144270351D01*
X109978285Y-144168276D01*
X109965724Y-144155715D01*
X109863649Y-144079214D01*
X109848054Y-144070676D01*
X109727606Y-144025522D01*
X109712351Y-144021895D01*
X109661486Y-144016369D01*
X109654672Y-144016000D01*
X108882115Y-144016000D01*
X108866876Y-144020475D01*
X108865671Y-144021865D01*
X108864000Y-144029548D01*
X108864000Y-145001885D01*
X108356000Y-145001885D01*
X108356000Y-144034116D01*
X108351525Y-144018877D01*
X108350135Y-144017672D01*
X108342452Y-144016001D01*
X107565331Y-144016001D01*
X107558510Y-144016371D01*
X107507648Y-144021895D01*
X107492396Y-144025521D01*
X107371946Y-144070676D01*
X107356351Y-144079214D01*
X107254276Y-144155715D01*
X107241715Y-144168276D01*
X107165214Y-144270351D01*
X107156676Y-144285946D01*
X107111522Y-144406394D01*
X107107895Y-144421649D01*
X107102369Y-144472514D01*
X107102000Y-144479328D01*
X107102000Y-145001885D01*
X105341532Y-145001885D01*
X105349678Y-144980156D01*
X105353305Y-144964901D01*
X105358831Y-144914036D01*
X105359200Y-144907222D01*
X105359200Y-144785415D01*
X105354725Y-144770176D01*
X105353335Y-144768971D01*
X105345652Y-144767300D01*
X102862716Y-144767300D01*
X102847477Y-144771775D01*
X102846272Y-144773165D01*
X102844601Y-144780848D01*
X102844601Y-144907219D01*
X102844971Y-144914040D01*
X102850495Y-144964902D01*
X102854121Y-144980154D01*
X102899276Y-145100604D01*
X102907814Y-145116199D01*
X102960590Y-145186618D01*
X102985438Y-145253125D01*
X102970385Y-145322507D01*
X102960590Y-145337748D01*
X102907371Y-145408758D01*
X102901985Y-145415945D01*
X102850855Y-145552334D01*
X102844100Y-145614516D01*
X102844100Y-146409284D01*
X102850855Y-146471466D01*
X102901985Y-146607855D01*
X102907370Y-146615040D01*
X102907371Y-146615042D01*
X102973026Y-146702645D01*
X102997874Y-146769152D01*
X102982821Y-146838534D01*
X102932647Y-146888764D01*
X102872200Y-146904210D01*
X102506906Y-146904210D01*
X102444724Y-146910965D01*
X102308335Y-146962095D01*
X102191779Y-147049449D01*
X102104425Y-147166005D01*
X102053295Y-147302394D01*
X102046540Y-147364576D01*
X102046540Y-148459064D01*
X101661460Y-148459064D01*
X101661460Y-147364576D01*
X101654705Y-147302394D01*
X101603575Y-147166005D01*
X101516221Y-147049449D01*
X101399665Y-146962095D01*
X101263276Y-146910965D01*
X101201094Y-146904210D01*
X100634500Y-146904210D01*
X100566379Y-146884208D01*
X100519886Y-146830552D01*
X100508500Y-146778210D01*
X100508500Y-144241185D01*
X102844600Y-144241185D01*
X102849075Y-144256424D01*
X102850465Y-144257629D01*
X102858148Y-144259300D01*
X103829785Y-144259300D01*
X103845024Y-144254825D01*
X103846229Y-144253435D01*
X103847900Y-144245752D01*
X103847900Y-144241185D01*
X104355900Y-144241185D01*
X104360375Y-144256424D01*
X104361765Y-144257629D01*
X104369448Y-144259300D01*
X105341084Y-144259300D01*
X105356323Y-144254825D01*
X105357528Y-144253435D01*
X105359199Y-144245752D01*
X105359199Y-144119381D01*
X105358829Y-144112560D01*
X105353305Y-144061698D01*
X105349679Y-144046446D01*
X105304524Y-143925996D01*
X105295986Y-143910401D01*
X105219485Y-143808326D01*
X105206924Y-143795765D01*
X105104849Y-143719264D01*
X105089254Y-143710726D01*
X104968806Y-143665572D01*
X104953551Y-143661945D01*
X104902686Y-143656419D01*
X104895872Y-143656050D01*
X104374015Y-143656050D01*
X104358776Y-143660525D01*
X104357571Y-143661915D01*
X104355900Y-143669598D01*
X104355900Y-144241185D01*
X103847900Y-144241185D01*
X103847900Y-143674166D01*
X103843425Y-143658927D01*
X103842035Y-143657722D01*
X103834352Y-143656051D01*
X103307931Y-143656051D01*
X103301110Y-143656421D01*
X103250248Y-143661945D01*
X103234996Y-143665571D01*
X103114546Y-143710726D01*
X103098951Y-143719264D01*
X102996876Y-143795765D01*
X102984315Y-143808326D01*
X102907814Y-143910401D01*
X102899276Y-143925996D01*
X102854122Y-144046444D01*
X102850495Y-144061699D01*
X102844969Y-144112564D01*
X102844600Y-144119378D01*
X102844600Y-144241185D01*
X100508500Y-144241185D01*
X100508500Y-140749790D01*
X100528502Y-140681669D01*
X100582158Y-140635176D01*
X100634500Y-140623790D01*
X101201094Y-140623790D01*
X101263276Y-140617035D01*
X101399665Y-140565905D01*
X101516221Y-140478551D01*
X101603575Y-140361995D01*
X101654705Y-140225606D01*
X101661460Y-140163424D01*
X102046540Y-140163424D01*
X102053295Y-140225606D01*
X102104425Y-140361995D01*
X102191779Y-140478551D01*
X102308335Y-140565905D01*
X102444724Y-140617035D01*
X102506906Y-140623790D01*
X102872200Y-140623790D01*
X102940321Y-140643792D01*
X102986814Y-140697448D01*
X102996918Y-140767722D01*
X102973026Y-140825355D01*
X102917775Y-140899077D01*
X102901985Y-140920145D01*
X102850855Y-141056534D01*
X102844100Y-141118716D01*
X102844100Y-141913484D01*
X102850855Y-141975666D01*
X102901985Y-142112055D01*
X102989339Y-142228611D01*
X103105895Y-142315965D01*
X103242284Y-142367095D01*
X103304466Y-142373850D01*
X104899334Y-142373850D01*
X104961516Y-142367095D01*
X105097905Y-142315965D01*
X105214461Y-142228611D01*
X105301815Y-142112055D01*
X105352945Y-141975666D01*
X105359700Y-141913484D01*
X105359700Y-141118716D01*
X105352945Y-141056534D01*
X105350171Y-141049135D01*
X105350170Y-141049129D01*
X105340638Y-141023702D01*
X105335455Y-140952895D01*
X105369525Y-140890379D01*
X106397499Y-139862405D01*
X106459811Y-139828379D01*
X106486594Y-139825500D01*
X106532803Y-139825500D01*
X106600924Y-139845502D01*
X106647417Y-139899158D01*
X106652326Y-139911623D01*
X106665095Y-139949894D01*
X106670450Y-139965946D01*
X106763522Y-140116348D01*
X106888697Y-140241305D01*
X106894927Y-140245145D01*
X106894928Y-140245146D01*
X107032090Y-140329694D01*
X107039262Y-140334115D01*
X107060632Y-140341203D01*
X107200611Y-140387632D01*
X107200613Y-140387632D01*
X107207139Y-140389797D01*
X107213975Y-140390497D01*
X107213978Y-140390498D01*
X107257031Y-140394909D01*
X107311600Y-140400500D01*
X108112400Y-140400500D01*
X108115646Y-140400163D01*
X108115650Y-140400163D01*
X108211308Y-140390238D01*
X108211312Y-140390237D01*
X108218166Y-140389526D01*
X108224702Y-140387345D01*
X108224704Y-140387345D01*
X108363007Y-140341203D01*
X108385946Y-140333550D01*
X108536348Y-140240478D01*
X108622784Y-140153891D01*
X108685066Y-140119812D01*
X108755886Y-140124815D01*
X108800976Y-140153736D01*
X108888697Y-140241305D01*
X108894927Y-140245145D01*
X108894928Y-140245146D01*
X109032090Y-140329694D01*
X109039262Y-140334115D01*
X109060632Y-140341203D01*
X109200611Y-140387632D01*
X109200613Y-140387632D01*
X109207139Y-140389797D01*
X109213975Y-140390497D01*
X109213978Y-140390498D01*
X109257031Y-140394909D01*
X109311600Y-140400500D01*
X110112400Y-140400500D01*
X110115646Y-140400163D01*
X110115650Y-140400163D01*
X110211308Y-140390238D01*
X110211312Y-140390237D01*
X110218166Y-140389526D01*
X110224702Y-140387345D01*
X110224704Y-140387345D01*
X110363007Y-140341203D01*
X110385946Y-140333550D01*
X110536348Y-140240478D01*
X110661305Y-140115303D01*
X110736360Y-139993542D01*
X110750275Y-139970968D01*
X110750276Y-139970966D01*
X110754115Y-139964738D01*
X110771663Y-139911832D01*
X110812094Y-139853473D01*
X110877658Y-139826236D01*
X110891256Y-139825500D01*
X118285233Y-139825500D01*
X118296416Y-139826027D01*
X118303909Y-139827702D01*
X118311835Y-139827453D01*
X118311836Y-139827453D01*
X118371986Y-139825562D01*
X118375945Y-139825500D01*
X118403856Y-139825500D01*
X118407791Y-139825003D01*
X118407856Y-139824995D01*
X118419693Y-139824062D01*
X118451951Y-139823048D01*
X118455970Y-139822922D01*
X118463889Y-139822673D01*
X118483343Y-139817021D01*
X118502700Y-139813013D01*
X118514930Y-139811468D01*
X118514931Y-139811468D01*
X118522797Y-139810474D01*
X118530168Y-139807555D01*
X118530170Y-139807555D01*
X118563912Y-139794196D01*
X118575142Y-139790351D01*
X118609983Y-139780229D01*
X118609984Y-139780229D01*
X118617593Y-139778018D01*
X118624412Y-139773985D01*
X118624417Y-139773983D01*
X118635028Y-139767707D01*
X118652776Y-139759012D01*
X118671617Y-139751552D01*
X118707387Y-139725564D01*
X118717307Y-139719048D01*
X118748535Y-139700580D01*
X118748538Y-139700578D01*
X118755362Y-139696542D01*
X118769683Y-139682221D01*
X118784717Y-139669380D01*
X118794694Y-139662131D01*
X118801107Y-139657472D01*
X118829298Y-139623395D01*
X118837288Y-139614616D01*
X119535721Y-138916183D01*
X120838389Y-138916183D01*
X120839912Y-138924607D01*
X120852292Y-138928000D01*
X121901885Y-138928000D01*
X121917124Y-138923525D01*
X121918329Y-138922135D01*
X121920000Y-138914452D01*
X121920000Y-137865102D01*
X121916082Y-137851758D01*
X121901806Y-137849771D01*
X121863324Y-137855660D01*
X121853288Y-137858051D01*
X121650868Y-137924212D01*
X121641359Y-137928209D01*
X121452463Y-138026542D01*
X121443738Y-138032036D01*
X121273433Y-138159905D01*
X121265726Y-138166748D01*
X121118590Y-138320717D01*
X121112104Y-138328727D01*
X120992098Y-138504649D01*
X120987000Y-138513623D01*
X120897338Y-138706783D01*
X120893775Y-138716470D01*
X120838389Y-138916183D01*
X119535721Y-138916183D01*
X122124499Y-136327405D01*
X122186811Y-136293379D01*
X122213594Y-136290500D01*
X122269487Y-136290500D01*
X122275939Y-136289128D01*
X122275944Y-136289128D01*
X122362888Y-136270647D01*
X122456288Y-136250794D01*
X122552244Y-136208072D01*
X122624722Y-136175803D01*
X122624724Y-136175802D01*
X122630752Y-136173118D01*
X122785253Y-136060866D01*
X122913040Y-135918944D01*
X123008527Y-135753556D01*
X123067542Y-135571928D01*
X123072177Y-135527834D01*
X123086814Y-135388565D01*
X123087504Y-135382000D01*
X123067542Y-135192072D01*
X123008527Y-135010444D01*
X122913040Y-134845056D01*
X122785253Y-134703134D01*
X122630752Y-134590882D01*
X122624724Y-134588198D01*
X122624722Y-134588197D01*
X122462319Y-134515891D01*
X122462318Y-134515891D01*
X122456288Y-134513206D01*
X122362888Y-134493353D01*
X122275944Y-134474872D01*
X122275939Y-134474872D01*
X122269487Y-134473500D01*
X122078513Y-134473500D01*
X122072061Y-134474872D01*
X122072056Y-134474872D01*
X121985112Y-134493353D01*
X121891712Y-134513206D01*
X121885682Y-134515891D01*
X121885681Y-134515891D01*
X121723278Y-134588197D01*
X121723276Y-134588198D01*
X121717248Y-134590882D01*
X121562747Y-134703134D01*
X121434960Y-134845056D01*
X121339473Y-135010444D01*
X121280458Y-135192072D01*
X121279768Y-135198633D01*
X121279768Y-135198635D01*
X121263093Y-135357293D01*
X121236080Y-135422950D01*
X121226878Y-135433218D01*
X118138500Y-138521595D01*
X118076188Y-138555621D01*
X118049405Y-138558500D01*
X110891197Y-138558500D01*
X110823076Y-138538498D01*
X110776583Y-138484842D01*
X110771674Y-138472377D01*
X110755867Y-138424998D01*
X110755866Y-138424996D01*
X110753550Y-138418054D01*
X110660478Y-138267652D01*
X110535303Y-138142695D01*
X110529072Y-138138854D01*
X110390968Y-138053725D01*
X110390966Y-138053724D01*
X110384738Y-138049885D01*
X110224254Y-137996655D01*
X110223389Y-137996368D01*
X110223387Y-137996368D01*
X110216861Y-137994203D01*
X110210025Y-137993503D01*
X110210022Y-137993502D01*
X110166969Y-137989091D01*
X110112400Y-137983500D01*
X109311600Y-137983500D01*
X109308354Y-137983837D01*
X109308350Y-137983837D01*
X109212692Y-137993762D01*
X109212688Y-137993763D01*
X109205834Y-137994474D01*
X109199298Y-137996655D01*
X109199296Y-137996655D01*
X109109715Y-138026542D01*
X109038054Y-138050450D01*
X108887652Y-138143522D01*
X108882479Y-138148704D01*
X108801216Y-138230109D01*
X108738934Y-138264188D01*
X108668114Y-138259185D01*
X108623025Y-138230264D01*
X108540483Y-138147866D01*
X108535303Y-138142695D01*
X108529072Y-138138854D01*
X108390968Y-138053725D01*
X108390966Y-138053724D01*
X108384738Y-138049885D01*
X108224254Y-137996655D01*
X108223389Y-137996368D01*
X108223387Y-137996368D01*
X108216861Y-137994203D01*
X108210025Y-137993503D01*
X108210022Y-137993502D01*
X108166969Y-137989091D01*
X108112400Y-137983500D01*
X107311600Y-137983500D01*
X107308354Y-137983837D01*
X107308350Y-137983837D01*
X107212692Y-137993762D01*
X107212688Y-137993763D01*
X107205834Y-137994474D01*
X107199298Y-137996655D01*
X107199296Y-137996655D01*
X107109715Y-138026542D01*
X107038054Y-138050450D01*
X106887652Y-138143522D01*
X106762695Y-138268697D01*
X106758855Y-138274927D01*
X106758854Y-138274928D01*
X106706613Y-138359679D01*
X106669885Y-138419262D01*
X106652337Y-138472168D01*
X106611906Y-138530527D01*
X106546342Y-138557764D01*
X106532744Y-138558500D01*
X106250763Y-138558500D01*
X106239579Y-138557973D01*
X106232091Y-138556299D01*
X106224168Y-138556548D01*
X106164033Y-138558438D01*
X106160075Y-138558500D01*
X106132144Y-138558500D01*
X106128229Y-138558995D01*
X106128225Y-138558995D01*
X106128167Y-138559003D01*
X106128138Y-138559006D01*
X106116296Y-138559939D01*
X106072110Y-138561327D01*
X106054744Y-138566372D01*
X106052658Y-138566978D01*
X106033306Y-138570986D01*
X106021068Y-138572532D01*
X106021066Y-138572533D01*
X106013203Y-138573526D01*
X105972086Y-138589806D01*
X105960885Y-138593641D01*
X105918406Y-138605982D01*
X105911587Y-138610015D01*
X105911582Y-138610017D01*
X105900971Y-138616293D01*
X105883221Y-138624990D01*
X105864383Y-138632448D01*
X105857967Y-138637109D01*
X105857966Y-138637110D01*
X105828625Y-138658428D01*
X105818701Y-138664947D01*
X105787460Y-138683422D01*
X105787455Y-138683426D01*
X105780637Y-138687458D01*
X105766313Y-138701782D01*
X105751281Y-138714621D01*
X105734893Y-138726528D01*
X105716776Y-138748428D01*
X105706712Y-138760593D01*
X105698722Y-138769373D01*
X104032791Y-140435304D01*
X103970479Y-140469330D01*
X103899664Y-140464265D01*
X103842828Y-140421718D01*
X103818017Y-140355198D01*
X103825714Y-140301979D01*
X103847325Y-140244332D01*
X103854345Y-140225606D01*
X103861100Y-140163424D01*
X103861100Y-139068936D01*
X103854345Y-139006754D01*
X103803215Y-138870365D01*
X103715861Y-138753809D01*
X103599305Y-138666455D01*
X103462916Y-138615325D01*
X103400734Y-138608570D01*
X102506906Y-138608570D01*
X102444724Y-138615325D01*
X102308335Y-138666455D01*
X102191779Y-138753809D01*
X102104425Y-138870365D01*
X102053295Y-139006754D01*
X102046540Y-139068936D01*
X102046540Y-140163424D01*
X101661460Y-140163424D01*
X101661460Y-139068936D01*
X101654705Y-139006754D01*
X101603575Y-138870365D01*
X101516221Y-138753809D01*
X101399665Y-138666455D01*
X101263276Y-138615325D01*
X101201094Y-138608570D01*
X100634500Y-138608570D01*
X100566379Y-138588568D01*
X100519886Y-138534912D01*
X100508500Y-138482570D01*
X100508500Y-133417502D01*
X104347500Y-133417502D01*
X104350438Y-133454831D01*
X104369049Y-133518892D01*
X104394643Y-133606986D01*
X104396855Y-133614601D01*
X104413893Y-133643411D01*
X104477509Y-133750980D01*
X104477511Y-133750983D01*
X104481547Y-133757807D01*
X104599193Y-133875453D01*
X104606017Y-133879489D01*
X104606020Y-133879491D01*
X104670745Y-133917769D01*
X104742399Y-133960145D01*
X104750010Y-133962356D01*
X104750012Y-133962357D01*
X104802231Y-133977528D01*
X104902169Y-134006562D01*
X104908574Y-134007066D01*
X104908579Y-134007067D01*
X104937042Y-134009307D01*
X104937050Y-134009307D01*
X104939498Y-134009500D01*
X105372502Y-134009500D01*
X105374950Y-134009307D01*
X105374958Y-134009307D01*
X105403415Y-134007067D01*
X105409831Y-134006562D01*
X105409905Y-134007503D01*
X105474881Y-134014343D01*
X105530260Y-134058769D01*
X105546752Y-134091920D01*
X105591473Y-134229556D01*
X105686960Y-134394944D01*
X105814747Y-134536866D01*
X105969248Y-134649118D01*
X105975276Y-134651802D01*
X105975278Y-134651803D01*
X106137681Y-134724109D01*
X106143712Y-134726794D01*
X106237113Y-134746647D01*
X106324056Y-134765128D01*
X106324061Y-134765128D01*
X106330513Y-134766500D01*
X106521487Y-134766500D01*
X106527939Y-134765128D01*
X106527944Y-134765128D01*
X106614887Y-134746647D01*
X106708288Y-134726794D01*
X106714319Y-134724109D01*
X106876722Y-134651803D01*
X106876724Y-134651802D01*
X106882752Y-134649118D01*
X107037253Y-134536866D01*
X107165040Y-134394944D01*
X107260527Y-134229556D01*
X107319542Y-134047928D01*
X107320781Y-134036145D01*
X107338814Y-133864565D01*
X107339504Y-133858000D01*
X107334121Y-133806782D01*
X107320232Y-133674635D01*
X107320232Y-133674633D01*
X107319542Y-133668072D01*
X107260527Y-133486444D01*
X107245842Y-133461008D01*
X107168341Y-133326774D01*
X107165040Y-133321056D01*
X107037253Y-133179134D01*
X106882752Y-133066882D01*
X106876724Y-133064198D01*
X106876722Y-133064197D01*
X106714319Y-132991891D01*
X106714318Y-132991891D01*
X106708288Y-132989206D01*
X106614888Y-132969353D01*
X106527944Y-132950872D01*
X106527939Y-132950872D01*
X106521487Y-132949500D01*
X106465595Y-132949500D01*
X106397474Y-132929498D01*
X106376499Y-132912595D01*
X106001404Y-132537499D01*
X105967379Y-132475187D01*
X105964500Y-132448404D01*
X105964500Y-132260500D01*
X105984502Y-132192379D01*
X106038158Y-132145886D01*
X106090500Y-132134500D01*
X106322502Y-132134500D01*
X106324950Y-132134307D01*
X106324958Y-132134307D01*
X106353421Y-132132067D01*
X106353426Y-132132066D01*
X106359831Y-132131562D01*
X106459769Y-132102528D01*
X106511988Y-132087357D01*
X106511990Y-132087356D01*
X106519601Y-132085145D01*
X106558394Y-132062203D01*
X106655980Y-132004491D01*
X106655983Y-132004489D01*
X106662807Y-132000453D01*
X106780453Y-131882807D01*
X106784489Y-131875983D01*
X106784491Y-131875980D01*
X106861108Y-131746427D01*
X106865145Y-131739601D01*
X106867415Y-131731790D01*
X106909767Y-131586008D01*
X106911562Y-131579831D01*
X106912074Y-131573336D01*
X106914307Y-131544958D01*
X106914307Y-131544950D01*
X106914500Y-131542502D01*
X106914500Y-131539984D01*
X107208001Y-131539984D01*
X107208195Y-131544920D01*
X107210430Y-131573336D01*
X107212730Y-131585931D01*
X107255107Y-131731790D01*
X107261352Y-131746221D01*
X107337911Y-131875678D01*
X107347551Y-131888104D01*
X107453896Y-131994449D01*
X107466322Y-132004089D01*
X107595779Y-132080648D01*
X107610210Y-132086893D01*
X107744605Y-132125939D01*
X107758706Y-132125899D01*
X107762000Y-132118630D01*
X107762000Y-131160615D01*
X107757525Y-131145376D01*
X107756135Y-131144171D01*
X107748452Y-131142500D01*
X107226116Y-131142500D01*
X107210877Y-131146975D01*
X107209672Y-131148365D01*
X107208001Y-131156048D01*
X107208001Y-131539984D01*
X106914500Y-131539984D01*
X106914500Y-130616385D01*
X107208000Y-130616385D01*
X107212475Y-130631624D01*
X107213865Y-130632829D01*
X107221548Y-130634500D01*
X107743885Y-130634500D01*
X107759124Y-130630025D01*
X107760329Y-130628635D01*
X107762000Y-130620952D01*
X107762000Y-129664122D01*
X107758027Y-129650591D01*
X107750129Y-129649456D01*
X107610210Y-129690107D01*
X107595779Y-129696352D01*
X107466322Y-129772911D01*
X107453896Y-129782551D01*
X107347551Y-129888896D01*
X107337911Y-129901322D01*
X107261352Y-130030779D01*
X107255107Y-130045210D01*
X107212731Y-130191065D01*
X107210430Y-130203667D01*
X107208193Y-130232084D01*
X107208000Y-130237014D01*
X107208000Y-130616385D01*
X106914500Y-130616385D01*
X106914500Y-130234498D01*
X106914307Y-130232042D01*
X106912067Y-130203579D01*
X106912066Y-130203574D01*
X106911562Y-130197169D01*
X106870862Y-130057077D01*
X106867357Y-130045012D01*
X106867356Y-130045010D01*
X106865145Y-130037399D01*
X106780453Y-129894193D01*
X106783478Y-129892404D01*
X106763302Y-129841215D01*
X106777112Y-129771575D01*
X106822491Y-129722766D01*
X106836120Y-129714332D01*
X106842348Y-129710478D01*
X106967305Y-129585303D01*
X106973975Y-129574483D01*
X107056275Y-129440968D01*
X107056276Y-129440966D01*
X107060115Y-129434738D01*
X107115797Y-129266861D01*
X107116768Y-129257389D01*
X107126172Y-129165598D01*
X107126500Y-129162400D01*
X107126500Y-128361600D01*
X107115526Y-128255834D01*
X107110624Y-128241139D01*
X107061868Y-128095002D01*
X107059550Y-128088054D01*
X106966478Y-127937652D01*
X106879891Y-127851216D01*
X106845812Y-127788934D01*
X106850815Y-127718114D01*
X106879736Y-127673025D01*
X106962134Y-127590483D01*
X106967305Y-127585303D01*
X106973975Y-127574483D01*
X107056275Y-127440968D01*
X107056276Y-127440966D01*
X107060115Y-127434738D01*
X107115797Y-127266861D01*
X107116768Y-127257389D01*
X107126172Y-127165598D01*
X107126500Y-127162400D01*
X107126500Y-126361600D01*
X107115526Y-126255834D01*
X107110624Y-126241139D01*
X107061868Y-126095002D01*
X107059550Y-126088054D01*
X106966478Y-125937652D01*
X106841303Y-125812695D01*
X106835072Y-125808854D01*
X106696968Y-125723725D01*
X106696966Y-125723724D01*
X106690738Y-125719885D01*
X106637832Y-125702337D01*
X106579473Y-125661906D01*
X106552236Y-125596342D01*
X106551500Y-125582744D01*
X106551500Y-124520594D01*
X106571502Y-124452473D01*
X106588405Y-124431499D01*
X107413499Y-123606405D01*
X107475811Y-123572379D01*
X107502594Y-123569500D01*
X108003800Y-123569500D01*
X108071921Y-123589502D01*
X108091147Y-123605843D01*
X108091420Y-123605540D01*
X108096332Y-123609963D01*
X108100747Y-123614866D01*
X108115933Y-123625899D01*
X108243878Y-123718857D01*
X108255248Y-123727118D01*
X108261276Y-123729802D01*
X108261278Y-123729803D01*
X108423681Y-123802109D01*
X108429712Y-123804794D01*
X108523113Y-123824647D01*
X108610056Y-123843128D01*
X108610061Y-123843128D01*
X108616513Y-123844500D01*
X108807487Y-123844500D01*
X108813939Y-123843128D01*
X108813944Y-123843128D01*
X108917389Y-123821140D01*
X108990312Y-123805639D01*
X109061102Y-123811041D01*
X109117734Y-123853858D01*
X109142228Y-123920495D01*
X109134350Y-123970858D01*
X109134305Y-123970940D01*
X109132333Y-123978622D01*
X109129267Y-123990562D01*
X109122863Y-124009266D01*
X109114819Y-124027855D01*
X109113580Y-124035678D01*
X109113577Y-124035688D01*
X109107901Y-124071524D01*
X109105495Y-124083144D01*
X109094500Y-124125970D01*
X109094500Y-124146224D01*
X109092949Y-124165934D01*
X109089780Y-124185943D01*
X109090526Y-124193835D01*
X109093941Y-124229961D01*
X109094500Y-124241819D01*
X109094500Y-125566803D01*
X109074498Y-125634924D01*
X109020842Y-125681417D01*
X109008377Y-125686326D01*
X108960998Y-125702133D01*
X108960996Y-125702134D01*
X108954054Y-125704450D01*
X108947830Y-125708301D01*
X108947829Y-125708302D01*
X108921967Y-125724306D01*
X108803652Y-125797522D01*
X108678695Y-125922697D01*
X108674855Y-125928927D01*
X108674854Y-125928928D01*
X108654815Y-125961438D01*
X108585885Y-126073262D01*
X108569945Y-126121321D01*
X108547713Y-126188349D01*
X108530203Y-126241139D01*
X108529503Y-126247975D01*
X108529502Y-126247978D01*
X108527995Y-126262692D01*
X108519500Y-126345600D01*
X108519500Y-127146400D01*
X108530474Y-127252166D01*
X108532655Y-127258702D01*
X108532655Y-127258704D01*
X108537993Y-127274704D01*
X108586450Y-127419946D01*
X108679522Y-127570348D01*
X108684704Y-127575521D01*
X108766109Y-127656784D01*
X108800188Y-127719066D01*
X108795185Y-127789886D01*
X108766264Y-127834975D01*
X108690940Y-127910431D01*
X108678695Y-127922697D01*
X108674855Y-127928927D01*
X108674854Y-127928928D01*
X108664992Y-127944928D01*
X108585885Y-128073262D01*
X108530203Y-128241139D01*
X108529503Y-128247975D01*
X108529502Y-128247978D01*
X108527995Y-128262692D01*
X108519500Y-128345600D01*
X108519500Y-129146400D01*
X108530474Y-129252166D01*
X108532655Y-129258702D01*
X108532655Y-129258704D01*
X108537993Y-129274704D01*
X108586450Y-129419946D01*
X108590304Y-129426174D01*
X108590305Y-129426176D01*
X108673508Y-129560629D01*
X108692346Y-129629081D01*
X108671185Y-129696850D01*
X108616744Y-129742422D01*
X108546308Y-129751326D01*
X108502225Y-129735386D01*
X108436221Y-129696352D01*
X108421790Y-129690107D01*
X108287395Y-129651061D01*
X108273294Y-129651101D01*
X108270000Y-129658370D01*
X108270000Y-130616385D01*
X108274475Y-130631624D01*
X108275865Y-130632829D01*
X108283548Y-130634500D01*
X108805884Y-130634500D01*
X108821123Y-130630025D01*
X108822328Y-130628635D01*
X108823999Y-130620952D01*
X108823999Y-130237017D01*
X108823805Y-130232080D01*
X108821570Y-130203664D01*
X108819270Y-130191069D01*
X108776893Y-130045210D01*
X108770648Y-130030779D01*
X108698563Y-129908889D01*
X108681104Y-129840073D01*
X108703621Y-129772741D01*
X108758965Y-129728272D01*
X108829566Y-129720784D01*
X108873133Y-129737490D01*
X108949032Y-129784275D01*
X108955262Y-129788115D01*
X109003501Y-129804115D01*
X109008168Y-129805663D01*
X109066527Y-129846094D01*
X109093764Y-129911658D01*
X109094500Y-129925256D01*
X109094500Y-130621733D01*
X109093973Y-130632916D01*
X109092298Y-130640409D01*
X109092547Y-130648335D01*
X109092547Y-130648336D01*
X109094438Y-130708486D01*
X109094500Y-130712445D01*
X109094500Y-130740356D01*
X109094997Y-130744290D01*
X109094997Y-130744291D01*
X109095005Y-130744356D01*
X109095938Y-130756193D01*
X109097327Y-130800389D01*
X109099538Y-130807999D01*
X109102497Y-130818185D01*
X109107500Y-130853337D01*
X109107500Y-131391500D01*
X109087498Y-131459621D01*
X109033842Y-131506114D01*
X108981500Y-131517500D01*
X108950000Y-131517500D01*
X108881879Y-131497498D01*
X108835386Y-131443842D01*
X108824000Y-131391500D01*
X108824000Y-131160615D01*
X108819525Y-131145376D01*
X108818135Y-131144171D01*
X108810452Y-131142500D01*
X108288115Y-131142500D01*
X108272876Y-131146975D01*
X108271671Y-131148365D01*
X108270000Y-131156048D01*
X108270000Y-131771158D01*
X108252453Y-131835297D01*
X108206855Y-131912399D01*
X108160438Y-132072169D01*
X108159934Y-132078574D01*
X108159933Y-132078579D01*
X108157693Y-132107042D01*
X108157500Y-132109498D01*
X108157500Y-133417502D01*
X108160438Y-133454831D01*
X108179049Y-133518892D01*
X108204643Y-133606986D01*
X108206855Y-133614601D01*
X108223893Y-133643411D01*
X108287509Y-133750980D01*
X108287511Y-133750983D01*
X108291547Y-133757807D01*
X108409193Y-133875453D01*
X108416017Y-133879489D01*
X108416020Y-133879491D01*
X108480745Y-133917769D01*
X108552399Y-133960145D01*
X108560010Y-133962356D01*
X108560012Y-133962357D01*
X108612231Y-133977528D01*
X108712169Y-134006562D01*
X108718574Y-134007066D01*
X108718579Y-134007067D01*
X108738098Y-134008603D01*
X108739944Y-134008748D01*
X108806285Y-134034034D01*
X108849890Y-134095423D01*
X108893473Y-134229556D01*
X108988960Y-134394944D01*
X109116747Y-134536866D01*
X109271248Y-134649118D01*
X109277276Y-134651802D01*
X109277278Y-134651803D01*
X109439681Y-134724109D01*
X109445712Y-134726794D01*
X109539113Y-134746647D01*
X109626056Y-134765128D01*
X109626061Y-134765128D01*
X109632513Y-134766500D01*
X109823487Y-134766500D01*
X109829939Y-134765128D01*
X109829944Y-134765128D01*
X109916887Y-134746647D01*
X110010288Y-134726794D01*
X110016319Y-134724109D01*
X110178722Y-134651803D01*
X110178724Y-134651802D01*
X110184752Y-134649118D01*
X110339253Y-134536866D01*
X110467040Y-134394944D01*
X110562527Y-134229556D01*
X110621542Y-134047928D01*
X110621682Y-134046599D01*
X110654482Y-133985844D01*
X110716632Y-133951523D01*
X110787471Y-133956252D01*
X110844508Y-133998528D01*
X110866276Y-134046192D01*
X110866458Y-134047928D01*
X110925473Y-134229556D01*
X111020960Y-134394944D01*
X111148747Y-134536866D01*
X111303248Y-134649118D01*
X111309276Y-134651802D01*
X111309278Y-134651803D01*
X111471681Y-134724109D01*
X111477712Y-134726794D01*
X111571113Y-134746647D01*
X111658056Y-134765128D01*
X111658061Y-134765128D01*
X111664513Y-134766500D01*
X111855487Y-134766500D01*
X111861939Y-134765128D01*
X111861944Y-134765128D01*
X111948887Y-134746647D01*
X112042288Y-134726794D01*
X112048319Y-134724109D01*
X112210722Y-134651803D01*
X112210724Y-134651802D01*
X112216752Y-134649118D01*
X112371253Y-134536866D01*
X112499040Y-134394944D01*
X112594527Y-134229556D01*
X112637739Y-134096564D01*
X112677813Y-134037958D01*
X112743209Y-134010321D01*
X112757572Y-134009500D01*
X112992502Y-134009500D01*
X112994950Y-134009307D01*
X112994958Y-134009307D01*
X113023421Y-134007067D01*
X113023426Y-134007066D01*
X113029831Y-134006562D01*
X113129769Y-133977528D01*
X113181988Y-133962357D01*
X113181990Y-133962356D01*
X113189601Y-133960145D01*
X113216148Y-133944445D01*
X113284964Y-133926986D01*
X113352295Y-133949503D01*
X113396764Y-134004848D01*
X113404374Y-134034904D01*
X113404394Y-134034900D01*
X113404502Y-134035410D01*
X113405595Y-134039725D01*
X113405767Y-134041357D01*
X113406458Y-134047928D01*
X113465473Y-134229556D01*
X113560960Y-134394944D01*
X113688747Y-134536866D01*
X113843248Y-134649118D01*
X113849276Y-134651802D01*
X113849278Y-134651803D01*
X114011681Y-134724109D01*
X114017712Y-134726794D01*
X114111113Y-134746647D01*
X114198056Y-134765128D01*
X114198061Y-134765128D01*
X114204513Y-134766500D01*
X114395487Y-134766500D01*
X114401939Y-134765128D01*
X114401944Y-134765128D01*
X114488887Y-134746647D01*
X114582288Y-134726794D01*
X114588319Y-134724109D01*
X114750722Y-134651803D01*
X114750724Y-134651802D01*
X114756752Y-134649118D01*
X114911253Y-134536866D01*
X115039040Y-134394944D01*
X115134527Y-134229556D01*
X115193542Y-134047928D01*
X115194781Y-134036145D01*
X115210907Y-133882708D01*
X115237920Y-133817051D01*
X115247122Y-133806782D01*
X115588957Y-133464948D01*
X115651269Y-133430923D01*
X115722085Y-133435988D01*
X115778920Y-133478535D01*
X115799049Y-133518892D01*
X115824642Y-133606986D01*
X115824643Y-133606988D01*
X115826855Y-133614601D01*
X115843893Y-133643411D01*
X115907509Y-133750980D01*
X115907511Y-133750983D01*
X115911547Y-133757807D01*
X116029193Y-133875453D01*
X116036017Y-133879489D01*
X116036020Y-133879491D01*
X116100745Y-133917769D01*
X116172399Y-133960145D01*
X116180010Y-133962356D01*
X116180012Y-133962357D01*
X116232231Y-133977528D01*
X116332169Y-134006562D01*
X116338574Y-134007066D01*
X116338579Y-134007067D01*
X116367042Y-134009307D01*
X116367050Y-134009307D01*
X116369498Y-134009500D01*
X116802502Y-134009500D01*
X116804950Y-134009307D01*
X116804958Y-134009307D01*
X116833421Y-134007067D01*
X116833426Y-134007066D01*
X116839831Y-134006562D01*
X116939769Y-133977528D01*
X116991988Y-133962357D01*
X116991990Y-133962356D01*
X116999601Y-133960145D01*
X117071255Y-133917769D01*
X117135980Y-133879491D01*
X117135983Y-133879489D01*
X117142807Y-133875453D01*
X117260453Y-133757807D01*
X117264489Y-133750983D01*
X117264491Y-133750980D01*
X117328107Y-133643411D01*
X117345145Y-133614601D01*
X117347358Y-133606986D01*
X117372951Y-133518892D01*
X117391562Y-133454831D01*
X117394500Y-133417502D01*
X117394500Y-132260500D01*
X117414502Y-132192379D01*
X117468158Y-132145886D01*
X117520500Y-132134500D01*
X117752502Y-132134500D01*
X117754950Y-132134307D01*
X117754958Y-132134307D01*
X117783421Y-132132067D01*
X117783426Y-132132066D01*
X117789831Y-132131562D01*
X117889769Y-132102528D01*
X117941988Y-132087357D01*
X117941990Y-132087356D01*
X117949601Y-132085145D01*
X117988394Y-132062203D01*
X118085980Y-132004491D01*
X118085983Y-132004489D01*
X118092807Y-132000453D01*
X118210453Y-131882807D01*
X118214489Y-131875983D01*
X118214491Y-131875980D01*
X118291108Y-131746427D01*
X118295145Y-131739601D01*
X118297415Y-131731790D01*
X118339767Y-131586008D01*
X118341562Y-131579831D01*
X118342074Y-131573336D01*
X118344307Y-131544958D01*
X118344307Y-131544950D01*
X118344500Y-131542502D01*
X118344500Y-130234498D01*
X118344307Y-130232042D01*
X118342067Y-130203579D01*
X118342066Y-130203574D01*
X118341562Y-130197169D01*
X118300862Y-130057077D01*
X118297357Y-130045012D01*
X118297356Y-130045010D01*
X118295145Y-130037399D01*
X118210453Y-129894193D01*
X118213478Y-129892404D01*
X118193302Y-129841215D01*
X118207112Y-129771575D01*
X118252491Y-129722766D01*
X118266120Y-129714332D01*
X118272348Y-129710478D01*
X118397305Y-129585303D01*
X118403975Y-129574483D01*
X118486275Y-129440968D01*
X118486276Y-129440966D01*
X118490115Y-129434738D01*
X118545797Y-129266861D01*
X118546768Y-129257389D01*
X118556172Y-129165598D01*
X118556500Y-129162400D01*
X118556500Y-128361600D01*
X118545526Y-128255834D01*
X118540624Y-128241139D01*
X118491868Y-128095002D01*
X118489550Y-128088054D01*
X118396478Y-127937652D01*
X118309891Y-127851216D01*
X118275812Y-127788934D01*
X118280815Y-127718114D01*
X118309736Y-127673025D01*
X118392134Y-127590483D01*
X118397305Y-127585303D01*
X118403975Y-127574483D01*
X118486275Y-127440968D01*
X118486276Y-127440966D01*
X118490115Y-127434738D01*
X118545797Y-127266861D01*
X118546768Y-127257389D01*
X118556172Y-127165598D01*
X118556500Y-127162400D01*
X118556500Y-126501595D01*
X118576502Y-126433474D01*
X118593405Y-126412500D01*
X118756253Y-126249652D01*
X118764539Y-126242112D01*
X118771018Y-126238000D01*
X118817644Y-126188348D01*
X118820398Y-126185507D01*
X118840135Y-126165770D01*
X118842615Y-126162573D01*
X118850320Y-126153551D01*
X118875159Y-126127100D01*
X118880586Y-126121321D01*
X118884405Y-126114375D01*
X118884407Y-126114372D01*
X118890348Y-126103566D01*
X118901199Y-126087047D01*
X118908758Y-126077301D01*
X118913614Y-126071041D01*
X118916759Y-126063772D01*
X118916762Y-126063768D01*
X118931174Y-126030463D01*
X118936391Y-126019813D01*
X118957695Y-125981060D01*
X118962733Y-125961437D01*
X118969137Y-125942734D01*
X118974033Y-125931420D01*
X118974033Y-125931419D01*
X118977181Y-125924145D01*
X118978420Y-125916322D01*
X118978423Y-125916312D01*
X118984099Y-125880476D01*
X118986505Y-125868856D01*
X118995528Y-125833711D01*
X118995528Y-125833710D01*
X118997500Y-125826030D01*
X118997500Y-125805776D01*
X118999051Y-125786065D01*
X119000980Y-125773886D01*
X119002220Y-125766057D01*
X118998059Y-125722038D01*
X118997500Y-125710181D01*
X118997500Y-123638524D01*
X119017502Y-123570403D01*
X119029858Y-123554221D01*
X119103040Y-123472944D01*
X119198527Y-123307556D01*
X119257542Y-123125928D01*
X119258232Y-123119364D01*
X119259254Y-123114556D01*
X119292982Y-123052083D01*
X119355132Y-123017762D01*
X119425971Y-123022491D01*
X119483008Y-123064767D01*
X119508135Y-123131168D01*
X119508500Y-123140754D01*
X119508500Y-133543405D01*
X119488498Y-133611526D01*
X119471595Y-133632500D01*
X117651500Y-135452595D01*
X117589188Y-135486621D01*
X117562405Y-135489500D01*
X117506513Y-135489500D01*
X117500061Y-135490872D01*
X117500056Y-135490872D01*
X117413112Y-135509353D01*
X117319712Y-135529206D01*
X117313682Y-135531891D01*
X117313681Y-135531891D01*
X117151278Y-135604197D01*
X117151276Y-135604198D01*
X117145248Y-135606882D01*
X116990747Y-135719134D01*
X116862960Y-135861056D01*
X116767473Y-136026444D01*
X116708458Y-136208072D01*
X116707768Y-136214633D01*
X116707768Y-136214635D01*
X116699492Y-136293379D01*
X116688496Y-136398000D01*
X116708458Y-136587928D01*
X116767473Y-136769556D01*
X116862960Y-136934944D01*
X116990747Y-137076866D01*
X117145248Y-137189118D01*
X117151276Y-137191802D01*
X117151278Y-137191803D01*
X117313681Y-137264109D01*
X117319712Y-137266794D01*
X117413112Y-137286647D01*
X117500056Y-137305128D01*
X117500061Y-137305128D01*
X117506513Y-137306500D01*
X117697487Y-137306500D01*
X117703939Y-137305128D01*
X117703944Y-137305128D01*
X117790888Y-137286647D01*
X117884288Y-137266794D01*
X117890319Y-137264109D01*
X118052722Y-137191803D01*
X118052724Y-137191802D01*
X118058752Y-137189118D01*
X118213253Y-137076866D01*
X118341040Y-136934944D01*
X118436527Y-136769556D01*
X118495542Y-136587928D01*
X118512907Y-136422706D01*
X118539920Y-136357050D01*
X118549122Y-136346782D01*
X120534247Y-134361657D01*
X120542537Y-134354113D01*
X120549018Y-134350000D01*
X120595659Y-134300332D01*
X120598413Y-134297491D01*
X120618134Y-134277770D01*
X120620612Y-134274575D01*
X120628318Y-134265553D01*
X120653158Y-134239101D01*
X120658586Y-134233321D01*
X120668346Y-134215568D01*
X120679199Y-134199045D01*
X120686753Y-134189306D01*
X120691613Y-134183041D01*
X120709176Y-134142457D01*
X120714383Y-134131827D01*
X120735695Y-134093060D01*
X120737666Y-134085383D01*
X120737668Y-134085378D01*
X120740732Y-134073442D01*
X120747138Y-134054730D01*
X120749914Y-134048317D01*
X120755181Y-134036145D01*
X120759521Y-134008748D01*
X120762097Y-133992481D01*
X120764504Y-133980860D01*
X120773528Y-133945711D01*
X120773528Y-133945710D01*
X120775500Y-133938030D01*
X120775500Y-133917769D01*
X120777051Y-133898058D01*
X120778979Y-133885885D01*
X120780219Y-133878057D01*
X120776059Y-133834046D01*
X120775500Y-133822189D01*
X120775500Y-112092767D01*
X120776027Y-112081584D01*
X120777702Y-112074091D01*
X120775562Y-112006000D01*
X120775500Y-112002043D01*
X120775500Y-111974144D01*
X120774996Y-111970153D01*
X120774063Y-111958311D01*
X120772923Y-111922036D01*
X120772674Y-111914111D01*
X120770462Y-111906497D01*
X120770461Y-111906492D01*
X120767023Y-111894659D01*
X120763012Y-111875295D01*
X120762112Y-111868166D01*
X120760474Y-111855203D01*
X120757557Y-111847836D01*
X120757556Y-111847831D01*
X120744198Y-111814092D01*
X120740354Y-111802865D01*
X120730230Y-111768022D01*
X120728018Y-111760407D01*
X120717707Y-111742972D01*
X120709012Y-111725224D01*
X120701552Y-111706383D01*
X120675564Y-111670613D01*
X120669048Y-111660693D01*
X120650580Y-111629465D01*
X120650578Y-111629462D01*
X120646542Y-111622638D01*
X120632221Y-111608317D01*
X120619380Y-111593283D01*
X120612131Y-111583306D01*
X120607472Y-111576893D01*
X120573395Y-111548702D01*
X120564616Y-111540712D01*
X118613652Y-109589747D01*
X118606112Y-109581461D01*
X118602000Y-109574982D01*
X118576034Y-109550598D01*
X118552349Y-109528357D01*
X118549507Y-109525602D01*
X118529770Y-109505865D01*
X118526573Y-109503385D01*
X118517551Y-109495680D01*
X118504122Y-109483069D01*
X118485321Y-109465414D01*
X118478375Y-109461595D01*
X118478372Y-109461593D01*
X118467566Y-109455652D01*
X118451047Y-109444801D01*
X118450583Y-109444441D01*
X118435041Y-109432386D01*
X118427772Y-109429241D01*
X118427768Y-109429238D01*
X118394463Y-109414826D01*
X118383813Y-109409609D01*
X118345060Y-109388305D01*
X118325437Y-109383267D01*
X118306734Y-109376863D01*
X118295420Y-109371967D01*
X118295419Y-109371967D01*
X118288145Y-109368819D01*
X118280322Y-109367580D01*
X118280312Y-109367577D01*
X118244476Y-109361901D01*
X118232856Y-109359495D01*
X118197711Y-109350472D01*
X118197710Y-109350472D01*
X118190030Y-109348500D01*
X118169776Y-109348500D01*
X118150065Y-109346949D01*
X118137886Y-109345020D01*
X118130057Y-109343780D01*
X118100786Y-109346547D01*
X118086039Y-109347941D01*
X118074181Y-109348500D01*
X107266767Y-109348500D01*
X107255584Y-109347973D01*
X107248091Y-109346298D01*
X107240165Y-109346547D01*
X107240164Y-109346547D01*
X107180001Y-109348438D01*
X107176043Y-109348500D01*
X107148144Y-109348500D01*
X107144154Y-109349004D01*
X107132320Y-109349936D01*
X107088111Y-109351326D01*
X107080497Y-109353538D01*
X107080492Y-109353539D01*
X107068659Y-109356977D01*
X107049296Y-109360988D01*
X107029203Y-109363526D01*
X107021836Y-109366443D01*
X107021831Y-109366444D01*
X106988092Y-109379802D01*
X106976865Y-109383646D01*
X106934407Y-109395982D01*
X106927581Y-109400019D01*
X106916972Y-109406293D01*
X106899224Y-109414988D01*
X106880383Y-109422448D01*
X106873967Y-109427110D01*
X106873966Y-109427110D01*
X106844613Y-109448436D01*
X106834693Y-109454952D01*
X106803465Y-109473420D01*
X106803462Y-109473422D01*
X106796638Y-109477458D01*
X106782317Y-109491779D01*
X106767284Y-109504619D01*
X106750893Y-109516528D01*
X106745843Y-109522632D01*
X106745838Y-109522637D01*
X106722707Y-109550598D01*
X106714717Y-109559379D01*
X106221499Y-110052596D01*
X106159187Y-110086621D01*
X106132404Y-110089500D01*
X106076513Y-110089500D01*
X106070061Y-110090872D01*
X106070056Y-110090872D01*
X105983112Y-110109353D01*
X105889712Y-110129206D01*
X105883682Y-110131891D01*
X105883681Y-110131891D01*
X105721278Y-110204197D01*
X105721276Y-110204198D01*
X105715248Y-110206882D01*
X105560747Y-110319134D01*
X105432960Y-110461056D01*
X105429659Y-110466774D01*
X105343792Y-110615500D01*
X105337473Y-110626444D01*
X105278458Y-110808072D01*
X105258496Y-110998000D01*
X105278458Y-111187928D01*
X105337473Y-111369556D01*
X105432960Y-111534944D01*
X105437378Y-111539851D01*
X105437379Y-111539852D01*
X105488383Y-111596498D01*
X105560747Y-111676866D01*
X105715248Y-111789118D01*
X105721276Y-111791802D01*
X105721278Y-111791803D01*
X105847120Y-111847831D01*
X105889712Y-111866794D01*
X105983112Y-111886647D01*
X106070056Y-111905128D01*
X106070061Y-111905128D01*
X106076513Y-111906500D01*
X106267487Y-111906500D01*
X106273939Y-111905128D01*
X106273944Y-111905128D01*
X106360887Y-111886647D01*
X106454288Y-111866794D01*
X106460315Y-111864111D01*
X106460323Y-111864108D01*
X106564252Y-111817836D01*
X106634619Y-111808402D01*
X106698916Y-111838509D01*
X106736729Y-111898598D01*
X106741500Y-111932943D01*
X106741500Y-112948134D01*
X106748255Y-113010316D01*
X106799385Y-113146705D01*
X106886739Y-113263261D01*
X107003295Y-113350615D01*
X107139684Y-113401745D01*
X107201866Y-113408500D01*
X108848134Y-113408500D01*
X108910316Y-113401745D01*
X109046705Y-113350615D01*
X109163261Y-113263261D01*
X109250615Y-113146705D01*
X109301745Y-113010316D01*
X109303312Y-112995892D01*
X109330554Y-112930330D01*
X109388917Y-112889904D01*
X109428575Y-112883500D01*
X114571425Y-112883500D01*
X114639546Y-112903502D01*
X114686039Y-112957158D01*
X114696688Y-112995892D01*
X114698255Y-113010316D01*
X114749385Y-113146705D01*
X114836739Y-113263261D01*
X114953295Y-113350615D01*
X115089684Y-113401745D01*
X115151866Y-113408500D01*
X115615500Y-113408500D01*
X115683621Y-113428502D01*
X115730114Y-113482158D01*
X115741500Y-113534500D01*
X115741500Y-122276476D01*
X115721498Y-122344597D01*
X115709142Y-122360779D01*
X115635960Y-122442056D01*
X115540473Y-122607444D01*
X115481458Y-122789072D01*
X115480768Y-122795633D01*
X115480768Y-122795635D01*
X115464124Y-122953996D01*
X115461036Y-122961500D01*
X115462101Y-122973241D01*
X115461496Y-122979000D01*
X115462186Y-122985565D01*
X115476939Y-123125928D01*
X115481458Y-123168928D01*
X115540473Y-123350556D01*
X115635960Y-123515944D01*
X115640378Y-123520851D01*
X115640379Y-123520852D01*
X115728522Y-123618745D01*
X115763747Y-123657866D01*
X115918248Y-123770118D01*
X115924276Y-123772802D01*
X115924278Y-123772803D01*
X116086681Y-123845109D01*
X116092712Y-123847794D01*
X116186113Y-123867647D01*
X116273056Y-123886128D01*
X116273061Y-123886128D01*
X116279513Y-123887500D01*
X116470487Y-123887500D01*
X116476939Y-123886128D01*
X116476944Y-123886128D01*
X116563887Y-123867647D01*
X116657288Y-123847794D01*
X116663319Y-123845109D01*
X116825722Y-123772803D01*
X116825724Y-123772802D01*
X116831752Y-123770118D01*
X116986253Y-123657866D01*
X117021478Y-123618745D01*
X117109621Y-123520852D01*
X117109622Y-123520851D01*
X117114040Y-123515944D01*
X117209527Y-123350556D01*
X117256653Y-123205518D01*
X117296727Y-123146913D01*
X117362124Y-123119276D01*
X117432080Y-123131383D01*
X117484386Y-123179389D01*
X117496319Y-123205518D01*
X117529473Y-123307556D01*
X117624960Y-123472944D01*
X117698137Y-123554215D01*
X117728853Y-123618221D01*
X117730500Y-123638524D01*
X117730500Y-125431406D01*
X117710498Y-125499527D01*
X117693595Y-125520501D01*
X117597501Y-125616595D01*
X117535189Y-125650621D01*
X117508406Y-125653500D01*
X116847600Y-125653500D01*
X116844354Y-125653837D01*
X116844350Y-125653837D01*
X116748692Y-125663762D01*
X116748688Y-125663763D01*
X116741834Y-125664474D01*
X116735298Y-125666655D01*
X116735296Y-125666655D01*
X116628378Y-125702326D01*
X116574054Y-125720450D01*
X116423652Y-125813522D01*
X116298695Y-125938697D01*
X116294855Y-125944927D01*
X116294854Y-125944928D01*
X116215748Y-126073262D01*
X116205885Y-126089262D01*
X116195252Y-126121321D01*
X116153242Y-126247978D01*
X116150203Y-126257139D01*
X116139500Y-126361600D01*
X116139500Y-127162400D01*
X116139837Y-127165646D01*
X116139837Y-127165650D01*
X116149356Y-127257389D01*
X116150474Y-127268166D01*
X116206450Y-127435946D01*
X116299522Y-127586348D01*
X116304704Y-127591521D01*
X116386109Y-127672784D01*
X116420188Y-127735066D01*
X116415185Y-127805886D01*
X116386264Y-127850975D01*
X116320874Y-127916479D01*
X116298695Y-127938697D01*
X116294855Y-127944927D01*
X116294854Y-127944928D01*
X116215748Y-128073262D01*
X116205885Y-128089262D01*
X116203581Y-128096209D01*
X116153242Y-128247978D01*
X116150203Y-128257139D01*
X116139500Y-128361600D01*
X116139500Y-129162400D01*
X116139837Y-129165646D01*
X116139837Y-129165650D01*
X116149356Y-129257389D01*
X116150474Y-129268166D01*
X116206450Y-129435946D01*
X116277892Y-129551394D01*
X116296729Y-129619846D01*
X116275568Y-129687616D01*
X116221127Y-129733187D01*
X116150690Y-129742090D01*
X116106607Y-129726150D01*
X116056223Y-129696353D01*
X116041790Y-129690107D01*
X115907395Y-129651061D01*
X115893294Y-129651101D01*
X115890000Y-129658370D01*
X115890000Y-130616385D01*
X115894475Y-130631624D01*
X115895865Y-130632829D01*
X115903548Y-130634500D01*
X116425884Y-130634500D01*
X116441123Y-130630025D01*
X116442328Y-130628635D01*
X116443999Y-130620952D01*
X116443999Y-130237017D01*
X116443805Y-130232080D01*
X116441570Y-130203664D01*
X116439270Y-130191069D01*
X116396893Y-130045210D01*
X116390648Y-130030779D01*
X116333454Y-129934068D01*
X116315995Y-129865251D01*
X116338512Y-129797920D01*
X116393857Y-129753451D01*
X116464457Y-129745963D01*
X116508024Y-129762669D01*
X116569032Y-129800275D01*
X116575262Y-129804115D01*
X116628168Y-129821663D01*
X116686527Y-129862094D01*
X116713764Y-129927658D01*
X116714500Y-129941256D01*
X116714500Y-130621733D01*
X116713973Y-130632916D01*
X116712298Y-130640409D01*
X116712547Y-130648335D01*
X116712547Y-130648336D01*
X116714438Y-130708486D01*
X116714500Y-130712445D01*
X116714500Y-130740356D01*
X116714997Y-130744290D01*
X116714997Y-130744291D01*
X116715005Y-130744356D01*
X116715938Y-130756193D01*
X116717327Y-130800389D01*
X116719538Y-130807999D01*
X116722497Y-130818185D01*
X116727500Y-130853337D01*
X116727500Y-131391500D01*
X116707498Y-131459621D01*
X116653842Y-131506114D01*
X116601500Y-131517500D01*
X116570000Y-131517500D01*
X116501879Y-131497498D01*
X116455386Y-131443842D01*
X116444000Y-131391500D01*
X116444000Y-131160615D01*
X116439525Y-131145376D01*
X116438135Y-131144171D01*
X116430452Y-131142500D01*
X114846116Y-131142500D01*
X114830877Y-131146975D01*
X114829672Y-131148365D01*
X114828001Y-131156048D01*
X114828001Y-131539984D01*
X114828195Y-131544920D01*
X114830430Y-131573336D01*
X114832730Y-131585931D01*
X114875107Y-131731790D01*
X114881352Y-131746221D01*
X114957911Y-131875678D01*
X114967551Y-131888104D01*
X115073898Y-131994451D01*
X115087039Y-132004645D01*
X115128604Y-132062203D01*
X115132451Y-132133095D01*
X115097361Y-132194814D01*
X115083869Y-132206138D01*
X115051113Y-132229936D01*
X115041193Y-132236452D01*
X115009965Y-132254920D01*
X115009962Y-132254922D01*
X115003138Y-132258958D01*
X114988817Y-132273279D01*
X114973784Y-132286119D01*
X114957393Y-132298028D01*
X114952343Y-132304132D01*
X114952338Y-132304137D01*
X114929207Y-132332098D01*
X114921217Y-132340879D01*
X114349499Y-132912596D01*
X114287187Y-132946621D01*
X114260404Y-132949500D01*
X114204513Y-132949500D01*
X114198061Y-132950872D01*
X114198056Y-132950872D01*
X114111112Y-132969353D01*
X114017712Y-132989206D01*
X114011682Y-132991891D01*
X114011681Y-132991891D01*
X113849278Y-133064197D01*
X113849276Y-133064198D01*
X113843248Y-133066882D01*
X113837907Y-133070762D01*
X113837906Y-133070763D01*
X113784561Y-133109521D01*
X113717694Y-133133379D01*
X113648542Y-133117299D01*
X113599062Y-133066386D01*
X113584500Y-133007585D01*
X113584500Y-132260500D01*
X113604502Y-132192379D01*
X113658158Y-132145886D01*
X113710500Y-132134500D01*
X113942502Y-132134500D01*
X113944950Y-132134307D01*
X113944958Y-132134307D01*
X113973421Y-132132067D01*
X113973426Y-132132066D01*
X113979831Y-132131562D01*
X114079769Y-132102528D01*
X114131988Y-132087357D01*
X114131990Y-132087356D01*
X114139601Y-132085145D01*
X114178394Y-132062203D01*
X114275980Y-132004491D01*
X114275983Y-132004489D01*
X114282807Y-132000453D01*
X114400453Y-131882807D01*
X114404489Y-131875983D01*
X114404491Y-131875980D01*
X114481108Y-131746427D01*
X114485145Y-131739601D01*
X114487415Y-131731790D01*
X114529767Y-131586008D01*
X114531562Y-131579831D01*
X114532074Y-131573336D01*
X114534307Y-131544958D01*
X114534307Y-131544950D01*
X114534500Y-131542502D01*
X114534500Y-130616385D01*
X114828000Y-130616385D01*
X114832475Y-130631624D01*
X114833865Y-130632829D01*
X114841548Y-130634500D01*
X115363885Y-130634500D01*
X115379124Y-130630025D01*
X115380329Y-130628635D01*
X115382000Y-130620952D01*
X115382000Y-129664122D01*
X115378027Y-129650591D01*
X115370129Y-129649456D01*
X115230210Y-129690107D01*
X115215779Y-129696352D01*
X115086322Y-129772911D01*
X115073896Y-129782551D01*
X114967551Y-129888896D01*
X114957911Y-129901322D01*
X114881352Y-130030779D01*
X114875107Y-130045210D01*
X114832731Y-130191065D01*
X114830430Y-130203667D01*
X114828193Y-130232084D01*
X114828000Y-130237014D01*
X114828000Y-130616385D01*
X114534500Y-130616385D01*
X114534500Y-130234498D01*
X114534307Y-130232042D01*
X114532067Y-130203579D01*
X114532066Y-130203574D01*
X114531562Y-130197169D01*
X114490862Y-130057077D01*
X114487357Y-130045012D01*
X114487356Y-130045010D01*
X114485145Y-130037399D01*
X114400453Y-129894193D01*
X114403478Y-129892404D01*
X114383302Y-129841215D01*
X114397112Y-129771575D01*
X114442491Y-129722766D01*
X114456120Y-129714332D01*
X114462348Y-129710478D01*
X114587305Y-129585303D01*
X114593975Y-129574483D01*
X114676275Y-129440968D01*
X114676276Y-129440966D01*
X114680115Y-129434738D01*
X114735797Y-129266861D01*
X114736768Y-129257389D01*
X114746172Y-129165598D01*
X114746500Y-129162400D01*
X114746500Y-128361600D01*
X114735526Y-128255834D01*
X114730624Y-128241139D01*
X114681868Y-128095002D01*
X114679550Y-128088054D01*
X114586478Y-127937652D01*
X114499891Y-127851216D01*
X114465812Y-127788934D01*
X114470815Y-127718114D01*
X114499736Y-127673025D01*
X114582134Y-127590483D01*
X114587305Y-127585303D01*
X114593975Y-127574483D01*
X114676275Y-127440968D01*
X114676276Y-127440966D01*
X114680115Y-127434738D01*
X114735797Y-127266861D01*
X114736768Y-127257389D01*
X114746172Y-127165598D01*
X114746500Y-127162400D01*
X114746500Y-126361600D01*
X114735526Y-126255834D01*
X114730624Y-126241139D01*
X114681868Y-126095002D01*
X114679550Y-126088054D01*
X114586478Y-125937652D01*
X114461303Y-125812695D01*
X114455072Y-125808854D01*
X114316968Y-125723725D01*
X114316966Y-125723724D01*
X114310738Y-125719885D01*
X114257832Y-125702337D01*
X114199473Y-125661906D01*
X114172236Y-125596342D01*
X114171500Y-125582744D01*
X114171500Y-124012594D01*
X114191502Y-123944473D01*
X114208405Y-123923499D01*
X114250499Y-123881405D01*
X114312811Y-123847379D01*
X114339594Y-123844500D01*
X114395487Y-123844500D01*
X114401939Y-123843128D01*
X114401944Y-123843128D01*
X114488887Y-123824647D01*
X114582288Y-123804794D01*
X114588319Y-123802109D01*
X114750722Y-123729803D01*
X114750724Y-123729802D01*
X114756752Y-123727118D01*
X114774808Y-123714000D01*
X114858828Y-123652955D01*
X114911253Y-123614866D01*
X114947019Y-123575144D01*
X115034621Y-123477852D01*
X115034625Y-123477847D01*
X115039040Y-123472944D01*
X115134527Y-123307556D01*
X115193542Y-123125928D01*
X115210876Y-122961004D01*
X115213964Y-122953500D01*
X115212899Y-122941759D01*
X115213504Y-122936000D01*
X115201992Y-122826470D01*
X115194232Y-122752635D01*
X115194232Y-122752633D01*
X115193542Y-122746072D01*
X115134527Y-122564444D01*
X115039040Y-122399056D01*
X115022881Y-122381109D01*
X114915675Y-122262045D01*
X114915674Y-122262044D01*
X114911253Y-122257134D01*
X114756752Y-122144882D01*
X114750724Y-122142198D01*
X114750722Y-122142197D01*
X114588319Y-122069891D01*
X114588318Y-122069891D01*
X114582288Y-122067206D01*
X114488887Y-122047353D01*
X114401944Y-122028872D01*
X114401939Y-122028872D01*
X114395487Y-122027500D01*
X114204513Y-122027500D01*
X114198061Y-122028872D01*
X114198056Y-122028872D01*
X114111113Y-122047353D01*
X114017712Y-122067206D01*
X114011682Y-122069891D01*
X114011681Y-122069891D01*
X113849278Y-122142197D01*
X113849276Y-122142198D01*
X113843248Y-122144882D01*
X113688747Y-122257134D01*
X113684326Y-122262044D01*
X113684325Y-122262045D01*
X113577120Y-122381109D01*
X113560960Y-122399056D01*
X113465473Y-122564444D01*
X113406458Y-122746072D01*
X113405768Y-122752633D01*
X113405768Y-122752635D01*
X113389093Y-122911292D01*
X113362080Y-122976949D01*
X113352878Y-122987218D01*
X113145742Y-123194353D01*
X113137463Y-123201887D01*
X113130982Y-123206000D01*
X113088730Y-123250994D01*
X113084357Y-123255651D01*
X113081602Y-123258493D01*
X113061865Y-123278230D01*
X113059385Y-123281427D01*
X113051682Y-123290447D01*
X113021414Y-123322679D01*
X113017595Y-123329625D01*
X113017593Y-123329628D01*
X113011652Y-123340434D01*
X113000801Y-123356953D01*
X112988386Y-123372959D01*
X112985241Y-123380228D01*
X112985238Y-123380232D01*
X112970826Y-123413537D01*
X112965609Y-123424187D01*
X112944305Y-123462940D01*
X112942334Y-123470615D01*
X112942334Y-123470616D01*
X112939267Y-123482562D01*
X112932863Y-123501266D01*
X112924819Y-123519855D01*
X112923580Y-123527678D01*
X112923577Y-123527688D01*
X112917901Y-123563524D01*
X112915495Y-123575144D01*
X112907469Y-123606405D01*
X112904500Y-123617970D01*
X112904500Y-123638224D01*
X112902949Y-123657934D01*
X112899780Y-123677943D01*
X112900526Y-123685835D01*
X112903941Y-123721961D01*
X112904500Y-123733819D01*
X112904500Y-125582803D01*
X112884498Y-125650924D01*
X112830842Y-125697417D01*
X112818377Y-125702326D01*
X112770998Y-125718133D01*
X112770996Y-125718134D01*
X112764054Y-125720450D01*
X112757830Y-125724301D01*
X112757829Y-125724302D01*
X112690354Y-125766057D01*
X112613652Y-125813522D01*
X112488695Y-125938697D01*
X112484855Y-125944927D01*
X112484854Y-125944928D01*
X112405748Y-126073262D01*
X112395885Y-126089262D01*
X112385252Y-126121321D01*
X112343242Y-126247978D01*
X112340203Y-126257139D01*
X112329500Y-126361600D01*
X112329500Y-127162400D01*
X112329837Y-127165646D01*
X112329837Y-127165650D01*
X112339356Y-127257389D01*
X112340474Y-127268166D01*
X112396450Y-127435946D01*
X112489522Y-127586348D01*
X112494704Y-127591521D01*
X112576109Y-127672784D01*
X112610188Y-127735066D01*
X112605185Y-127805886D01*
X112576264Y-127850975D01*
X112510874Y-127916479D01*
X112488695Y-127938697D01*
X112484855Y-127944927D01*
X112484854Y-127944928D01*
X112405748Y-128073262D01*
X112395885Y-128089262D01*
X112393581Y-128096209D01*
X112343242Y-128247978D01*
X112340203Y-128257139D01*
X112329500Y-128361600D01*
X112329500Y-129162400D01*
X112329837Y-129165646D01*
X112329837Y-129165650D01*
X112339356Y-129257389D01*
X112340474Y-129268166D01*
X112396450Y-129435946D01*
X112467892Y-129551394D01*
X112486729Y-129619846D01*
X112465568Y-129687616D01*
X112411127Y-129733187D01*
X112340690Y-129742090D01*
X112296607Y-129726150D01*
X112246223Y-129696353D01*
X112231790Y-129690107D01*
X112097395Y-129651061D01*
X112083294Y-129651101D01*
X112080000Y-129658370D01*
X112080000Y-130616385D01*
X112084475Y-130631624D01*
X112085865Y-130632829D01*
X112093548Y-130634500D01*
X112615884Y-130634500D01*
X112631123Y-130630025D01*
X112632328Y-130628635D01*
X112633999Y-130620952D01*
X112633999Y-130237017D01*
X112633805Y-130232080D01*
X112631570Y-130203664D01*
X112629270Y-130191069D01*
X112586893Y-130045210D01*
X112580648Y-130030779D01*
X112523454Y-129934068D01*
X112505995Y-129865251D01*
X112528512Y-129797920D01*
X112583857Y-129753451D01*
X112654457Y-129745963D01*
X112698024Y-129762669D01*
X112759032Y-129800275D01*
X112765262Y-129804115D01*
X112818168Y-129821663D01*
X112876527Y-129862094D01*
X112903764Y-129927658D01*
X112904500Y-129941256D01*
X112904500Y-130621733D01*
X112903973Y-130632916D01*
X112902298Y-130640409D01*
X112902547Y-130648335D01*
X112902547Y-130648336D01*
X112904438Y-130708486D01*
X112904500Y-130712445D01*
X112904500Y-130740356D01*
X112904997Y-130744290D01*
X112904997Y-130744291D01*
X112905005Y-130744356D01*
X112905938Y-130756193D01*
X112907327Y-130800389D01*
X112909538Y-130807999D01*
X112912497Y-130818185D01*
X112917500Y-130853337D01*
X112917500Y-131391500D01*
X112897498Y-131459621D01*
X112843842Y-131506114D01*
X112791500Y-131517500D01*
X112760000Y-131517500D01*
X112691879Y-131497498D01*
X112645386Y-131443842D01*
X112634000Y-131391500D01*
X112634000Y-131160615D01*
X112629525Y-131145376D01*
X112628135Y-131144171D01*
X112620452Y-131142500D01*
X112098115Y-131142500D01*
X112082876Y-131146975D01*
X112081671Y-131148365D01*
X112080000Y-131156048D01*
X112080000Y-131771158D01*
X112062453Y-131835297D01*
X112016855Y-131912399D01*
X111970438Y-132072169D01*
X111969934Y-132078574D01*
X111969933Y-132078579D01*
X111967693Y-132107042D01*
X111967500Y-132109498D01*
X111967500Y-132702405D01*
X111947498Y-132770526D01*
X111930595Y-132791501D01*
X111809499Y-132912596D01*
X111747187Y-132946621D01*
X111720404Y-132949500D01*
X111664513Y-132949500D01*
X111658061Y-132950872D01*
X111658056Y-132950872D01*
X111571112Y-132969353D01*
X111477712Y-132989206D01*
X111471682Y-132991891D01*
X111471681Y-132991891D01*
X111309278Y-133064197D01*
X111309276Y-133064198D01*
X111303248Y-133066882D01*
X111148747Y-133179134D01*
X111020960Y-133321056D01*
X111017659Y-133326774D01*
X110940159Y-133461008D01*
X110925473Y-133486444D01*
X110866458Y-133668072D01*
X110866318Y-133669401D01*
X110833518Y-133730156D01*
X110771368Y-133764477D01*
X110700529Y-133759748D01*
X110643492Y-133717472D01*
X110621724Y-133669808D01*
X110621542Y-133668072D01*
X110562527Y-133486444D01*
X110547842Y-133461008D01*
X110470341Y-133326774D01*
X110467040Y-133321056D01*
X110339253Y-133179134D01*
X110184752Y-133066882D01*
X110178724Y-133064198D01*
X110178722Y-133064197D01*
X110016319Y-132991891D01*
X110016318Y-132991891D01*
X110010288Y-132989206D01*
X110003836Y-132987834D01*
X110003831Y-132987833D01*
X109874303Y-132960301D01*
X109811829Y-132926572D01*
X109777508Y-132864423D01*
X109774500Y-132837054D01*
X109774500Y-132260500D01*
X109794502Y-132192379D01*
X109848158Y-132145886D01*
X109900500Y-132134500D01*
X110132502Y-132134500D01*
X110134950Y-132134307D01*
X110134958Y-132134307D01*
X110163421Y-132132067D01*
X110163426Y-132132066D01*
X110169831Y-132131562D01*
X110269769Y-132102528D01*
X110321988Y-132087357D01*
X110321990Y-132087356D01*
X110329601Y-132085145D01*
X110368394Y-132062203D01*
X110465980Y-132004491D01*
X110465983Y-132004489D01*
X110472807Y-132000453D01*
X110590453Y-131882807D01*
X110594489Y-131875983D01*
X110594491Y-131875980D01*
X110671108Y-131746427D01*
X110675145Y-131739601D01*
X110677415Y-131731790D01*
X110719767Y-131586008D01*
X110721562Y-131579831D01*
X110722074Y-131573336D01*
X110724307Y-131544958D01*
X110724307Y-131544950D01*
X110724500Y-131542502D01*
X110724500Y-131539984D01*
X111018001Y-131539984D01*
X111018195Y-131544920D01*
X111020430Y-131573336D01*
X111022730Y-131585931D01*
X111065107Y-131731790D01*
X111071352Y-131746221D01*
X111147911Y-131875678D01*
X111157551Y-131888104D01*
X111263896Y-131994449D01*
X111276322Y-132004089D01*
X111405779Y-132080648D01*
X111420210Y-132086893D01*
X111554605Y-132125939D01*
X111568706Y-132125899D01*
X111572000Y-132118630D01*
X111572000Y-131160615D01*
X111567525Y-131145376D01*
X111566135Y-131144171D01*
X111558452Y-131142500D01*
X111036116Y-131142500D01*
X111020877Y-131146975D01*
X111019672Y-131148365D01*
X111018001Y-131156048D01*
X111018001Y-131539984D01*
X110724500Y-131539984D01*
X110724500Y-130616385D01*
X111018000Y-130616385D01*
X111022475Y-130631624D01*
X111023865Y-130632829D01*
X111031548Y-130634500D01*
X111553885Y-130634500D01*
X111569124Y-130630025D01*
X111570329Y-130628635D01*
X111572000Y-130620952D01*
X111572000Y-129664122D01*
X111568027Y-129650591D01*
X111560129Y-129649456D01*
X111420210Y-129690107D01*
X111405779Y-129696352D01*
X111276322Y-129772911D01*
X111263896Y-129782551D01*
X111157551Y-129888896D01*
X111147911Y-129901322D01*
X111071352Y-130030779D01*
X111065107Y-130045210D01*
X111022731Y-130191065D01*
X111020430Y-130203667D01*
X111018193Y-130232084D01*
X111018000Y-130237014D01*
X111018000Y-130616385D01*
X110724500Y-130616385D01*
X110724500Y-130234498D01*
X110724307Y-130232042D01*
X110722067Y-130203579D01*
X110722066Y-130203574D01*
X110721562Y-130197169D01*
X110680862Y-130057077D01*
X110677357Y-130045012D01*
X110677356Y-130045010D01*
X110675145Y-130037399D01*
X110590453Y-129894193D01*
X110589726Y-129893466D01*
X110564902Y-129830243D01*
X110578801Y-129760620D01*
X110624104Y-129711956D01*
X110652348Y-129694478D01*
X110777305Y-129569303D01*
X110859508Y-129435946D01*
X110866275Y-129424968D01*
X110866276Y-129424966D01*
X110870115Y-129418738D01*
X110922332Y-129261308D01*
X110923632Y-129257389D01*
X110923632Y-129257387D01*
X110925797Y-129250861D01*
X110936500Y-129146400D01*
X110936500Y-128345600D01*
X110936163Y-128342350D01*
X110926238Y-128246692D01*
X110926237Y-128246688D01*
X110925526Y-128239834D01*
X110869550Y-128072054D01*
X110776478Y-127921652D01*
X110689891Y-127835216D01*
X110655812Y-127772934D01*
X110660815Y-127702114D01*
X110689736Y-127657025D01*
X110772134Y-127574483D01*
X110777305Y-127569303D01*
X110859508Y-127435946D01*
X110866275Y-127424968D01*
X110866276Y-127424966D01*
X110870115Y-127418738D01*
X110922332Y-127261308D01*
X110923632Y-127257389D01*
X110923632Y-127257387D01*
X110925797Y-127250861D01*
X110936500Y-127146400D01*
X110936500Y-126345600D01*
X110936163Y-126342350D01*
X110926238Y-126246692D01*
X110926237Y-126246688D01*
X110925526Y-126239834D01*
X110869550Y-126072054D01*
X110776478Y-125921652D01*
X110651303Y-125796695D01*
X110533867Y-125724306D01*
X110506968Y-125707725D01*
X110506966Y-125707724D01*
X110500738Y-125703885D01*
X110447832Y-125686337D01*
X110389473Y-125645906D01*
X110362236Y-125580342D01*
X110361500Y-125566744D01*
X110361500Y-124520594D01*
X110381502Y-124452473D01*
X110398405Y-124431499D01*
X111111047Y-123718857D01*
X111173359Y-123684831D01*
X111244174Y-123689896D01*
X111274202Y-123706015D01*
X111297907Y-123723238D01*
X111297910Y-123723240D01*
X111303248Y-123727118D01*
X111309276Y-123729802D01*
X111309278Y-123729803D01*
X111471681Y-123802109D01*
X111477712Y-123804794D01*
X111571113Y-123824647D01*
X111658056Y-123843128D01*
X111658061Y-123843128D01*
X111664513Y-123844500D01*
X111855487Y-123844500D01*
X111861939Y-123843128D01*
X111861944Y-123843128D01*
X111948887Y-123824647D01*
X112042288Y-123804794D01*
X112048319Y-123802109D01*
X112210722Y-123729803D01*
X112210724Y-123729802D01*
X112216752Y-123727118D01*
X112234808Y-123714000D01*
X112318828Y-123652955D01*
X112371253Y-123614866D01*
X112407019Y-123575144D01*
X112494621Y-123477852D01*
X112494625Y-123477847D01*
X112499040Y-123472944D01*
X112594527Y-123307556D01*
X112653542Y-123125928D01*
X112673504Y-122936000D01*
X112661992Y-122826470D01*
X112654232Y-122752635D01*
X112654232Y-122752633D01*
X112653542Y-122746072D01*
X112594527Y-122564444D01*
X112499040Y-122399056D01*
X112482881Y-122381109D01*
X112375675Y-122262045D01*
X112375674Y-122262044D01*
X112371253Y-122257134D01*
X112216752Y-122144882D01*
X112210724Y-122142198D01*
X112210722Y-122142197D01*
X112048319Y-122069891D01*
X112048318Y-122069891D01*
X112042288Y-122067206D01*
X111948887Y-122047353D01*
X111861944Y-122028872D01*
X111861939Y-122028872D01*
X111855487Y-122027500D01*
X111664513Y-122027500D01*
X111658061Y-122028872D01*
X111658056Y-122028872D01*
X111571113Y-122047353D01*
X111477712Y-122067206D01*
X111471682Y-122069891D01*
X111471681Y-122069891D01*
X111309278Y-122142197D01*
X111309276Y-122142198D01*
X111303248Y-122144882D01*
X111148747Y-122257134D01*
X111144332Y-122262037D01*
X111139420Y-122266460D01*
X111137748Y-122264603D01*
X111086889Y-122295927D01*
X111057674Y-122300311D01*
X110990014Y-122302438D01*
X110986055Y-122302500D01*
X110958144Y-122302500D01*
X110954210Y-122302997D01*
X110954209Y-122302997D01*
X110954144Y-122303005D01*
X110942307Y-122303938D01*
X110910490Y-122304938D01*
X110906029Y-122305078D01*
X110898110Y-122305327D01*
X110880454Y-122310456D01*
X110878658Y-122310978D01*
X110859306Y-122314986D01*
X110852235Y-122315880D01*
X110839203Y-122317526D01*
X110831834Y-122320443D01*
X110831832Y-122320444D01*
X110798097Y-122333800D01*
X110786869Y-122337645D01*
X110744407Y-122349982D01*
X110737585Y-122354016D01*
X110737579Y-122354019D01*
X110726968Y-122360294D01*
X110709218Y-122368990D01*
X110697756Y-122373528D01*
X110697751Y-122373531D01*
X110690383Y-122376448D01*
X110683968Y-122381109D01*
X110654625Y-122402427D01*
X110644707Y-122408943D01*
X110626019Y-122419995D01*
X110606637Y-122431458D01*
X110592313Y-122445782D01*
X110577281Y-122458621D01*
X110560893Y-122470528D01*
X110532712Y-122504593D01*
X110524722Y-122513373D01*
X109821127Y-123216968D01*
X109758815Y-123250994D01*
X109688000Y-123245929D01*
X109631164Y-123203382D01*
X109606353Y-123136862D01*
X109606722Y-123114703D01*
X109624814Y-122942565D01*
X109625504Y-122936000D01*
X109613992Y-122826470D01*
X109606232Y-122752635D01*
X109606232Y-122752633D01*
X109605542Y-122746072D01*
X109546527Y-122564444D01*
X109451040Y-122399056D01*
X109434881Y-122381109D01*
X109327675Y-122262045D01*
X109327674Y-122262044D01*
X109323253Y-122257134D01*
X109168752Y-122144882D01*
X109162724Y-122142198D01*
X109162722Y-122142197D01*
X109000319Y-122069891D01*
X109000318Y-122069891D01*
X108994288Y-122067206D01*
X108900887Y-122047353D01*
X108813944Y-122028872D01*
X108813939Y-122028872D01*
X108807487Y-122027500D01*
X108616513Y-122027500D01*
X108610061Y-122028872D01*
X108610056Y-122028872D01*
X108523113Y-122047353D01*
X108429712Y-122067206D01*
X108423682Y-122069891D01*
X108423681Y-122069891D01*
X108261278Y-122142197D01*
X108261276Y-122142198D01*
X108255248Y-122144882D01*
X108100747Y-122257134D01*
X108096332Y-122262037D01*
X108091420Y-122266460D01*
X108090295Y-122265211D01*
X108036986Y-122298051D01*
X108003800Y-122302500D01*
X107266767Y-122302500D01*
X107255584Y-122301973D01*
X107248091Y-122300298D01*
X107240165Y-122300547D01*
X107240164Y-122300547D01*
X107180014Y-122302438D01*
X107176055Y-122302500D01*
X107148144Y-122302500D01*
X107144210Y-122302997D01*
X107144209Y-122302997D01*
X107144144Y-122303005D01*
X107132307Y-122303938D01*
X107100490Y-122304938D01*
X107096029Y-122305078D01*
X107088110Y-122305327D01*
X107070454Y-122310456D01*
X107068658Y-122310978D01*
X107049306Y-122314986D01*
X107042235Y-122315880D01*
X107029203Y-122317526D01*
X107021834Y-122320443D01*
X107021832Y-122320444D01*
X106988097Y-122333800D01*
X106976869Y-122337645D01*
X106934407Y-122349982D01*
X106927585Y-122354016D01*
X106927579Y-122354019D01*
X106916968Y-122360294D01*
X106899218Y-122368990D01*
X106887756Y-122373528D01*
X106887751Y-122373531D01*
X106880383Y-122376448D01*
X106873968Y-122381109D01*
X106844625Y-122402427D01*
X106834707Y-122408943D01*
X106816019Y-122419995D01*
X106796637Y-122431458D01*
X106782313Y-122445782D01*
X106767281Y-122458621D01*
X106750893Y-122470528D01*
X106722712Y-122504593D01*
X106714722Y-122513373D01*
X105525747Y-123702348D01*
X105517461Y-123709888D01*
X105510982Y-123714000D01*
X105505557Y-123719777D01*
X105464357Y-123763651D01*
X105461602Y-123766493D01*
X105441865Y-123786230D01*
X105439385Y-123789427D01*
X105431682Y-123798447D01*
X105401414Y-123830679D01*
X105397595Y-123837625D01*
X105397593Y-123837628D01*
X105391652Y-123848434D01*
X105380801Y-123864953D01*
X105368386Y-123880959D01*
X105365241Y-123888228D01*
X105365238Y-123888232D01*
X105350826Y-123921537D01*
X105345609Y-123932187D01*
X105324305Y-123970940D01*
X105322334Y-123978615D01*
X105322334Y-123978616D01*
X105319267Y-123990562D01*
X105312863Y-124009266D01*
X105304819Y-124027855D01*
X105303580Y-124035678D01*
X105303577Y-124035688D01*
X105297901Y-124071524D01*
X105295495Y-124083144D01*
X105284500Y-124125970D01*
X105284500Y-124146224D01*
X105282949Y-124165934D01*
X105279780Y-124185943D01*
X105280526Y-124193835D01*
X105283941Y-124229961D01*
X105284500Y-124241819D01*
X105284500Y-125582803D01*
X105264498Y-125650924D01*
X105210842Y-125697417D01*
X105198377Y-125702326D01*
X105150998Y-125718133D01*
X105150996Y-125718134D01*
X105144054Y-125720450D01*
X105137830Y-125724301D01*
X105137829Y-125724302D01*
X105070354Y-125766057D01*
X104993652Y-125813522D01*
X104868695Y-125938697D01*
X104864855Y-125944927D01*
X104864854Y-125944928D01*
X104785748Y-126073262D01*
X104775885Y-126089262D01*
X104765252Y-126121321D01*
X104723242Y-126247978D01*
X104720203Y-126257139D01*
X104709500Y-126361600D01*
X104709500Y-127162400D01*
X104709837Y-127165646D01*
X104709837Y-127165650D01*
X104719356Y-127257389D01*
X104720474Y-127268166D01*
X104776450Y-127435946D01*
X104869522Y-127586348D01*
X104874704Y-127591521D01*
X104956109Y-127672784D01*
X104990188Y-127735066D01*
X104985185Y-127805886D01*
X104956264Y-127850975D01*
X104890874Y-127916479D01*
X104868695Y-127938697D01*
X104864855Y-127944927D01*
X104864854Y-127944928D01*
X104785748Y-128073262D01*
X104775885Y-128089262D01*
X104773581Y-128096209D01*
X104723242Y-128247978D01*
X104720203Y-128257139D01*
X104709500Y-128361600D01*
X104709500Y-129162400D01*
X104709837Y-129165646D01*
X104709837Y-129165650D01*
X104719356Y-129257389D01*
X104720474Y-129268166D01*
X104776450Y-129435946D01*
X104847892Y-129551394D01*
X104866729Y-129619846D01*
X104845568Y-129687616D01*
X104791127Y-129733187D01*
X104720690Y-129742090D01*
X104676607Y-129726150D01*
X104626223Y-129696353D01*
X104611790Y-129690107D01*
X104477395Y-129651061D01*
X104463294Y-129651101D01*
X104460000Y-129658370D01*
X104460000Y-130616385D01*
X104464475Y-130631624D01*
X104465865Y-130632829D01*
X104473548Y-130634500D01*
X104995884Y-130634500D01*
X105011123Y-130630025D01*
X105012328Y-130628635D01*
X105013999Y-130620952D01*
X105013999Y-130237017D01*
X105013805Y-130232080D01*
X105011570Y-130203664D01*
X105009270Y-130191069D01*
X104966893Y-130045210D01*
X104960648Y-130030779D01*
X104903454Y-129934068D01*
X104885995Y-129865251D01*
X104908512Y-129797920D01*
X104963857Y-129753451D01*
X105034457Y-129745963D01*
X105078024Y-129762669D01*
X105139032Y-129800275D01*
X105145262Y-129804115D01*
X105198168Y-129821663D01*
X105256527Y-129862094D01*
X105283764Y-129927658D01*
X105284500Y-129941256D01*
X105284500Y-130621733D01*
X105283973Y-130632916D01*
X105282298Y-130640409D01*
X105282547Y-130648335D01*
X105282547Y-130648336D01*
X105284438Y-130708486D01*
X105284500Y-130712445D01*
X105284500Y-130740356D01*
X105284997Y-130744290D01*
X105284997Y-130744291D01*
X105285005Y-130744356D01*
X105285938Y-130756193D01*
X105287327Y-130800389D01*
X105289538Y-130807999D01*
X105292497Y-130818185D01*
X105297500Y-130853337D01*
X105297500Y-131391500D01*
X105277498Y-131459621D01*
X105223842Y-131506114D01*
X105171500Y-131517500D01*
X105140000Y-131517500D01*
X105071879Y-131497498D01*
X105025386Y-131443842D01*
X105014000Y-131391500D01*
X105014000Y-131160615D01*
X105009525Y-131145376D01*
X105008135Y-131144171D01*
X105000452Y-131142500D01*
X104478115Y-131142500D01*
X104462876Y-131146975D01*
X104461671Y-131148365D01*
X104460000Y-131156048D01*
X104460000Y-131771158D01*
X104442453Y-131835297D01*
X104396855Y-131912399D01*
X104350438Y-132072169D01*
X104349934Y-132078574D01*
X104349933Y-132078579D01*
X104347693Y-132107042D01*
X104347500Y-132109498D01*
X104347500Y-133417502D01*
X100508500Y-133417502D01*
X100508500Y-131474000D01*
X100528502Y-131405879D01*
X100582158Y-131359386D01*
X100634500Y-131348000D01*
X103230000Y-131348000D01*
X103230000Y-131342680D01*
X103236502Y-131340771D01*
X103307498Y-131340771D01*
X103367225Y-131379154D01*
X103396718Y-131443734D01*
X103398001Y-131461667D01*
X103398001Y-131539984D01*
X103398195Y-131544920D01*
X103400430Y-131573336D01*
X103402730Y-131585931D01*
X103445107Y-131731790D01*
X103451352Y-131746221D01*
X103527911Y-131875678D01*
X103537551Y-131888104D01*
X103643896Y-131994449D01*
X103656322Y-132004089D01*
X103785779Y-132080648D01*
X103800210Y-132086893D01*
X103934605Y-132125939D01*
X103948706Y-132125899D01*
X103952000Y-132118630D01*
X103952000Y-129664122D01*
X103948027Y-129650591D01*
X103940129Y-129649456D01*
X103800210Y-129690107D01*
X103785779Y-129696352D01*
X103656322Y-129772911D01*
X103643896Y-129782551D01*
X103537551Y-129888896D01*
X103527911Y-129901323D01*
X103464454Y-130008624D01*
X103412561Y-130057077D01*
X103342711Y-130069782D01*
X103277079Y-130042707D01*
X103236505Y-129984447D01*
X103230000Y-129944485D01*
X103230000Y-108444669D01*
X106742001Y-108444669D01*
X106742371Y-108451490D01*
X106747895Y-108502352D01*
X106751521Y-108517604D01*
X106796676Y-108638054D01*
X106805214Y-108653649D01*
X106881715Y-108755724D01*
X106894276Y-108768285D01*
X106996351Y-108844786D01*
X107011946Y-108853324D01*
X107132394Y-108898478D01*
X107147649Y-108902105D01*
X107198514Y-108907631D01*
X107205328Y-108908000D01*
X107752885Y-108908000D01*
X107768124Y-108903525D01*
X107769329Y-108902135D01*
X107771000Y-108894452D01*
X107771000Y-108889884D01*
X108279000Y-108889884D01*
X108283475Y-108905123D01*
X108284865Y-108906328D01*
X108292548Y-108907999D01*
X108844669Y-108907999D01*
X108851490Y-108907629D01*
X108902352Y-108902105D01*
X108917604Y-108898479D01*
X109038054Y-108853324D01*
X109053649Y-108844786D01*
X109155724Y-108768285D01*
X109168285Y-108755724D01*
X109244786Y-108653649D01*
X109253324Y-108638054D01*
X109298478Y-108517606D01*
X109302105Y-108502351D01*
X109307631Y-108451486D01*
X109308000Y-108444672D01*
X109308000Y-108444669D01*
X114692001Y-108444669D01*
X114692371Y-108451490D01*
X114697895Y-108502352D01*
X114701521Y-108517604D01*
X114746676Y-108638054D01*
X114755214Y-108653649D01*
X114831715Y-108755724D01*
X114844276Y-108768285D01*
X114946351Y-108844786D01*
X114961946Y-108853324D01*
X115082394Y-108898478D01*
X115097649Y-108902105D01*
X115148514Y-108907631D01*
X115155328Y-108908000D01*
X115702885Y-108908000D01*
X115718124Y-108903525D01*
X115719329Y-108902135D01*
X115721000Y-108894452D01*
X115721000Y-108889884D01*
X116229000Y-108889884D01*
X116233475Y-108905123D01*
X116234865Y-108906328D01*
X116242548Y-108907999D01*
X116794669Y-108907999D01*
X116801490Y-108907629D01*
X116852352Y-108902105D01*
X116867604Y-108898479D01*
X116988054Y-108853324D01*
X117003649Y-108844786D01*
X117105724Y-108768285D01*
X117118285Y-108755724D01*
X117194786Y-108653649D01*
X117203324Y-108638054D01*
X117248478Y-108517606D01*
X117252105Y-108502351D01*
X117257631Y-108451486D01*
X117258000Y-108444672D01*
X117258000Y-108022115D01*
X117253525Y-108006876D01*
X117252135Y-108005671D01*
X117244452Y-108004000D01*
X116247115Y-108004000D01*
X116231876Y-108008475D01*
X116230671Y-108009865D01*
X116229000Y-108017548D01*
X116229000Y-108889884D01*
X115721000Y-108889884D01*
X115721000Y-108022115D01*
X115716525Y-108006876D01*
X115715135Y-108005671D01*
X115707452Y-108004000D01*
X114710116Y-108004000D01*
X114694877Y-108008475D01*
X114693672Y-108009865D01*
X114692001Y-108017548D01*
X114692001Y-108444669D01*
X109308000Y-108444669D01*
X109308000Y-108022115D01*
X109303525Y-108006876D01*
X109302135Y-108005671D01*
X109294452Y-108004000D01*
X108297115Y-108004000D01*
X108281876Y-108008475D01*
X108280671Y-108009865D01*
X108279000Y-108017548D01*
X108279000Y-108889884D01*
X107771000Y-108889884D01*
X107771000Y-108022115D01*
X107766525Y-108006876D01*
X107765135Y-108005671D01*
X107757452Y-108004000D01*
X106760116Y-108004000D01*
X106744877Y-108008475D01*
X106743672Y-108009865D01*
X106742001Y-108017548D01*
X106742001Y-108444669D01*
X103230000Y-108444669D01*
X103230000Y-107477885D01*
X106742000Y-107477885D01*
X106746475Y-107493124D01*
X106747865Y-107494329D01*
X106755548Y-107496000D01*
X107752885Y-107496000D01*
X107768124Y-107491525D01*
X107769329Y-107490135D01*
X107771000Y-107482452D01*
X107771000Y-107477885D01*
X108279000Y-107477885D01*
X108283475Y-107493124D01*
X108284865Y-107494329D01*
X108292548Y-107496000D01*
X109289884Y-107496000D01*
X109305123Y-107491525D01*
X109306328Y-107490135D01*
X109307999Y-107482452D01*
X109307999Y-107477885D01*
X114692000Y-107477885D01*
X114696475Y-107493124D01*
X114697865Y-107494329D01*
X114705548Y-107496000D01*
X115702885Y-107496000D01*
X115718124Y-107491525D01*
X115719329Y-107490135D01*
X115721000Y-107482452D01*
X115721000Y-107477885D01*
X116229000Y-107477885D01*
X116233475Y-107493124D01*
X116234865Y-107494329D01*
X116242548Y-107496000D01*
X117239884Y-107496000D01*
X117255123Y-107491525D01*
X117256328Y-107490135D01*
X117257999Y-107482452D01*
X117257999Y-107055331D01*
X117257629Y-107048510D01*
X117252105Y-106997648D01*
X117248479Y-106982396D01*
X117203324Y-106861946D01*
X117194786Y-106846351D01*
X117118285Y-106744276D01*
X117105724Y-106731715D01*
X117003649Y-106655214D01*
X116988054Y-106646676D01*
X116867606Y-106601522D01*
X116852351Y-106597895D01*
X116801486Y-106592369D01*
X116794672Y-106592000D01*
X116247115Y-106592000D01*
X116231876Y-106596475D01*
X116230671Y-106597865D01*
X116229000Y-106605548D01*
X116229000Y-107477885D01*
X115721000Y-107477885D01*
X115721000Y-106610116D01*
X115716525Y-106594877D01*
X115715135Y-106593672D01*
X115707452Y-106592001D01*
X115155331Y-106592001D01*
X115148510Y-106592371D01*
X115097648Y-106597895D01*
X115082396Y-106601521D01*
X114961946Y-106646676D01*
X114946351Y-106655214D01*
X114844276Y-106731715D01*
X114831715Y-106744276D01*
X114755214Y-106846351D01*
X114746676Y-106861946D01*
X114701522Y-106982394D01*
X114697895Y-106997649D01*
X114692369Y-107048514D01*
X114692000Y-107055328D01*
X114692000Y-107477885D01*
X109307999Y-107477885D01*
X109307999Y-107055331D01*
X109307629Y-107048510D01*
X109302105Y-106997648D01*
X109298479Y-106982396D01*
X109253324Y-106861946D01*
X109244786Y-106846351D01*
X109168285Y-106744276D01*
X109155724Y-106731715D01*
X109053649Y-106655214D01*
X109038054Y-106646676D01*
X108917606Y-106601522D01*
X108902351Y-106597895D01*
X108851486Y-106592369D01*
X108844672Y-106592000D01*
X108297115Y-106592000D01*
X108281876Y-106596475D01*
X108280671Y-106597865D01*
X108279000Y-106605548D01*
X108279000Y-107477885D01*
X107771000Y-107477885D01*
X107771000Y-106610116D01*
X107766525Y-106594877D01*
X107765135Y-106593672D01*
X107757452Y-106592001D01*
X107205331Y-106592001D01*
X107198510Y-106592371D01*
X107147648Y-106597895D01*
X107132396Y-106601521D01*
X107011946Y-106646676D01*
X106996351Y-106655214D01*
X106894276Y-106731715D01*
X106881715Y-106744276D01*
X106805214Y-106846351D01*
X106796676Y-106861946D01*
X106751522Y-106982394D01*
X106747895Y-106997649D01*
X106742369Y-107048514D01*
X106742000Y-107055328D01*
X106742000Y-107477885D01*
X103230000Y-107477885D01*
X103230000Y-106595477D01*
X103250002Y-106527356D01*
X103303658Y-106480863D01*
X103326586Y-106472958D01*
X103344115Y-106468750D01*
X103467594Y-106439105D01*
X103472167Y-106437211D01*
X103682389Y-106350135D01*
X103682393Y-106350133D01*
X103686963Y-106348240D01*
X103691183Y-106345654D01*
X103885202Y-106226759D01*
X103885208Y-106226755D01*
X103889416Y-106224176D01*
X104069969Y-106069969D01*
X104224176Y-105889416D01*
X104226755Y-105885208D01*
X104226759Y-105885202D01*
X104345654Y-105691183D01*
X104348240Y-105686963D01*
X104390829Y-105584145D01*
X104437211Y-105472167D01*
X104437212Y-105472165D01*
X104439105Y-105467594D01*
X104463399Y-105366401D01*
X104493380Y-105241524D01*
X104493381Y-105241518D01*
X104494535Y-105236711D01*
X104513165Y-105000000D01*
X104512051Y-104985851D01*
X105486719Y-104985851D01*
X105487235Y-104991995D01*
X105499006Y-105132174D01*
X105503268Y-105182934D01*
X105525288Y-105259727D01*
X105529623Y-105274843D01*
X105557783Y-105373050D01*
X105560602Y-105378535D01*
X105608723Y-105472167D01*
X105648187Y-105548956D01*
X105771035Y-105703953D01*
X105921650Y-105832136D01*
X106094294Y-105928624D01*
X106282392Y-105989740D01*
X106478777Y-106013158D01*
X106484912Y-106012686D01*
X106484914Y-106012686D01*
X106669830Y-105998457D01*
X106669834Y-105998456D01*
X106675972Y-105997984D01*
X106866463Y-105944798D01*
X106871967Y-105942018D01*
X106871969Y-105942017D01*
X107037495Y-105858404D01*
X107037497Y-105858403D01*
X107042996Y-105855625D01*
X107198847Y-105733861D01*
X107328078Y-105584145D01*
X107425769Y-105412179D01*
X107488197Y-105224513D01*
X107512985Y-105028295D01*
X107513380Y-105000000D01*
X119486835Y-105000000D01*
X119487223Y-105004930D01*
X119487223Y-105004933D01*
X119489062Y-105028295D01*
X119505465Y-105236711D01*
X119506619Y-105241518D01*
X119506620Y-105241524D01*
X119536601Y-105366401D01*
X119560895Y-105467594D01*
X119562788Y-105472165D01*
X119562789Y-105472167D01*
X119609172Y-105584145D01*
X119651760Y-105686963D01*
X119654346Y-105691183D01*
X119773241Y-105885202D01*
X119773245Y-105885208D01*
X119775824Y-105889416D01*
X119930031Y-106069969D01*
X120110584Y-106224176D01*
X120114792Y-106226755D01*
X120114798Y-106226759D01*
X120308817Y-106345654D01*
X120313037Y-106348240D01*
X120317607Y-106350133D01*
X120317611Y-106350135D01*
X120527833Y-106437211D01*
X120532406Y-106439105D01*
X120612609Y-106458360D01*
X120758476Y-106493380D01*
X120758482Y-106493381D01*
X120763289Y-106494535D01*
X121000000Y-106513165D01*
X121236711Y-106494535D01*
X121241518Y-106493381D01*
X121241524Y-106493380D01*
X121387391Y-106458360D01*
X121467594Y-106439105D01*
X121472167Y-106437211D01*
X121682389Y-106350135D01*
X121682393Y-106350133D01*
X121686963Y-106348240D01*
X121691183Y-106345654D01*
X121885202Y-106226759D01*
X121885208Y-106226755D01*
X121889416Y-106224176D01*
X122069969Y-106069969D01*
X122224176Y-105889416D01*
X122226755Y-105885208D01*
X122226759Y-105885202D01*
X122345654Y-105691183D01*
X122348240Y-105686963D01*
X122390829Y-105584145D01*
X122437211Y-105472167D01*
X122437212Y-105472165D01*
X122439105Y-105467594D01*
X122463399Y-105366401D01*
X122493380Y-105241524D01*
X122493381Y-105241518D01*
X122494535Y-105236711D01*
X122513165Y-105000000D01*
X122494535Y-104763289D01*
X122486581Y-104730155D01*
X122440260Y-104537218D01*
X122439105Y-104532406D01*
X122431086Y-104513047D01*
X122350135Y-104317611D01*
X122350133Y-104317607D01*
X122348240Y-104313037D01*
X122323156Y-104272104D01*
X122226759Y-104114798D01*
X122226755Y-104114792D01*
X122224176Y-104110584D01*
X122069969Y-103930031D01*
X121889416Y-103775824D01*
X121885208Y-103773245D01*
X121885202Y-103773241D01*
X121691183Y-103654346D01*
X121686963Y-103651760D01*
X121682393Y-103649867D01*
X121682389Y-103649865D01*
X121472167Y-103562789D01*
X121472165Y-103562788D01*
X121467594Y-103560895D01*
X121387391Y-103541640D01*
X121241524Y-103506620D01*
X121241518Y-103506619D01*
X121236711Y-103505465D01*
X121000000Y-103486835D01*
X120763289Y-103505465D01*
X120758482Y-103506619D01*
X120758476Y-103506620D01*
X120612609Y-103541640D01*
X120532406Y-103560895D01*
X120527835Y-103562788D01*
X120527833Y-103562789D01*
X120317611Y-103649865D01*
X120317607Y-103649867D01*
X120313037Y-103651760D01*
X120308817Y-103654346D01*
X120114798Y-103773241D01*
X120114792Y-103773245D01*
X120110584Y-103775824D01*
X119930031Y-103930031D01*
X119775824Y-104110584D01*
X119773245Y-104114792D01*
X119773241Y-104114798D01*
X119676844Y-104272104D01*
X119651760Y-104313037D01*
X119649867Y-104317607D01*
X119649865Y-104317611D01*
X119568914Y-104513047D01*
X119560895Y-104532406D01*
X119559740Y-104537218D01*
X119513420Y-104730155D01*
X119505465Y-104763289D01*
X119487308Y-104993995D01*
X119486835Y-105000000D01*
X107513380Y-105000000D01*
X107494080Y-104803167D01*
X107436916Y-104613831D01*
X107344066Y-104439204D01*
X107244897Y-104317611D01*
X107222960Y-104290713D01*
X107222957Y-104290710D01*
X107219065Y-104285938D01*
X107212724Y-104280692D01*
X107071425Y-104163799D01*
X107071421Y-104163797D01*
X107066675Y-104159870D01*
X106892701Y-104065802D01*
X106703768Y-104007318D01*
X106697643Y-104006674D01*
X106697642Y-104006674D01*
X106513204Y-103987289D01*
X106513202Y-103987289D01*
X106507075Y-103986645D01*
X106424576Y-103994153D01*
X106316251Y-104004011D01*
X106316248Y-104004012D01*
X106310112Y-104004570D01*
X106304206Y-104006308D01*
X106304202Y-104006309D01*
X106199076Y-104037249D01*
X106120381Y-104060410D01*
X106114923Y-104063263D01*
X106114919Y-104063265D01*
X106031598Y-104106825D01*
X105945110Y-104152040D01*
X105790975Y-104275968D01*
X105663846Y-104427474D01*
X105660879Y-104432872D01*
X105660875Y-104432877D01*
X105603514Y-104537218D01*
X105568567Y-104600787D01*
X105566706Y-104606654D01*
X105566705Y-104606656D01*
X105560663Y-104625704D01*
X105508765Y-104789306D01*
X105486719Y-104985851D01*
X104512051Y-104985851D01*
X104494535Y-104763289D01*
X104486581Y-104730155D01*
X104440260Y-104537218D01*
X104439105Y-104532406D01*
X104431086Y-104513047D01*
X104350135Y-104317611D01*
X104350133Y-104317607D01*
X104348240Y-104313037D01*
X104323156Y-104272104D01*
X104226759Y-104114798D01*
X104226755Y-104114792D01*
X104224176Y-104110584D01*
X104069969Y-103930031D01*
X103889416Y-103775824D01*
X103885208Y-103773245D01*
X103885202Y-103773241D01*
X103691183Y-103654346D01*
X103686963Y-103651760D01*
X103682393Y-103649867D01*
X103682389Y-103649865D01*
X103472167Y-103562789D01*
X103472165Y-103562788D01*
X103467594Y-103560895D01*
X103326586Y-103527042D01*
X103265017Y-103491690D01*
X103232334Y-103428663D01*
X103230000Y-103404523D01*
X103230000Y-103348000D01*
X100634500Y-103348000D01*
X100566379Y-103327998D01*
X100519886Y-103274342D01*
X100508500Y-103222000D01*
X100508500Y-102053250D01*
X100510246Y-102032345D01*
X100512770Y-102017344D01*
X100512770Y-102017341D01*
X100513576Y-102012552D01*
X100513729Y-102000000D01*
X100513040Y-101995186D01*
X100513039Y-101995176D01*
X100512157Y-101989017D01*
X100511206Y-101962172D01*
X100523038Y-101796723D01*
X100525596Y-101778934D01*
X100566999Y-101588607D01*
X100572063Y-101571359D01*
X100640136Y-101388850D01*
X100647604Y-101372498D01*
X100740952Y-101201542D01*
X100750672Y-101186418D01*
X100867402Y-101030486D01*
X100879175Y-101016900D01*
X101016900Y-100879175D01*
X101030486Y-100867402D01*
X101186418Y-100750672D01*
X101201542Y-100740952D01*
X101372498Y-100647604D01*
X101388850Y-100640136D01*
X101571359Y-100572063D01*
X101588608Y-100566999D01*
X101778936Y-100525596D01*
X101796715Y-100523039D01*
X101958605Y-100511460D01*
X101976565Y-100512207D01*
X101984845Y-100512308D01*
X101993724Y-100513691D01*
X102025286Y-100509564D01*
X102041621Y-100508500D01*
X102150886Y-100508500D01*
X102219007Y-100528502D01*
G37*
G04 #@! TD.AperFunction*
M02*
