G04 #@! TF.GenerationSoftware,KiCad,Pcbnew,(6.0.5)*
G04 #@! TF.CreationDate,2022-05-11T01:06:37+02:00*
G04 #@! TF.ProjectId,HighBong_V2,48696768-426f-46e6-975f-56322e6b6963,rev?*
G04 #@! TF.SameCoordinates,Original*
G04 #@! TF.FileFunction,Soldermask,Top*
G04 #@! TF.FilePolarity,Negative*
%FSLAX46Y46*%
G04 Gerber Fmt 4.6, Leading zero omitted, Abs format (unit mm)*
G04 Created by KiCad (PCBNEW (6.0.5)) date 2022-05-11 01:06:37*
%MOMM*%
%LPD*%
G01*
G04 APERTURE LIST*
G04 Aperture macros list*
%AMRoundRect*
0 Rectangle with rounded corners*
0 $1 Rounding radius*
0 $2 $3 $4 $5 $6 $7 $8 $9 X,Y pos of 4 corners*
0 Add a 4 corners polygon primitive as box body*
4,1,4,$2,$3,$4,$5,$6,$7,$8,$9,$2,$3,0*
0 Add four circle primitives for the rounded corners*
1,1,$1+$1,$2,$3*
1,1,$1+$1,$4,$5*
1,1,$1+$1,$6,$7*
1,1,$1+$1,$8,$9*
0 Add four rect primitives between the rounded corners*
20,1,$1+$1,$2,$3,$4,$5,0*
20,1,$1+$1,$4,$5,$6,$7,0*
20,1,$1+$1,$6,$7,$8,$9,0*
20,1,$1+$1,$8,$9,$2,$3,0*%
G04 Aperture macros list end*
%ADD10RoundRect,0.250000X-0.350000X-0.450000X0.350000X-0.450000X0.350000X0.450000X-0.350000X0.450000X0*%
%ADD11R,1.700000X1.700000*%
%ADD12O,1.700000X1.700000*%
%ADD13RoundRect,0.150000X-0.150000X0.587500X-0.150000X-0.587500X0.150000X-0.587500X0.150000X0.587500X0*%
%ADD14RoundRect,0.250000X-0.450000X0.350000X-0.450000X-0.350000X0.450000X-0.350000X0.450000X0.350000X0*%
%ADD15R,1.550000X1.300000*%
%ADD16R,1.498600X0.698500*%
%ADD17R,0.797560X0.998220*%
%ADD18R,2.000000X1.500000*%
%ADD19R,2.000000X3.800000*%
G04 APERTURE END LIST*
D10*
X107712000Y-139192000D03*
X109712000Y-139192000D03*
D11*
X122174000Y-146802000D03*
D12*
X122174000Y-144262000D03*
X122174000Y-141722000D03*
X122174000Y-139182000D03*
D13*
X109916000Y-130888500D03*
X108016000Y-130888500D03*
X108966000Y-132763500D03*
D14*
X113538000Y-126762000D03*
X113538000Y-128762000D03*
D15*
X108025000Y-112250000D03*
X115975000Y-112250000D03*
X115975000Y-107750000D03*
X108025000Y-107750000D03*
D14*
X109728000Y-126746000D03*
X109728000Y-128746000D03*
D16*
X104101900Y-141516100D03*
X104101900Y-144513300D03*
X104101900Y-146011900D03*
D17*
X102953820Y-139616180D03*
X100754180Y-147911820D03*
X100754180Y-139616180D03*
X102953820Y-147911820D03*
D14*
X105918000Y-126762000D03*
X105918000Y-128762000D03*
D18*
X108610000Y-145274000D03*
X108610000Y-147574000D03*
D19*
X114910000Y-147574000D03*
D18*
X108610000Y-149874000D03*
D13*
X106106000Y-130888500D03*
X104206000Y-130888500D03*
X105156000Y-132763500D03*
X113726000Y-130888500D03*
X111826000Y-130888500D03*
X112776000Y-132763500D03*
X117536000Y-130888500D03*
X115636000Y-130888500D03*
X116586000Y-132763500D03*
D14*
X117348000Y-126762000D03*
X117348000Y-128762000D03*
M02*
