%FSLAX45Y45*%
G04 Gerber Fmt 4.5, Leading zero omitted, Abs format (unit mm)*
G04 Created by KiCad (PCBNEW (6.0.5)) date 2022-05-11 01:06:50*
%MOMM*%
%LPD*%
G01*
G04 APERTURE LIST*
%TA.AperFunction,Profile*%
%ADD10C,0.100000*%
%TD*%
%ADD11C,0.200000*%
G04 APERTURE END LIST*
D10*
X10357600Y-10150000D02*
G75*
G03*
X10357600Y-10150000I-57600J0D01*
G01*
X12157600Y-15350000D02*
G75*
G03*
X12157600Y-15350000I-57600J0D01*
G01*
X10200000Y-15500000D02*
X12200000Y-15500000D01*
X10700000Y-10500000D02*
G75*
G03*
X10700000Y-10500000I-50000J0D01*
G01*
X12200000Y-10500000D02*
G75*
G03*
X12200000Y-10500000I-100000J0D01*
G01*
X12400000Y-10200000D02*
X12400000Y-15300000D01*
X10400000Y-15100000D02*
G75*
G03*
X10400000Y-15100000I-100000J0D01*
G01*
X12200000Y-15500000D02*
G75*
G03*
X12400000Y-15300000I0J200000D01*
G01*
X10200000Y-10000000D02*
G75*
G03*
X10000000Y-10200000I0J-200000D01*
G01*
X10000000Y-15300000D02*
G75*
G03*
X10200000Y-15500000I200000J0D01*
G01*
X12400000Y-10200000D02*
G75*
G03*
X12200000Y-10000000I-200000J0D01*
G01*
X10400000Y-10500000D02*
G75*
G03*
X10400000Y-10500000I-100000J0D01*
G01*
X10200000Y-10000000D02*
X12200000Y-10000000D01*
X12200000Y-15100000D02*
G75*
G03*
X12200000Y-15100000I-100000J0D01*
G01*
X10000000Y-15300000D02*
X10000000Y-10200000D01*
D11*
X10252619Y-15815476D02*
X10252619Y-15615476D01*
X10300238Y-15615476D01*
X10328810Y-15625000D01*
X10347857Y-15644048D01*
X10357381Y-15663095D01*
X10366905Y-15701190D01*
X10366905Y-15729762D01*
X10357381Y-15767857D01*
X10347857Y-15786905D01*
X10328810Y-15805952D01*
X10300238Y-15815476D01*
X10252619Y-15815476D01*
X10452619Y-15815476D02*
X10452619Y-15682143D01*
X10452619Y-15720238D02*
X10462143Y-15701190D01*
X10471667Y-15691667D01*
X10490714Y-15682143D01*
X10509762Y-15682143D01*
X10576429Y-15815476D02*
X10576429Y-15682143D01*
X10576429Y-15615476D02*
X10566905Y-15625000D01*
X10576429Y-15634524D01*
X10585952Y-15625000D01*
X10576429Y-15615476D01*
X10576429Y-15634524D01*
X10700238Y-15815476D02*
X10681190Y-15805952D01*
X10671667Y-15786905D01*
X10671667Y-15615476D01*
X10805000Y-15815476D02*
X10785952Y-15805952D01*
X10776429Y-15786905D01*
X10776429Y-15615476D01*
X11033571Y-15815476D02*
X11033571Y-15615476D01*
X11100238Y-15758333D01*
X11166905Y-15615476D01*
X11166905Y-15815476D01*
X11347857Y-15815476D02*
X11347857Y-15710714D01*
X11338333Y-15691667D01*
X11319286Y-15682143D01*
X11281190Y-15682143D01*
X11262143Y-15691667D01*
X11347857Y-15805952D02*
X11328809Y-15815476D01*
X11281190Y-15815476D01*
X11262143Y-15805952D01*
X11252619Y-15786905D01*
X11252619Y-15767857D01*
X11262143Y-15748809D01*
X11281190Y-15739286D01*
X11328809Y-15739286D01*
X11347857Y-15729762D01*
X11443095Y-15682143D02*
X11443095Y-15882143D01*
X11443095Y-15691667D02*
X11462143Y-15682143D01*
X11500238Y-15682143D01*
X11519286Y-15691667D01*
X11528809Y-15701190D01*
X11538333Y-15720238D01*
X11538333Y-15777381D01*
X11528809Y-15796428D01*
X11519286Y-15805952D01*
X11500238Y-15815476D01*
X11462143Y-15815476D01*
X11443095Y-15805952D01*
X11624048Y-15796428D02*
X11633571Y-15805952D01*
X11624048Y-15815476D01*
X11614524Y-15805952D01*
X11624048Y-15796428D01*
X11624048Y-15815476D01*
X11624048Y-15691667D02*
X11633571Y-15701190D01*
X11624048Y-15710714D01*
X11614524Y-15701190D01*
X11624048Y-15691667D01*
X11624048Y-15710714D01*
M02*
