G04 #@! TF.GenerationSoftware,KiCad,Pcbnew,(6.0.5)*
G04 #@! TF.CreationDate,2022-05-21T23:03:55+02:00*
G04 #@! TF.ProjectId,HighBong_V2,48696768-426f-46e6-975f-56322e6b6963,rev?*
G04 #@! TF.SameCoordinates,Original*
G04 #@! TF.FileFunction,Copper,L1,Top*
G04 #@! TF.FilePolarity,Positive*
%FSLAX46Y46*%
G04 Gerber Fmt 4.6, Leading zero omitted, Abs format (unit mm)*
G04 Created by KiCad (PCBNEW (6.0.5)) date 2022-05-21 23:03:55*
%MOMM*%
%LPD*%
G01*
G04 APERTURE LIST*
G04 Aperture macros list*
%AMRoundRect*
0 Rectangle with rounded corners*
0 $1 Rounding radius*
0 $2 $3 $4 $5 $6 $7 $8 $9 X,Y pos of 4 corners*
0 Add a 4 corners polygon primitive as box body*
4,1,4,$2,$3,$4,$5,$6,$7,$8,$9,$2,$3,0*
0 Add four circle primitives for the rounded corners*
1,1,$1+$1,$2,$3*
1,1,$1+$1,$4,$5*
1,1,$1+$1,$6,$7*
1,1,$1+$1,$8,$9*
0 Add four rect primitives between the rounded corners*
20,1,$1+$1,$2,$3,$4,$5,0*
20,1,$1+$1,$4,$5,$6,$7,0*
20,1,$1+$1,$6,$7,$8,$9,0*
20,1,$1+$1,$8,$9,$2,$3,0*%
G04 Aperture macros list end*
G04 #@! TA.AperFunction,SMDPad,CuDef*
%ADD10RoundRect,0.250000X-0.350000X-0.450000X0.350000X-0.450000X0.350000X0.450000X-0.350000X0.450000X0*%
G04 #@! TD*
G04 #@! TA.AperFunction,ComponentPad*
%ADD11R,1.700000X1.700000*%
G04 #@! TD*
G04 #@! TA.AperFunction,ComponentPad*
%ADD12O,1.700000X1.700000*%
G04 #@! TD*
G04 #@! TA.AperFunction,SMDPad,CuDef*
%ADD13RoundRect,0.150000X-0.150000X0.587500X-0.150000X-0.587500X0.150000X-0.587500X0.150000X0.587500X0*%
G04 #@! TD*
G04 #@! TA.AperFunction,SMDPad,CuDef*
%ADD14RoundRect,0.250000X-0.450000X0.350000X-0.450000X-0.350000X0.450000X-0.350000X0.450000X0.350000X0*%
G04 #@! TD*
G04 #@! TA.AperFunction,SMDPad,CuDef*
%ADD15R,1.550000X1.300000*%
G04 #@! TD*
G04 #@! TA.AperFunction,SMDPad,CuDef*
%ADD16R,1.498600X0.698500*%
G04 #@! TD*
G04 #@! TA.AperFunction,SMDPad,CuDef*
%ADD17R,0.797560X0.998220*%
G04 #@! TD*
G04 #@! TA.AperFunction,SMDPad,CuDef*
%ADD18R,2.000000X1.500000*%
G04 #@! TD*
G04 #@! TA.AperFunction,SMDPad,CuDef*
%ADD19R,2.000000X3.800000*%
G04 #@! TD*
G04 #@! TA.AperFunction,ViaPad*
%ADD20C,0.800000*%
G04 #@! TD*
G04 #@! TA.AperFunction,Conductor*
%ADD21C,0.250000*%
G04 #@! TD*
G04 APERTURE END LIST*
D10*
X107712000Y-139192000D03*
X109712000Y-139192000D03*
D11*
X122174000Y-146802000D03*
D12*
X122174000Y-144262000D03*
X122174000Y-141722000D03*
X122174000Y-139182000D03*
D13*
X109916000Y-130888500D03*
X108016000Y-130888500D03*
X108966000Y-132763500D03*
D14*
X113538000Y-126762000D03*
X113538000Y-128762000D03*
D15*
X108025000Y-112250000D03*
X115975000Y-112250000D03*
X115975000Y-107750000D03*
X108025000Y-107750000D03*
D14*
X109728000Y-126746000D03*
X109728000Y-128746000D03*
D16*
X104101900Y-141008100D03*
X104101900Y-144005300D03*
X104101900Y-145503900D03*
D17*
X100754180Y-139108180D03*
X100754180Y-147403820D03*
X102953820Y-139108180D03*
X102953820Y-147403820D03*
D14*
X105918000Y-126762000D03*
X105918000Y-128762000D03*
D18*
X108610000Y-145274000D03*
X108610000Y-147574000D03*
D19*
X114910000Y-147574000D03*
D18*
X108610000Y-149874000D03*
D13*
X106106000Y-130888500D03*
X104206000Y-130888500D03*
X105156000Y-132763500D03*
X113726000Y-130888500D03*
X111826000Y-130888500D03*
X112776000Y-132763500D03*
X117536000Y-130888500D03*
X115636000Y-130888500D03*
X116586000Y-132763500D03*
D14*
X117348000Y-126762000D03*
X117348000Y-128762000D03*
D20*
X122682000Y-109728000D03*
X104206000Y-128966000D03*
X112522000Y-145288000D03*
X122174000Y-135382000D03*
X118364000Y-122936000D03*
X115570000Y-141224000D03*
X106172000Y-110998000D03*
X117602000Y-136398000D03*
X106426000Y-133858000D03*
X114300000Y-122936000D03*
X110744000Y-152892000D03*
X109728000Y-133858000D03*
X111760000Y-133858000D03*
X114300000Y-133858000D03*
X116375000Y-122979000D03*
X111760000Y-122936000D03*
X108712000Y-122936000D03*
D21*
X111826000Y-130888500D02*
X112309572Y-130888500D01*
X108507428Y-130888500D02*
X108016000Y-130888500D01*
X102900000Y-141300000D02*
X102900000Y-143800000D01*
X122174000Y-139182000D02*
X121148000Y-140208000D01*
X113501072Y-132080000D02*
X114444500Y-132080000D01*
X115975000Y-107750000D02*
X120704000Y-107750000D01*
X122428000Y-109474000D02*
X122682000Y-109728000D01*
X110763980Y-131950520D02*
X109569448Y-131950520D01*
X104101900Y-144005300D02*
X107341300Y-144005300D01*
X102900000Y-143800000D02*
X103105300Y-144005300D01*
X121148000Y-140208000D02*
X114046000Y-140208000D01*
X108025000Y-107750000D02*
X115975000Y-107750000D01*
X103105300Y-144005300D02*
X104101900Y-144005300D01*
X101800000Y-140200000D02*
X102900000Y-141300000D01*
X104206000Y-130888500D02*
X104206000Y-128966000D01*
X104206000Y-130888500D02*
X104697428Y-130888500D01*
X120704000Y-107750000D02*
X122428000Y-109474000D01*
X114444500Y-132080000D02*
X115636000Y-130888500D01*
X114046000Y-140208000D02*
X112522000Y-141732000D01*
X106953980Y-131950520D02*
X108016000Y-130888500D01*
X111826000Y-130888500D02*
X110763980Y-131950520D01*
X101800000Y-133294500D02*
X101800000Y-140200000D01*
X107341300Y-144005300D02*
X108610000Y-145274000D01*
X104206000Y-130888500D02*
X101800000Y-133294500D01*
X104697428Y-130888500D02*
X105759448Y-131950520D01*
X112522000Y-145288000D02*
X112508000Y-145274000D01*
X109569448Y-131950520D02*
X108507428Y-130888500D01*
X112309572Y-130888500D02*
X113501072Y-132080000D01*
X112522000Y-141732000D02*
X112522000Y-145288000D01*
X112508000Y-145274000D02*
X108610000Y-145274000D01*
X105759448Y-131950520D02*
X106953980Y-131950520D01*
X105918000Y-139192000D02*
X104101900Y-141008100D01*
X107712000Y-139192000D02*
X105918000Y-139192000D01*
X109712000Y-139192000D02*
X118364000Y-139192000D01*
X118364000Y-139192000D02*
X122174000Y-135382000D01*
X118364000Y-122936000D02*
X118364000Y-125746000D01*
X118364000Y-125746000D02*
X117348000Y-126762000D01*
X114910000Y-147574000D02*
X114910000Y-141884000D01*
X120142000Y-112014000D02*
X120142000Y-133858000D01*
X120142000Y-133858000D02*
X117602000Y-136398000D01*
X107188000Y-109982000D02*
X118110000Y-109982000D01*
X118110000Y-109982000D02*
X120142000Y-112014000D01*
X114910000Y-141884000D02*
X115570000Y-141224000D01*
X108610000Y-147574000D02*
X114910000Y-147574000D01*
X106172000Y-110998000D02*
X107188000Y-109982000D01*
X115682000Y-146802000D02*
X114910000Y-147574000D01*
X122174000Y-146802000D02*
X115682000Y-146802000D01*
X105331500Y-132763500D02*
X106426000Y-133858000D01*
X105156000Y-132763500D02*
X105331500Y-132763500D01*
X113538000Y-123698000D02*
X114300000Y-122936000D01*
X113538000Y-126762000D02*
X113538000Y-124206000D01*
X113538000Y-124206000D02*
X113538000Y-123698000D01*
X110744000Y-152892000D02*
X108950000Y-152892000D01*
X108950000Y-152892000D02*
X108610000Y-152552000D01*
X108610000Y-152552000D02*
X108610000Y-149874000D01*
X108966000Y-133096000D02*
X109728000Y-133858000D01*
X108966000Y-132763500D02*
X108966000Y-133096000D01*
X112776000Y-132763500D02*
X112776000Y-132842000D01*
X112776000Y-132842000D02*
X111760000Y-133858000D01*
X116586000Y-132763500D02*
X115394500Y-132763500D01*
X115394500Y-132763500D02*
X114300000Y-133858000D01*
X117348000Y-128762000D02*
X117348000Y-130700500D01*
X117348000Y-130700500D02*
X117536000Y-130888500D01*
X113538000Y-130700500D02*
X113726000Y-130888500D01*
X113538000Y-128762000D02*
X113538000Y-130700500D01*
X109728000Y-128746000D02*
X109728000Y-130700500D01*
X109728000Y-130700500D02*
X109916000Y-130888500D01*
X105918000Y-130700500D02*
X106106000Y-130888500D01*
X105918000Y-128762000D02*
X105918000Y-130700500D01*
X108025000Y-112250000D02*
X115975000Y-112250000D01*
X116375000Y-122979000D02*
X116375000Y-112650000D01*
X116375000Y-112650000D02*
X115975000Y-112250000D01*
X110998000Y-122936000D02*
X111760000Y-122936000D01*
X109728000Y-124206000D02*
X110998000Y-122936000D01*
X109728000Y-126746000D02*
X109728000Y-124206000D01*
X105918000Y-124206000D02*
X107188000Y-122936000D01*
X107188000Y-122936000D02*
X108712000Y-122936000D01*
X105918000Y-126762000D02*
X105918000Y-124206000D01*
G04 #@! TA.AperFunction,Conductor*
G36*
X102319007Y-100528502D02*
G01*
X102365500Y-100582158D01*
X102375604Y-100652432D01*
X102346110Y-100717012D01*
X102333964Y-100729231D01*
X102309961Y-100750281D01*
X102186565Y-100906809D01*
X102093760Y-101083202D01*
X102034654Y-101273554D01*
X102011227Y-101471489D01*
X102013096Y-101500000D01*
X102024263Y-101670380D01*
X102025684Y-101675976D01*
X102025685Y-101675981D01*
X102054068Y-101787737D01*
X102073326Y-101863564D01*
X102075743Y-101868807D01*
X102131160Y-101989017D01*
X102156772Y-102044573D01*
X102271807Y-102207344D01*
X102414578Y-102346425D01*
X102580304Y-102457160D01*
X102585607Y-102459438D01*
X102585610Y-102459440D01*
X102758128Y-102533559D01*
X102763435Y-102535839D01*
X102835516Y-102552149D01*
X102952201Y-102578553D01*
X102952207Y-102578554D01*
X102957838Y-102579828D01*
X102963609Y-102580055D01*
X102963611Y-102580055D01*
X103024556Y-102582449D01*
X103157001Y-102587653D01*
X103256959Y-102573160D01*
X103348535Y-102559883D01*
X103348540Y-102559882D01*
X103354256Y-102559053D01*
X103359728Y-102557195D01*
X103359730Y-102557195D01*
X103537532Y-102496839D01*
X103537534Y-102496838D01*
X103542996Y-102494984D01*
X103716899Y-102397594D01*
X103870143Y-102270143D01*
X103997594Y-102116899D01*
X104094984Y-101942996D01*
X104159053Y-101754256D01*
X104159882Y-101748540D01*
X104159883Y-101748535D01*
X104185571Y-101571359D01*
X104187653Y-101557001D01*
X104189146Y-101500000D01*
X104170908Y-101301519D01*
X104142712Y-101201542D01*
X104118373Y-101115244D01*
X104118372Y-101115242D01*
X104116805Y-101109685D01*
X104103746Y-101083202D01*
X104031205Y-100936104D01*
X104028650Y-100930923D01*
X103909393Y-100771219D01*
X103861581Y-100727022D01*
X103825138Y-100666096D01*
X103827419Y-100595136D01*
X103867701Y-100536674D01*
X103933196Y-100509271D01*
X103947112Y-100508500D01*
X121950633Y-100508500D01*
X121970018Y-100510000D01*
X121984851Y-100512310D01*
X121984855Y-100512310D01*
X121993724Y-100513691D01*
X122008981Y-100511696D01*
X122034302Y-100510953D01*
X122203285Y-100523039D01*
X122221064Y-100525596D01*
X122411392Y-100566999D01*
X122428641Y-100572063D01*
X122611150Y-100640136D01*
X122627502Y-100647604D01*
X122798458Y-100740952D01*
X122813582Y-100750672D01*
X122969514Y-100867402D01*
X122983100Y-100879175D01*
X123120825Y-101016900D01*
X123132598Y-101030486D01*
X123249328Y-101186418D01*
X123259048Y-101201542D01*
X123352396Y-101372498D01*
X123359864Y-101388850D01*
X123427937Y-101571359D01*
X123433001Y-101588607D01*
X123474404Y-101778936D01*
X123476961Y-101796715D01*
X123488540Y-101958601D01*
X123487793Y-101976565D01*
X123487692Y-101984845D01*
X123486309Y-101993724D01*
X123487474Y-102002630D01*
X123490436Y-102025283D01*
X123491500Y-102041621D01*
X123491500Y-138291558D01*
X123471498Y-138359679D01*
X123417842Y-138406172D01*
X123347568Y-138416276D01*
X123282988Y-138386782D01*
X123259709Y-138359999D01*
X123256429Y-138354929D01*
X123250136Y-138346757D01*
X123106806Y-138189240D01*
X123099273Y-138182215D01*
X122932139Y-138050222D01*
X122923552Y-138044517D01*
X122737117Y-137941599D01*
X122727705Y-137937369D01*
X122526959Y-137866280D01*
X122516988Y-137863646D01*
X122445837Y-137850972D01*
X122432540Y-137852432D01*
X122428000Y-137866989D01*
X122428000Y-139310000D01*
X122407998Y-139378121D01*
X122354342Y-139424614D01*
X122302000Y-139436000D01*
X120857225Y-139436000D01*
X120843694Y-139439973D01*
X120842257Y-139449966D01*
X120872565Y-139584446D01*
X120875645Y-139594275D01*
X120955770Y-139791603D01*
X120960413Y-139800794D01*
X121071694Y-139982388D01*
X121077777Y-139990699D01*
X121217213Y-140151667D01*
X121224580Y-140158883D01*
X121388434Y-140294916D01*
X121396881Y-140300831D01*
X121465969Y-140341203D01*
X121514693Y-140392842D01*
X121527764Y-140462625D01*
X121501033Y-140528396D01*
X121460584Y-140561752D01*
X121447607Y-140568507D01*
X121443474Y-140571610D01*
X121443471Y-140571612D01*
X121274613Y-140698394D01*
X121268965Y-140702635D01*
X121114629Y-140864138D01*
X120988743Y-141048680D01*
X120948568Y-141135230D01*
X120904367Y-141230454D01*
X120894688Y-141251305D01*
X120834989Y-141466570D01*
X120811251Y-141688695D01*
X120811548Y-141693848D01*
X120811548Y-141693851D01*
X120821444Y-141865481D01*
X120824110Y-141911715D01*
X120825247Y-141916761D01*
X120825248Y-141916767D01*
X120825936Y-141919819D01*
X120873222Y-142129639D01*
X120911461Y-142223811D01*
X120947526Y-142312628D01*
X120957266Y-142336616D01*
X120959965Y-142341020D01*
X121051722Y-142490754D01*
X121073987Y-142527088D01*
X121220250Y-142695938D01*
X121392126Y-142838632D01*
X121462595Y-142879811D01*
X121465445Y-142881476D01*
X121514169Y-142933114D01*
X121527240Y-143002897D01*
X121500509Y-143068669D01*
X121460055Y-143102027D01*
X121447607Y-143108507D01*
X121443474Y-143111610D01*
X121443471Y-143111612D01*
X121310747Y-143211264D01*
X121268965Y-143242635D01*
X121114629Y-143404138D01*
X120988743Y-143588680D01*
X120941715Y-143689993D01*
X120913258Y-143751300D01*
X120894688Y-143791305D01*
X120834989Y-144006570D01*
X120811251Y-144228695D01*
X120811548Y-144233848D01*
X120811548Y-144233851D01*
X120813540Y-144268396D01*
X120824110Y-144451715D01*
X120825247Y-144456761D01*
X120825248Y-144456767D01*
X120847289Y-144554566D01*
X120873222Y-144669639D01*
X120957266Y-144876616D01*
X120981617Y-144916353D01*
X121064858Y-145052190D01*
X121073987Y-145067088D01*
X121220250Y-145235938D01*
X121224230Y-145239242D01*
X121228981Y-145243187D01*
X121268616Y-145302090D01*
X121270113Y-145373071D01*
X121232997Y-145433593D01*
X121192724Y-145458112D01*
X121077295Y-145501385D01*
X120960739Y-145588739D01*
X120873385Y-145705295D01*
X120822255Y-145841684D01*
X120815500Y-145903866D01*
X120815500Y-146042500D01*
X120795498Y-146110621D01*
X120741842Y-146157114D01*
X120689500Y-146168500D01*
X116544500Y-146168500D01*
X116476379Y-146148498D01*
X116429886Y-146094842D01*
X116418500Y-146042500D01*
X116418500Y-145625866D01*
X116411745Y-145563684D01*
X116360615Y-145427295D01*
X116273261Y-145310739D01*
X116156705Y-145223385D01*
X116020316Y-145172255D01*
X115958134Y-145165500D01*
X115669500Y-145165500D01*
X115601379Y-145145498D01*
X115554886Y-145091842D01*
X115543500Y-145039500D01*
X115543500Y-142258078D01*
X115563502Y-142189957D01*
X115617158Y-142143464D01*
X115656333Y-142132768D01*
X115658884Y-142132500D01*
X115665487Y-142132500D01*
X115671940Y-142131128D01*
X115671943Y-142131128D01*
X115734513Y-142117828D01*
X115852288Y-142092794D01*
X115928164Y-142059012D01*
X116020722Y-142017803D01*
X116020724Y-142017802D01*
X116026752Y-142015118D01*
X116181253Y-141902866D01*
X116185675Y-141897955D01*
X116304621Y-141765852D01*
X116304622Y-141765851D01*
X116309040Y-141760944D01*
X116395471Y-141611241D01*
X116401223Y-141601279D01*
X116401224Y-141601278D01*
X116404527Y-141595556D01*
X116463542Y-141413928D01*
X116464430Y-141405484D01*
X116482814Y-141230565D01*
X116483504Y-141224000D01*
X116466105Y-141058453D01*
X116464232Y-141040635D01*
X116464232Y-141040633D01*
X116463542Y-141034072D01*
X116404527Y-140852444D01*
X116309040Y-140687056D01*
X116257913Y-140630273D01*
X116185675Y-140550045D01*
X116185674Y-140550044D01*
X116181253Y-140545134D01*
X116067690Y-140462625D01*
X116032094Y-140436763D01*
X116032093Y-140436762D01*
X116026752Y-140432882D01*
X116020724Y-140430198D01*
X116020722Y-140430197D01*
X115858319Y-140357891D01*
X115858318Y-140357891D01*
X115852288Y-140355206D01*
X115734998Y-140330275D01*
X115671944Y-140316872D01*
X115671939Y-140316872D01*
X115665487Y-140315500D01*
X115474513Y-140315500D01*
X115468061Y-140316872D01*
X115468056Y-140316872D01*
X115405002Y-140330275D01*
X115287712Y-140355206D01*
X115281682Y-140357891D01*
X115281681Y-140357891D01*
X115119278Y-140430197D01*
X115119276Y-140430198D01*
X115113248Y-140432882D01*
X115107907Y-140436762D01*
X115107906Y-140436763D01*
X115072310Y-140462625D01*
X114958747Y-140545134D01*
X114954326Y-140550044D01*
X114954325Y-140550045D01*
X114882088Y-140630273D01*
X114830960Y-140687056D01*
X114735473Y-140852444D01*
X114676458Y-141034072D01*
X114675768Y-141040633D01*
X114675768Y-141040635D01*
X114659093Y-141199292D01*
X114632080Y-141264949D01*
X114622878Y-141275217D01*
X114517747Y-141380348D01*
X114509461Y-141387888D01*
X114502982Y-141392000D01*
X114497557Y-141397777D01*
X114456357Y-141441651D01*
X114453602Y-141444493D01*
X114433865Y-141464230D01*
X114431385Y-141467427D01*
X114423682Y-141476447D01*
X114393414Y-141508679D01*
X114389595Y-141515625D01*
X114389593Y-141515628D01*
X114383652Y-141526434D01*
X114372801Y-141542953D01*
X114360386Y-141558959D01*
X114357241Y-141566228D01*
X114357238Y-141566232D01*
X114342826Y-141599537D01*
X114337609Y-141610187D01*
X114316305Y-141648940D01*
X114314334Y-141656615D01*
X114314334Y-141656616D01*
X114311267Y-141668562D01*
X114304863Y-141687266D01*
X114302014Y-141693851D01*
X114296819Y-141705855D01*
X114295580Y-141713678D01*
X114295577Y-141713688D01*
X114289901Y-141749524D01*
X114287495Y-141761144D01*
X114278472Y-141796289D01*
X114276500Y-141803970D01*
X114276500Y-141824224D01*
X114274949Y-141843934D01*
X114271780Y-141863943D01*
X114272526Y-141871835D01*
X114275941Y-141907961D01*
X114276500Y-141919819D01*
X114276500Y-145039500D01*
X114256498Y-145107621D01*
X114202842Y-145154114D01*
X114150500Y-145165500D01*
X113861866Y-145165500D01*
X113799684Y-145172255D01*
X113663295Y-145223385D01*
X113546739Y-145310739D01*
X113459385Y-145427295D01*
X113408255Y-145563684D01*
X113401500Y-145625866D01*
X113401500Y-146814500D01*
X113381498Y-146882621D01*
X113327842Y-146929114D01*
X113275500Y-146940500D01*
X110244500Y-146940500D01*
X110176379Y-146920498D01*
X110129886Y-146866842D01*
X110118500Y-146814500D01*
X110118500Y-146775866D01*
X110111745Y-146713684D01*
X110060615Y-146577295D01*
X110002047Y-146499148D01*
X109977199Y-146432642D01*
X109992252Y-146363259D01*
X110002047Y-146348018D01*
X110054786Y-146277648D01*
X110063324Y-146262054D01*
X110108478Y-146141606D01*
X110112105Y-146126351D01*
X110117631Y-146075486D01*
X110118000Y-146068672D01*
X110118000Y-145546115D01*
X110113525Y-145530876D01*
X110112135Y-145529671D01*
X110104452Y-145528000D01*
X107120116Y-145528000D01*
X107104877Y-145532475D01*
X107103672Y-145533865D01*
X107102001Y-145541548D01*
X107102001Y-146068669D01*
X107102371Y-146075490D01*
X107107895Y-146126352D01*
X107111521Y-146141604D01*
X107156676Y-146262054D01*
X107165214Y-146277648D01*
X107217953Y-146348018D01*
X107242801Y-146414524D01*
X107227748Y-146483907D01*
X107217953Y-146499148D01*
X107159385Y-146577295D01*
X107108255Y-146713684D01*
X107101500Y-146775866D01*
X107101500Y-148372134D01*
X107108255Y-148434316D01*
X107159385Y-148570705D01*
X107164770Y-148577890D01*
X107164771Y-148577892D01*
X107217640Y-148648435D01*
X107242488Y-148714942D01*
X107227435Y-148784324D01*
X107217640Y-148799565D01*
X107159385Y-148877295D01*
X107108255Y-149013684D01*
X107101500Y-149075866D01*
X107101500Y-150672134D01*
X107108255Y-150734316D01*
X107159385Y-150870705D01*
X107246739Y-150987261D01*
X107363295Y-151074615D01*
X107499684Y-151125745D01*
X107561866Y-151132500D01*
X107850500Y-151132500D01*
X107918621Y-151152502D01*
X107965114Y-151206158D01*
X107976500Y-151258500D01*
X107976500Y-152473233D01*
X107975973Y-152484416D01*
X107974298Y-152491909D01*
X107974547Y-152499835D01*
X107974547Y-152499836D01*
X107976438Y-152559986D01*
X107976500Y-152563945D01*
X107976500Y-152591856D01*
X107976997Y-152595790D01*
X107976997Y-152595791D01*
X107977005Y-152595856D01*
X107977938Y-152607693D01*
X107979327Y-152651889D01*
X107984978Y-152671339D01*
X107988987Y-152690700D01*
X107991526Y-152710797D01*
X107994445Y-152718168D01*
X107994445Y-152718170D01*
X108007804Y-152751912D01*
X108011649Y-152763142D01*
X108023982Y-152805593D01*
X108028015Y-152812412D01*
X108028017Y-152812417D01*
X108034293Y-152823028D01*
X108042988Y-152840776D01*
X108050448Y-152859617D01*
X108055110Y-152866033D01*
X108055110Y-152866034D01*
X108076436Y-152895387D01*
X108082952Y-152905307D01*
X108101166Y-152936104D01*
X108105458Y-152943362D01*
X108119779Y-152957683D01*
X108132619Y-152972716D01*
X108144528Y-152989107D01*
X108172868Y-153012552D01*
X108178605Y-153017298D01*
X108187384Y-153025288D01*
X108446343Y-153284247D01*
X108453887Y-153292537D01*
X108458000Y-153299018D01*
X108463777Y-153304443D01*
X108507667Y-153345658D01*
X108510509Y-153348413D01*
X108530231Y-153368135D01*
X108533355Y-153370558D01*
X108533359Y-153370562D01*
X108533424Y-153370612D01*
X108542445Y-153378317D01*
X108574679Y-153408586D01*
X108581627Y-153412405D01*
X108581629Y-153412407D01*
X108592432Y-153418346D01*
X108608959Y-153429202D01*
X108618698Y-153436757D01*
X108618700Y-153436758D01*
X108624960Y-153441614D01*
X108665540Y-153459174D01*
X108676188Y-153464391D01*
X108699588Y-153477255D01*
X108714940Y-153485695D01*
X108722616Y-153487666D01*
X108722619Y-153487667D01*
X108734562Y-153490733D01*
X108753267Y-153497137D01*
X108771855Y-153505181D01*
X108779678Y-153506420D01*
X108779688Y-153506423D01*
X108815524Y-153512099D01*
X108827144Y-153514505D01*
X108862289Y-153523528D01*
X108869970Y-153525500D01*
X108890224Y-153525500D01*
X108909934Y-153527051D01*
X108929943Y-153530220D01*
X108937835Y-153529474D01*
X108973961Y-153526059D01*
X108985819Y-153525500D01*
X110035800Y-153525500D01*
X110103921Y-153545502D01*
X110123147Y-153561843D01*
X110123420Y-153561540D01*
X110128332Y-153565963D01*
X110132747Y-153570866D01*
X110154329Y-153586546D01*
X110269716Y-153670380D01*
X110287248Y-153683118D01*
X110293276Y-153685802D01*
X110293278Y-153685803D01*
X110447027Y-153754256D01*
X110461712Y-153760794D01*
X110555113Y-153780647D01*
X110642056Y-153799128D01*
X110642061Y-153799128D01*
X110648513Y-153800500D01*
X110839487Y-153800500D01*
X110845939Y-153799128D01*
X110845944Y-153799128D01*
X110932887Y-153780647D01*
X111026288Y-153760794D01*
X111040973Y-153754256D01*
X111194722Y-153685803D01*
X111194724Y-153685802D01*
X111200752Y-153683118D01*
X111355253Y-153570866D01*
X111391851Y-153530220D01*
X111478621Y-153433852D01*
X111478622Y-153433851D01*
X111483040Y-153428944D01*
X111559820Y-153295958D01*
X111575223Y-153269279D01*
X111575224Y-153269278D01*
X111578527Y-153263556D01*
X111637542Y-153081928D01*
X111645210Y-153008976D01*
X111656814Y-152898565D01*
X111657504Y-152892000D01*
X111643961Y-152763142D01*
X111638232Y-152708635D01*
X111638232Y-152708633D01*
X111637542Y-152702072D01*
X111578527Y-152520444D01*
X111483040Y-152355056D01*
X111355253Y-152213134D01*
X111200752Y-152100882D01*
X111194724Y-152098198D01*
X111194722Y-152098197D01*
X111032319Y-152025891D01*
X111032318Y-152025891D01*
X111026288Y-152023206D01*
X110932887Y-152003353D01*
X110845944Y-151984872D01*
X110845939Y-151984872D01*
X110839487Y-151983500D01*
X110648513Y-151983500D01*
X110642061Y-151984872D01*
X110642056Y-151984872D01*
X110555113Y-152003353D01*
X110461712Y-152023206D01*
X110455682Y-152025891D01*
X110455681Y-152025891D01*
X110293278Y-152098197D01*
X110293276Y-152098198D01*
X110287248Y-152100882D01*
X110132747Y-152213134D01*
X110128332Y-152218037D01*
X110123420Y-152222460D01*
X110122295Y-152221211D01*
X110068986Y-152254051D01*
X110035800Y-152258500D01*
X109369500Y-152258500D01*
X109301379Y-152238498D01*
X109254886Y-152184842D01*
X109243500Y-152132500D01*
X109243500Y-151258500D01*
X109263502Y-151190379D01*
X109317158Y-151143886D01*
X109369500Y-151132500D01*
X109658134Y-151132500D01*
X109720316Y-151125745D01*
X109856705Y-151074615D01*
X109973261Y-150987261D01*
X110060615Y-150870705D01*
X110111745Y-150734316D01*
X110118500Y-150672134D01*
X110118500Y-149075866D01*
X110111745Y-149013684D01*
X110060615Y-148877295D01*
X110002360Y-148799565D01*
X109977512Y-148733058D01*
X109992565Y-148663676D01*
X110002360Y-148648435D01*
X110055229Y-148577892D01*
X110055230Y-148577890D01*
X110060615Y-148570705D01*
X110111745Y-148434316D01*
X110118500Y-148372134D01*
X110118500Y-148333500D01*
X110138502Y-148265379D01*
X110192158Y-148218886D01*
X110244500Y-148207500D01*
X113275500Y-148207500D01*
X113343621Y-148227502D01*
X113390114Y-148281158D01*
X113401500Y-148333500D01*
X113401500Y-149522134D01*
X113408255Y-149584316D01*
X113459385Y-149720705D01*
X113546739Y-149837261D01*
X113663295Y-149924615D01*
X113799684Y-149975745D01*
X113861866Y-149982500D01*
X115958134Y-149982500D01*
X115961529Y-149982131D01*
X115961533Y-149982131D01*
X116010920Y-149976766D01*
X116080802Y-149989294D01*
X116132818Y-150037615D01*
X116150452Y-150106387D01*
X116138722Y-150155279D01*
X116105693Y-150226111D01*
X116062880Y-150317924D01*
X116005885Y-150530629D01*
X115986693Y-150750000D01*
X116005885Y-150969371D01*
X116062880Y-151182076D01*
X116074110Y-151206158D01*
X116153618Y-151376666D01*
X116153621Y-151376671D01*
X116155944Y-151381653D01*
X116159100Y-151386160D01*
X116159101Y-151386162D01*
X116232860Y-151491500D01*
X116282251Y-151562038D01*
X116437962Y-151717749D01*
X116618346Y-151844056D01*
X116817924Y-151937120D01*
X117030629Y-151994115D01*
X117250000Y-152013307D01*
X117469371Y-151994115D01*
X117682076Y-151937120D01*
X117881654Y-151844056D01*
X118062038Y-151717749D01*
X118217749Y-151562038D01*
X118267141Y-151491500D01*
X118340899Y-151386162D01*
X118340900Y-151386160D01*
X118344056Y-151381653D01*
X118346379Y-151376671D01*
X118346382Y-151376666D01*
X118425890Y-151206158D01*
X118437120Y-151182076D01*
X118494115Y-150969371D01*
X118513307Y-150750000D01*
X118494115Y-150530629D01*
X118437120Y-150317924D01*
X118393585Y-150224562D01*
X118346382Y-150123334D01*
X118346379Y-150123329D01*
X118344056Y-150118347D01*
X118248935Y-149982500D01*
X118220908Y-149942473D01*
X118220906Y-149942470D01*
X118217749Y-149937962D01*
X118062038Y-149782251D01*
X117881654Y-149655944D01*
X117682076Y-149562880D01*
X117469371Y-149505885D01*
X117250000Y-149486693D01*
X117030629Y-149505885D01*
X116817924Y-149562880D01*
X116756087Y-149591715D01*
X116623334Y-149653618D01*
X116623329Y-149653621D01*
X116618347Y-149655944D01*
X116613840Y-149659100D01*
X116609077Y-149661850D01*
X116608522Y-149660889D01*
X116546579Y-149681784D01*
X116477717Y-149664502D01*
X116429130Y-149612735D01*
X116416312Y-149542275D01*
X116418131Y-149525531D01*
X116418500Y-149522134D01*
X116418500Y-147561500D01*
X116438502Y-147493379D01*
X116492158Y-147446886D01*
X116544500Y-147435500D01*
X120689500Y-147435500D01*
X120757621Y-147455502D01*
X120804114Y-147509158D01*
X120815500Y-147561500D01*
X120815500Y-147700134D01*
X120822255Y-147762316D01*
X120873385Y-147898705D01*
X120960739Y-148015261D01*
X121077295Y-148102615D01*
X121213684Y-148153745D01*
X121275866Y-148160500D01*
X123072134Y-148160500D01*
X123134316Y-148153745D01*
X123270705Y-148102615D01*
X123289935Y-148088203D01*
X123356442Y-148063355D01*
X123425824Y-148078408D01*
X123476054Y-148128582D01*
X123491500Y-148189029D01*
X123491500Y-152950633D01*
X123490000Y-152970018D01*
X123487690Y-152984851D01*
X123487690Y-152984855D01*
X123486309Y-152993724D01*
X123488136Y-153007693D01*
X123488304Y-153008976D01*
X123489047Y-153034302D01*
X123483656Y-153109685D01*
X123476962Y-153203279D01*
X123474404Y-153221064D01*
X123443021Y-153365332D01*
X123433001Y-153411392D01*
X123427937Y-153428641D01*
X123359864Y-153611150D01*
X123352396Y-153627502D01*
X123259048Y-153798458D01*
X123249328Y-153813582D01*
X123132598Y-153969514D01*
X123120825Y-153983100D01*
X122983100Y-154120825D01*
X122969514Y-154132598D01*
X122813582Y-154249328D01*
X122798458Y-154259048D01*
X122627502Y-154352396D01*
X122611150Y-154359864D01*
X122428641Y-154427937D01*
X122411393Y-154433001D01*
X122221064Y-154474404D01*
X122203285Y-154476961D01*
X122041395Y-154488540D01*
X122023435Y-154487793D01*
X122015155Y-154487692D01*
X122006276Y-154486309D01*
X121974714Y-154490436D01*
X121958379Y-154491500D01*
X121752229Y-154491500D01*
X121684108Y-154471498D01*
X121637615Y-154417842D01*
X121627511Y-154347568D01*
X121657005Y-154282988D01*
X121663134Y-154276405D01*
X121665705Y-154273834D01*
X121670143Y-154270143D01*
X121797594Y-154116899D01*
X121894984Y-153942996D01*
X121938915Y-153813582D01*
X121957195Y-153759730D01*
X121957195Y-153759728D01*
X121959053Y-153754256D01*
X121959882Y-153748540D01*
X121959883Y-153748535D01*
X121979802Y-153611150D01*
X121987653Y-153557001D01*
X121989146Y-153500000D01*
X121970908Y-153301519D01*
X121961816Y-153269279D01*
X121918373Y-153115244D01*
X121918372Y-153115242D01*
X121916805Y-153109685D01*
X121903746Y-153083202D01*
X121831205Y-152936104D01*
X121828650Y-152930923D01*
X121709393Y-152771219D01*
X121563030Y-152635922D01*
X121510945Y-152603059D01*
X121464008Y-152549794D01*
X121453318Y-152479607D01*
X121482272Y-152414782D01*
X121529963Y-152380089D01*
X121627928Y-152339511D01*
X121627932Y-152339509D01*
X121632502Y-152337616D01*
X121848376Y-152205328D01*
X122040898Y-152040898D01*
X122205328Y-151848376D01*
X122337616Y-151632502D01*
X122404370Y-151471345D01*
X122432611Y-151403164D01*
X122432612Y-151403162D01*
X122434505Y-151398591D01*
X122480704Y-151206158D01*
X122492454Y-151157216D01*
X122492455Y-151157210D01*
X122493609Y-151152403D01*
X122513474Y-150900000D01*
X122493609Y-150647597D01*
X122483203Y-150604250D01*
X122435660Y-150406221D01*
X122434505Y-150401409D01*
X122428846Y-150387746D01*
X122339511Y-150172072D01*
X122339509Y-150172068D01*
X122337616Y-150167498D01*
X122205328Y-149951624D01*
X122040898Y-149759102D01*
X121848376Y-149594672D01*
X121632502Y-149462384D01*
X121627932Y-149460491D01*
X121627928Y-149460489D01*
X121403164Y-149367389D01*
X121403162Y-149367388D01*
X121398591Y-149365495D01*
X121313968Y-149345179D01*
X121157216Y-149307546D01*
X121157210Y-149307545D01*
X121152403Y-149306391D01*
X120900000Y-149286526D01*
X120647597Y-149306391D01*
X120642790Y-149307545D01*
X120642784Y-149307546D01*
X120486032Y-149345179D01*
X120401409Y-149365495D01*
X120396838Y-149367388D01*
X120396836Y-149367389D01*
X120172072Y-149460489D01*
X120172068Y-149460491D01*
X120167498Y-149462384D01*
X119951624Y-149594672D01*
X119759102Y-149759102D01*
X119594672Y-149951624D01*
X119462384Y-150167498D01*
X119460491Y-150172068D01*
X119460489Y-150172072D01*
X119371154Y-150387746D01*
X119365495Y-150401409D01*
X119364340Y-150406221D01*
X119316798Y-150604250D01*
X119306391Y-150647597D01*
X119286526Y-150900000D01*
X119306391Y-151152403D01*
X119307545Y-151157210D01*
X119307546Y-151157216D01*
X119319296Y-151206158D01*
X119365495Y-151398591D01*
X119367388Y-151403162D01*
X119367389Y-151403164D01*
X119395631Y-151471345D01*
X119462384Y-151632502D01*
X119594672Y-151848376D01*
X119759102Y-152040898D01*
X119951624Y-152205328D01*
X120167498Y-152337616D01*
X120172068Y-152339509D01*
X120172072Y-152339511D01*
X120268409Y-152379415D01*
X120323690Y-152423964D01*
X120346111Y-152491327D01*
X120328553Y-152560118D01*
X120284614Y-152604109D01*
X120259816Y-152618862D01*
X120109961Y-152750281D01*
X119986565Y-152906809D01*
X119983876Y-152911920D01*
X119983874Y-152911923D01*
X119953309Y-152970018D01*
X119893760Y-153083202D01*
X119885537Y-153109685D01*
X119850950Y-153221074D01*
X119834654Y-153273554D01*
X119811227Y-153471489D01*
X119813096Y-153500000D01*
X119824263Y-153670380D01*
X119825684Y-153675976D01*
X119825685Y-153675981D01*
X119858799Y-153806366D01*
X119873326Y-153863564D01*
X119875743Y-153868807D01*
X119912265Y-153948029D01*
X119956772Y-154044573D01*
X119960105Y-154049289D01*
X120010662Y-154120825D01*
X120071807Y-154207344D01*
X120136273Y-154270143D01*
X120141511Y-154275246D01*
X120176349Y-154337107D01*
X120172212Y-154407983D01*
X120130413Y-154465371D01*
X120064224Y-154491050D01*
X120053590Y-154491500D01*
X102049367Y-154491500D01*
X102029982Y-154490000D01*
X102015149Y-154487690D01*
X102015145Y-154487690D01*
X102006276Y-154486309D01*
X101991019Y-154488304D01*
X101965698Y-154489047D01*
X101796715Y-154476961D01*
X101778936Y-154474404D01*
X101588607Y-154433001D01*
X101571359Y-154427937D01*
X101388850Y-154359864D01*
X101372498Y-154352396D01*
X101201542Y-154259048D01*
X101186418Y-154249328D01*
X101030486Y-154132598D01*
X101016900Y-154120825D01*
X100879175Y-153983100D01*
X100867402Y-153969514D01*
X100750672Y-153813582D01*
X100740952Y-153798458D01*
X100647604Y-153627502D01*
X100640136Y-153611150D01*
X100572063Y-153428641D01*
X100566999Y-153411392D01*
X100556979Y-153365332D01*
X100525596Y-153221064D01*
X100523038Y-153203278D01*
X100516345Y-153109685D01*
X100511719Y-153045011D01*
X100512805Y-153022245D01*
X100512334Y-153022203D01*
X100512770Y-153017345D01*
X100513576Y-153012552D01*
X100513729Y-153000000D01*
X100509773Y-152972376D01*
X100508500Y-152954514D01*
X100508500Y-150900000D01*
X101486526Y-150900000D01*
X101506391Y-151152403D01*
X101507545Y-151157210D01*
X101507546Y-151157216D01*
X101519296Y-151206158D01*
X101565495Y-151398591D01*
X101567388Y-151403162D01*
X101567389Y-151403164D01*
X101595631Y-151471345D01*
X101662384Y-151632502D01*
X101794672Y-151848376D01*
X101959102Y-152040898D01*
X102151624Y-152205328D01*
X102367498Y-152337616D01*
X102372068Y-152339509D01*
X102372072Y-152339511D01*
X102596836Y-152432611D01*
X102601409Y-152434505D01*
X102686032Y-152454821D01*
X102842784Y-152492454D01*
X102842790Y-152492455D01*
X102847597Y-152493609D01*
X103100000Y-152513474D01*
X103352403Y-152493609D01*
X103357210Y-152492455D01*
X103357216Y-152492454D01*
X103513968Y-152454821D01*
X103598591Y-152434505D01*
X103603164Y-152432611D01*
X103827928Y-152339511D01*
X103827932Y-152339509D01*
X103832502Y-152337616D01*
X104048376Y-152205328D01*
X104240898Y-152040898D01*
X104405328Y-151848376D01*
X104537616Y-151632502D01*
X104604370Y-151471345D01*
X104632611Y-151403164D01*
X104632612Y-151403162D01*
X104634505Y-151398591D01*
X104680704Y-151206158D01*
X104692454Y-151157216D01*
X104692455Y-151157210D01*
X104693609Y-151152403D01*
X104713474Y-150900000D01*
X104693609Y-150647597D01*
X104683203Y-150604250D01*
X104635660Y-150406221D01*
X104634505Y-150401409D01*
X104628846Y-150387746D01*
X104539511Y-150172072D01*
X104539509Y-150172068D01*
X104537616Y-150167498D01*
X104405328Y-149951624D01*
X104240898Y-149759102D01*
X104048376Y-149594672D01*
X103832502Y-149462384D01*
X103827932Y-149460491D01*
X103827928Y-149460489D01*
X103603164Y-149367389D01*
X103603162Y-149367388D01*
X103598591Y-149365495D01*
X103513968Y-149345179D01*
X103357216Y-149307546D01*
X103357210Y-149307545D01*
X103352403Y-149306391D01*
X103100000Y-149286526D01*
X102847597Y-149306391D01*
X102842790Y-149307545D01*
X102842784Y-149307546D01*
X102686032Y-149345179D01*
X102601409Y-149365495D01*
X102596838Y-149367388D01*
X102596836Y-149367389D01*
X102372072Y-149460489D01*
X102372068Y-149460491D01*
X102367498Y-149462384D01*
X102151624Y-149594672D01*
X101959102Y-149759102D01*
X101794672Y-149951624D01*
X101662384Y-150167498D01*
X101660491Y-150172068D01*
X101660489Y-150172072D01*
X101571154Y-150387746D01*
X101565495Y-150401409D01*
X101564340Y-150406221D01*
X101516798Y-150604250D01*
X101506391Y-150647597D01*
X101486526Y-150900000D01*
X100508500Y-150900000D01*
X100508500Y-148537430D01*
X100528502Y-148469309D01*
X100582158Y-148422816D01*
X100634500Y-148411430D01*
X101201094Y-148411430D01*
X101263276Y-148404675D01*
X101399665Y-148353545D01*
X101516221Y-148266191D01*
X101603575Y-148149635D01*
X101654705Y-148013246D01*
X101661460Y-147951064D01*
X101661460Y-146856576D01*
X101654705Y-146794394D01*
X101603575Y-146658005D01*
X101516221Y-146541449D01*
X101399665Y-146454095D01*
X101263276Y-146402965D01*
X101201094Y-146396210D01*
X100634500Y-146396210D01*
X100566379Y-146376208D01*
X100519886Y-146322552D01*
X100508500Y-146270210D01*
X100508500Y-144756000D01*
X100915358Y-144756000D01*
X100935870Y-144951155D01*
X100937910Y-144957433D01*
X100937910Y-144957434D01*
X100952353Y-145001885D01*
X100996508Y-145137780D01*
X101094623Y-145307720D01*
X101099041Y-145312627D01*
X101099042Y-145312628D01*
X101131099Y-145348231D01*
X101225926Y-145453547D01*
X101231268Y-145457428D01*
X101231270Y-145457430D01*
X101367332Y-145556285D01*
X101384679Y-145568888D01*
X101390707Y-145571572D01*
X101390709Y-145571573D01*
X101520328Y-145629283D01*
X101563944Y-145648702D01*
X101659914Y-145669101D01*
X101749428Y-145688128D01*
X101749432Y-145688128D01*
X101755885Y-145689500D01*
X101952115Y-145689500D01*
X101958568Y-145688128D01*
X101958572Y-145688128D01*
X102048086Y-145669101D01*
X102144056Y-145648702D01*
X102187672Y-145629283D01*
X102317291Y-145571573D01*
X102317293Y-145571572D01*
X102323321Y-145568888D01*
X102340668Y-145556285D01*
X102476730Y-145457430D01*
X102476732Y-145457428D01*
X102482074Y-145453547D01*
X102613377Y-145307720D01*
X102616355Y-145302562D01*
X102672386Y-145259355D01*
X102743122Y-145253280D01*
X102805914Y-145286411D01*
X102840825Y-145348231D01*
X102844100Y-145376770D01*
X102844100Y-145901284D01*
X102850855Y-145963466D01*
X102901985Y-146099855D01*
X102907370Y-146107040D01*
X102907371Y-146107042D01*
X102973026Y-146194645D01*
X102997874Y-146261152D01*
X102982821Y-146330534D01*
X102932647Y-146380764D01*
X102872200Y-146396210D01*
X102506906Y-146396210D01*
X102444724Y-146402965D01*
X102308335Y-146454095D01*
X102191779Y-146541449D01*
X102104425Y-146658005D01*
X102053295Y-146794394D01*
X102046540Y-146856576D01*
X102046540Y-147951064D01*
X102053295Y-148013246D01*
X102104425Y-148149635D01*
X102191779Y-148266191D01*
X102308335Y-148353545D01*
X102444724Y-148404675D01*
X102506906Y-148411430D01*
X103400734Y-148411430D01*
X103462916Y-148404675D01*
X103599305Y-148353545D01*
X103715861Y-148266191D01*
X103803215Y-148149635D01*
X103854345Y-148013246D01*
X103861100Y-147951064D01*
X103861100Y-146856576D01*
X103854345Y-146794394D01*
X103803215Y-146658005D01*
X103797830Y-146650820D01*
X103797829Y-146650818D01*
X103732174Y-146563215D01*
X103707326Y-146496708D01*
X103722379Y-146427326D01*
X103772553Y-146377096D01*
X103833000Y-146361650D01*
X104899334Y-146361650D01*
X104961516Y-146354895D01*
X105097905Y-146303765D01*
X105214461Y-146216411D01*
X105301815Y-146099855D01*
X105352945Y-145963466D01*
X105359700Y-145901284D01*
X105359700Y-145106516D01*
X105352945Y-145044334D01*
X105337032Y-145001885D01*
X107102000Y-145001885D01*
X107106475Y-145017124D01*
X107107865Y-145018329D01*
X107115548Y-145020000D01*
X108337885Y-145020000D01*
X108353124Y-145015525D01*
X108354329Y-145014135D01*
X108356000Y-145006452D01*
X108356000Y-145001885D01*
X108864000Y-145001885D01*
X108868475Y-145017124D01*
X108869865Y-145018329D01*
X108877548Y-145020000D01*
X110099884Y-145020000D01*
X110115123Y-145015525D01*
X110116328Y-145014135D01*
X110117999Y-145006452D01*
X110117999Y-144479331D01*
X110117629Y-144472510D01*
X110112105Y-144421648D01*
X110108479Y-144406396D01*
X110063324Y-144285946D01*
X110054786Y-144270351D01*
X109978285Y-144168276D01*
X109965724Y-144155715D01*
X109863649Y-144079214D01*
X109848054Y-144070676D01*
X109727606Y-144025522D01*
X109712351Y-144021895D01*
X109661486Y-144016369D01*
X109654672Y-144016000D01*
X108882115Y-144016000D01*
X108866876Y-144020475D01*
X108865671Y-144021865D01*
X108864000Y-144029548D01*
X108864000Y-145001885D01*
X108356000Y-145001885D01*
X108356000Y-144034116D01*
X108351525Y-144018877D01*
X108350135Y-144017672D01*
X108342452Y-144016001D01*
X107565331Y-144016001D01*
X107558510Y-144016371D01*
X107507648Y-144021895D01*
X107492396Y-144025521D01*
X107371946Y-144070676D01*
X107356351Y-144079214D01*
X107254276Y-144155715D01*
X107241715Y-144168276D01*
X107165214Y-144270351D01*
X107156676Y-144285946D01*
X107111522Y-144406394D01*
X107107895Y-144421649D01*
X107102369Y-144472514D01*
X107102000Y-144479328D01*
X107102000Y-145001885D01*
X105337032Y-145001885D01*
X105301815Y-144907945D01*
X105281636Y-144881020D01*
X105243210Y-144829748D01*
X105218362Y-144763241D01*
X105233415Y-144693859D01*
X105243210Y-144678618D01*
X105295986Y-144608199D01*
X105304524Y-144592604D01*
X105349678Y-144472156D01*
X105353305Y-144456901D01*
X105358831Y-144406036D01*
X105359200Y-144399222D01*
X105359200Y-144277415D01*
X105354725Y-144262176D01*
X105353335Y-144260971D01*
X105345652Y-144259300D01*
X102862716Y-144259300D01*
X102847478Y-144263774D01*
X102843473Y-144268396D01*
X102783747Y-144306780D01*
X102712751Y-144306780D01*
X102653024Y-144268397D01*
X102639129Y-144248884D01*
X102616678Y-144209998D01*
X102613377Y-144204280D01*
X102482074Y-144058453D01*
X102436749Y-144025522D01*
X102328663Y-143946993D01*
X102328662Y-143946992D01*
X102323321Y-143943112D01*
X102317293Y-143940428D01*
X102317291Y-143940427D01*
X102150087Y-143865983D01*
X102150086Y-143865983D01*
X102144056Y-143863298D01*
X102048086Y-143842899D01*
X101958572Y-143823872D01*
X101958568Y-143823872D01*
X101952115Y-143822500D01*
X101755885Y-143822500D01*
X101749432Y-143823872D01*
X101749428Y-143823872D01*
X101659914Y-143842899D01*
X101563944Y-143863298D01*
X101557914Y-143865983D01*
X101557913Y-143865983D01*
X101390709Y-143940427D01*
X101390707Y-143940428D01*
X101384679Y-143943112D01*
X101379338Y-143946992D01*
X101379337Y-143946993D01*
X101271252Y-144025522D01*
X101225926Y-144058453D01*
X101094623Y-144204280D01*
X100996508Y-144374220D01*
X100935870Y-144560845D01*
X100915358Y-144756000D01*
X100508500Y-144756000D01*
X100508500Y-143733185D01*
X102844600Y-143733185D01*
X102849075Y-143748424D01*
X102850465Y-143749629D01*
X102858148Y-143751300D01*
X103829785Y-143751300D01*
X103845024Y-143746825D01*
X103846229Y-143745435D01*
X103847900Y-143737752D01*
X103847900Y-143733185D01*
X104355900Y-143733185D01*
X104360375Y-143748424D01*
X104361765Y-143749629D01*
X104369448Y-143751300D01*
X105341084Y-143751300D01*
X105356323Y-143746825D01*
X105357528Y-143745435D01*
X105359199Y-143737752D01*
X105359199Y-143611381D01*
X105358829Y-143604560D01*
X105353305Y-143553698D01*
X105349679Y-143538446D01*
X105304524Y-143417996D01*
X105295986Y-143402401D01*
X105219485Y-143300326D01*
X105206924Y-143287765D01*
X105104849Y-143211264D01*
X105089254Y-143202726D01*
X104968806Y-143157572D01*
X104953551Y-143153945D01*
X104902686Y-143148419D01*
X104895872Y-143148050D01*
X104374015Y-143148050D01*
X104358776Y-143152525D01*
X104357571Y-143153915D01*
X104355900Y-143161598D01*
X104355900Y-143733185D01*
X103847900Y-143733185D01*
X103847900Y-143166166D01*
X103843425Y-143150927D01*
X103842035Y-143149722D01*
X103834352Y-143148051D01*
X103307931Y-143148051D01*
X103301110Y-143148421D01*
X103250248Y-143153945D01*
X103234996Y-143157571D01*
X103114546Y-143202726D01*
X103098951Y-143211264D01*
X102996876Y-143287765D01*
X102984315Y-143300326D01*
X102907814Y-143402401D01*
X102899276Y-143417996D01*
X102854122Y-143538444D01*
X102850495Y-143553699D01*
X102844969Y-143604564D01*
X102844600Y-143611378D01*
X102844600Y-143733185D01*
X100508500Y-143733185D01*
X100508500Y-141756000D01*
X100915358Y-141756000D01*
X100916048Y-141762565D01*
X100930795Y-141902866D01*
X100935870Y-141951155D01*
X100996508Y-142137780D01*
X101094623Y-142307720D01*
X101225926Y-142453547D01*
X101231268Y-142457428D01*
X101231270Y-142457430D01*
X101327146Y-142527088D01*
X101384679Y-142568888D01*
X101390707Y-142571572D01*
X101390709Y-142571573D01*
X101557913Y-142646017D01*
X101563944Y-142648702D01*
X101659915Y-142669101D01*
X101749428Y-142688128D01*
X101749432Y-142688128D01*
X101755885Y-142689500D01*
X101952115Y-142689500D01*
X101958568Y-142688128D01*
X101958572Y-142688128D01*
X102048085Y-142669101D01*
X102144056Y-142648702D01*
X102150087Y-142646017D01*
X102317291Y-142571573D01*
X102317293Y-142571572D01*
X102323321Y-142568888D01*
X102380854Y-142527088D01*
X102476730Y-142457430D01*
X102476732Y-142457428D01*
X102482074Y-142453547D01*
X102613377Y-142307720D01*
X102711492Y-142137780D01*
X102772130Y-141951155D01*
X102775424Y-141919819D01*
X102787274Y-141807076D01*
X102814288Y-141741419D01*
X102872509Y-141700790D01*
X102943455Y-141698087D01*
X102987482Y-141723089D01*
X102989339Y-141720611D01*
X103105895Y-141807965D01*
X103242284Y-141859095D01*
X103304466Y-141865850D01*
X104899334Y-141865850D01*
X104961516Y-141859095D01*
X105097905Y-141807965D01*
X105214461Y-141720611D01*
X105301815Y-141604055D01*
X105352945Y-141467666D01*
X105359700Y-141405484D01*
X105359700Y-140698394D01*
X105379702Y-140630273D01*
X105396605Y-140609299D01*
X106143499Y-139862405D01*
X106205811Y-139828379D01*
X106232594Y-139825500D01*
X106532803Y-139825500D01*
X106600924Y-139845502D01*
X106647417Y-139899158D01*
X106652326Y-139911623D01*
X106665095Y-139949894D01*
X106670450Y-139965946D01*
X106674301Y-139972170D01*
X106674302Y-139972171D01*
X106676827Y-139976251D01*
X106763522Y-140116348D01*
X106888697Y-140241305D01*
X106894927Y-140245145D01*
X106894928Y-140245146D01*
X107032090Y-140329694D01*
X107039262Y-140334115D01*
X107060632Y-140341203D01*
X107200611Y-140387632D01*
X107200613Y-140387632D01*
X107207139Y-140389797D01*
X107213975Y-140390497D01*
X107213978Y-140390498D01*
X107257031Y-140394909D01*
X107311600Y-140400500D01*
X108112400Y-140400500D01*
X108115646Y-140400163D01*
X108115650Y-140400163D01*
X108211308Y-140390238D01*
X108211312Y-140390237D01*
X108218166Y-140389526D01*
X108224702Y-140387345D01*
X108224704Y-140387345D01*
X108363007Y-140341203D01*
X108385946Y-140333550D01*
X108536348Y-140240478D01*
X108622784Y-140153891D01*
X108685066Y-140119812D01*
X108755886Y-140124815D01*
X108800975Y-140153736D01*
X108855569Y-140208235D01*
X108888697Y-140241305D01*
X108894927Y-140245145D01*
X108894928Y-140245146D01*
X109032090Y-140329694D01*
X109039262Y-140334115D01*
X109060632Y-140341203D01*
X109200611Y-140387632D01*
X109200613Y-140387632D01*
X109207139Y-140389797D01*
X109213975Y-140390497D01*
X109213978Y-140390498D01*
X109257031Y-140394909D01*
X109311600Y-140400500D01*
X110112400Y-140400500D01*
X110115646Y-140400163D01*
X110115650Y-140400163D01*
X110211308Y-140390238D01*
X110211312Y-140390237D01*
X110218166Y-140389526D01*
X110224702Y-140387345D01*
X110224704Y-140387345D01*
X110363007Y-140341203D01*
X110385946Y-140333550D01*
X110536348Y-140240478D01*
X110661305Y-140115303D01*
X110736360Y-139993542D01*
X110750275Y-139970968D01*
X110750276Y-139970966D01*
X110754115Y-139964738D01*
X110771663Y-139911832D01*
X110812094Y-139853473D01*
X110877658Y-139826236D01*
X110891256Y-139825500D01*
X118285233Y-139825500D01*
X118296416Y-139826027D01*
X118303909Y-139827702D01*
X118311835Y-139827453D01*
X118311836Y-139827453D01*
X118371986Y-139825562D01*
X118375945Y-139825500D01*
X118403856Y-139825500D01*
X118407791Y-139825003D01*
X118407856Y-139824995D01*
X118419693Y-139824062D01*
X118451951Y-139823048D01*
X118455970Y-139822922D01*
X118463889Y-139822673D01*
X118483343Y-139817021D01*
X118502700Y-139813013D01*
X118514930Y-139811468D01*
X118514931Y-139811468D01*
X118522797Y-139810474D01*
X118530168Y-139807555D01*
X118530170Y-139807555D01*
X118563912Y-139794196D01*
X118575142Y-139790351D01*
X118609983Y-139780229D01*
X118609984Y-139780229D01*
X118617593Y-139778018D01*
X118624412Y-139773985D01*
X118624417Y-139773983D01*
X118635028Y-139767707D01*
X118652776Y-139759012D01*
X118671617Y-139751552D01*
X118707387Y-139725564D01*
X118717307Y-139719048D01*
X118748535Y-139700580D01*
X118748538Y-139700578D01*
X118755362Y-139696542D01*
X118769683Y-139682221D01*
X118784717Y-139669380D01*
X118794694Y-139662131D01*
X118801107Y-139657472D01*
X118829298Y-139623395D01*
X118837288Y-139614616D01*
X119535721Y-138916183D01*
X120838389Y-138916183D01*
X120839912Y-138924607D01*
X120852292Y-138928000D01*
X121901885Y-138928000D01*
X121917124Y-138923525D01*
X121918329Y-138922135D01*
X121920000Y-138914452D01*
X121920000Y-137865102D01*
X121916082Y-137851758D01*
X121901806Y-137849771D01*
X121863324Y-137855660D01*
X121853288Y-137858051D01*
X121650868Y-137924212D01*
X121641359Y-137928209D01*
X121452463Y-138026542D01*
X121443738Y-138032036D01*
X121273433Y-138159905D01*
X121265726Y-138166748D01*
X121118590Y-138320717D01*
X121112104Y-138328727D01*
X120992098Y-138504649D01*
X120987000Y-138513623D01*
X120897338Y-138706783D01*
X120893775Y-138716470D01*
X120838389Y-138916183D01*
X119535721Y-138916183D01*
X122124499Y-136327405D01*
X122186811Y-136293379D01*
X122213594Y-136290500D01*
X122269487Y-136290500D01*
X122275939Y-136289128D01*
X122275944Y-136289128D01*
X122362888Y-136270647D01*
X122456288Y-136250794D01*
X122552244Y-136208072D01*
X122624722Y-136175803D01*
X122624724Y-136175802D01*
X122630752Y-136173118D01*
X122785253Y-136060866D01*
X122913040Y-135918944D01*
X123008527Y-135753556D01*
X123067542Y-135571928D01*
X123072177Y-135527834D01*
X123086814Y-135388565D01*
X123087504Y-135382000D01*
X123067542Y-135192072D01*
X123008527Y-135010444D01*
X122913040Y-134845056D01*
X122785253Y-134703134D01*
X122630752Y-134590882D01*
X122624724Y-134588198D01*
X122624722Y-134588197D01*
X122462319Y-134515891D01*
X122462318Y-134515891D01*
X122456288Y-134513206D01*
X122362888Y-134493353D01*
X122275944Y-134474872D01*
X122275939Y-134474872D01*
X122269487Y-134473500D01*
X122078513Y-134473500D01*
X122072061Y-134474872D01*
X122072056Y-134474872D01*
X121985112Y-134493353D01*
X121891712Y-134513206D01*
X121885682Y-134515891D01*
X121885681Y-134515891D01*
X121723278Y-134588197D01*
X121723276Y-134588198D01*
X121717248Y-134590882D01*
X121562747Y-134703134D01*
X121434960Y-134845056D01*
X121339473Y-135010444D01*
X121280458Y-135192072D01*
X121279768Y-135198633D01*
X121279768Y-135198635D01*
X121263093Y-135357293D01*
X121236080Y-135422950D01*
X121226878Y-135433218D01*
X118138500Y-138521595D01*
X118076188Y-138555621D01*
X118049405Y-138558500D01*
X110891197Y-138558500D01*
X110823076Y-138538498D01*
X110776583Y-138484842D01*
X110771674Y-138472377D01*
X110755867Y-138424998D01*
X110755866Y-138424996D01*
X110753550Y-138418054D01*
X110724292Y-138370773D01*
X110664332Y-138273880D01*
X110660478Y-138267652D01*
X110535303Y-138142695D01*
X110434515Y-138080568D01*
X110390968Y-138053725D01*
X110390966Y-138053724D01*
X110384738Y-138049885D01*
X110224254Y-137996655D01*
X110223389Y-137996368D01*
X110223387Y-137996368D01*
X110216861Y-137994203D01*
X110210025Y-137993503D01*
X110210022Y-137993502D01*
X110166969Y-137989091D01*
X110112400Y-137983500D01*
X109311600Y-137983500D01*
X109308354Y-137983837D01*
X109308350Y-137983837D01*
X109212692Y-137993762D01*
X109212688Y-137993763D01*
X109205834Y-137994474D01*
X109199298Y-137996655D01*
X109199296Y-137996655D01*
X109109715Y-138026542D01*
X109038054Y-138050450D01*
X108887652Y-138143522D01*
X108882479Y-138148704D01*
X108801216Y-138230109D01*
X108738934Y-138264188D01*
X108668114Y-138259185D01*
X108623025Y-138230264D01*
X108540483Y-138147866D01*
X108535303Y-138142695D01*
X108434515Y-138080568D01*
X108390968Y-138053725D01*
X108390966Y-138053724D01*
X108384738Y-138049885D01*
X108224254Y-137996655D01*
X108223389Y-137996368D01*
X108223387Y-137996368D01*
X108216861Y-137994203D01*
X108210025Y-137993503D01*
X108210022Y-137993502D01*
X108166969Y-137989091D01*
X108112400Y-137983500D01*
X107311600Y-137983500D01*
X107308354Y-137983837D01*
X107308350Y-137983837D01*
X107212692Y-137993762D01*
X107212688Y-137993763D01*
X107205834Y-137994474D01*
X107199298Y-137996655D01*
X107199296Y-137996655D01*
X107109715Y-138026542D01*
X107038054Y-138050450D01*
X106887652Y-138143522D01*
X106882479Y-138148704D01*
X106872745Y-138158455D01*
X106762695Y-138268697D01*
X106758855Y-138274927D01*
X106758854Y-138274928D01*
X106706613Y-138359679D01*
X106669885Y-138419262D01*
X106652337Y-138472168D01*
X106611906Y-138530527D01*
X106546342Y-138557764D01*
X106532744Y-138558500D01*
X105996767Y-138558500D01*
X105985584Y-138557973D01*
X105978091Y-138556298D01*
X105970165Y-138556547D01*
X105970164Y-138556547D01*
X105910014Y-138558438D01*
X105906055Y-138558500D01*
X105878144Y-138558500D01*
X105874210Y-138558997D01*
X105874209Y-138558997D01*
X105874144Y-138559005D01*
X105862307Y-138559938D01*
X105830547Y-138560936D01*
X105826029Y-138561078D01*
X105818110Y-138561327D01*
X105807694Y-138564353D01*
X105798658Y-138566978D01*
X105779306Y-138570986D01*
X105772235Y-138571880D01*
X105759203Y-138573526D01*
X105751834Y-138576443D01*
X105751832Y-138576444D01*
X105718097Y-138589800D01*
X105706869Y-138593645D01*
X105664407Y-138605982D01*
X105657585Y-138610016D01*
X105657579Y-138610019D01*
X105646968Y-138616294D01*
X105629218Y-138624990D01*
X105617756Y-138629528D01*
X105617751Y-138629531D01*
X105610383Y-138632448D01*
X105603968Y-138637109D01*
X105574625Y-138658427D01*
X105564707Y-138664943D01*
X105546019Y-138675995D01*
X105526637Y-138687458D01*
X105512313Y-138701782D01*
X105497281Y-138714621D01*
X105480893Y-138726528D01*
X105452712Y-138760593D01*
X105444722Y-138769373D01*
X104100650Y-140113445D01*
X104038338Y-140147471D01*
X104011555Y-140150350D01*
X103833000Y-140150350D01*
X103764879Y-140130348D01*
X103718386Y-140076692D01*
X103708282Y-140006418D01*
X103732174Y-139948785D01*
X103797829Y-139861182D01*
X103797830Y-139861180D01*
X103803215Y-139853995D01*
X103854345Y-139717606D01*
X103861100Y-139655424D01*
X103861100Y-138560936D01*
X103854345Y-138498754D01*
X103803215Y-138362365D01*
X103715861Y-138245809D01*
X103599305Y-138158455D01*
X103462916Y-138107325D01*
X103400734Y-138100570D01*
X102506906Y-138100570D01*
X102444724Y-138107325D01*
X102308335Y-138158455D01*
X102191779Y-138245809D01*
X102104425Y-138362365D01*
X102053295Y-138498754D01*
X102046540Y-138560936D01*
X102046540Y-139655424D01*
X102053295Y-139717606D01*
X102104425Y-139853995D01*
X102191779Y-139970551D01*
X102308335Y-140057905D01*
X102444724Y-140109035D01*
X102506906Y-140115790D01*
X102872200Y-140115790D01*
X102940321Y-140135792D01*
X102986814Y-140189448D01*
X102996918Y-140259722D01*
X102973026Y-140317355D01*
X102908038Y-140404069D01*
X102901985Y-140412145D01*
X102850855Y-140548534D01*
X102844100Y-140610716D01*
X102844100Y-141135230D01*
X102824098Y-141203351D01*
X102770442Y-141249844D01*
X102700168Y-141259948D01*
X102635588Y-141230454D01*
X102616450Y-141209603D01*
X102613377Y-141204280D01*
X102482074Y-141058453D01*
X102462734Y-141044401D01*
X102328663Y-140946993D01*
X102328662Y-140946992D01*
X102323321Y-140943112D01*
X102317293Y-140940428D01*
X102317291Y-140940427D01*
X102150087Y-140865983D01*
X102150086Y-140865983D01*
X102144056Y-140863298D01*
X102048086Y-140842899D01*
X101958572Y-140823872D01*
X101958568Y-140823872D01*
X101952115Y-140822500D01*
X101755885Y-140822500D01*
X101749432Y-140823872D01*
X101749428Y-140823872D01*
X101659914Y-140842899D01*
X101563944Y-140863298D01*
X101557914Y-140865983D01*
X101557913Y-140865983D01*
X101390709Y-140940427D01*
X101390707Y-140940428D01*
X101384679Y-140943112D01*
X101379338Y-140946992D01*
X101379337Y-140946993D01*
X101245267Y-141044401D01*
X101225926Y-141058453D01*
X101094623Y-141204280D01*
X100996508Y-141374220D01*
X100994466Y-141380505D01*
X100944230Y-141535117D01*
X100935870Y-141560845D01*
X100915358Y-141756000D01*
X100508500Y-141756000D01*
X100508500Y-140241790D01*
X100528502Y-140173669D01*
X100582158Y-140127176D01*
X100634500Y-140115790D01*
X101201094Y-140115790D01*
X101263276Y-140109035D01*
X101399665Y-140057905D01*
X101516221Y-139970551D01*
X101603575Y-139853995D01*
X101654705Y-139717606D01*
X101661460Y-139655424D01*
X101661460Y-138560936D01*
X101654705Y-138498754D01*
X101603575Y-138362365D01*
X101516221Y-138245809D01*
X101399665Y-138158455D01*
X101263276Y-138107325D01*
X101201094Y-138100570D01*
X100634500Y-138100570D01*
X100566379Y-138080568D01*
X100519886Y-138026912D01*
X100508500Y-137974570D01*
X100508500Y-133417502D01*
X104347500Y-133417502D01*
X104350438Y-133454831D01*
X104369049Y-133518892D01*
X104394643Y-133606986D01*
X104396855Y-133614601D01*
X104413893Y-133643411D01*
X104477509Y-133750980D01*
X104477511Y-133750983D01*
X104481547Y-133757807D01*
X104599193Y-133875453D01*
X104606017Y-133879489D01*
X104606020Y-133879491D01*
X104670745Y-133917769D01*
X104742399Y-133960145D01*
X104750010Y-133962356D01*
X104750012Y-133962357D01*
X104802231Y-133977528D01*
X104902169Y-134006562D01*
X104908574Y-134007066D01*
X104908579Y-134007067D01*
X104937042Y-134009307D01*
X104937050Y-134009307D01*
X104939498Y-134009500D01*
X105372502Y-134009500D01*
X105374950Y-134009307D01*
X105374958Y-134009307D01*
X105403415Y-134007067D01*
X105409831Y-134006562D01*
X105409905Y-134007503D01*
X105474881Y-134014343D01*
X105530260Y-134058769D01*
X105546752Y-134091920D01*
X105591473Y-134229556D01*
X105686960Y-134394944D01*
X105814747Y-134536866D01*
X105969248Y-134649118D01*
X105975276Y-134651802D01*
X105975278Y-134651803D01*
X106137681Y-134724109D01*
X106143712Y-134726794D01*
X106237113Y-134746647D01*
X106324056Y-134765128D01*
X106324061Y-134765128D01*
X106330513Y-134766500D01*
X106521487Y-134766500D01*
X106527939Y-134765128D01*
X106527944Y-134765128D01*
X106614887Y-134746647D01*
X106708288Y-134726794D01*
X106714319Y-134724109D01*
X106876722Y-134651803D01*
X106876724Y-134651802D01*
X106882752Y-134649118D01*
X107037253Y-134536866D01*
X107165040Y-134394944D01*
X107260527Y-134229556D01*
X107319542Y-134047928D01*
X107320781Y-134036145D01*
X107338814Y-133864565D01*
X107339504Y-133858000D01*
X107334121Y-133806782D01*
X107320232Y-133674635D01*
X107320232Y-133674633D01*
X107319542Y-133668072D01*
X107260527Y-133486444D01*
X107245842Y-133461008D01*
X107168341Y-133326774D01*
X107165040Y-133321056D01*
X107037253Y-133179134D01*
X106882752Y-133066882D01*
X106876724Y-133064198D01*
X106876722Y-133064197D01*
X106714319Y-132991891D01*
X106714318Y-132991891D01*
X106708288Y-132989206D01*
X106614888Y-132969353D01*
X106527944Y-132950872D01*
X106527939Y-132950872D01*
X106521487Y-132949500D01*
X106465595Y-132949500D01*
X106397474Y-132929498D01*
X106376499Y-132912595D01*
X106001404Y-132537499D01*
X105967379Y-132475187D01*
X105964500Y-132448404D01*
X105964500Y-132260500D01*
X105984502Y-132192379D01*
X106038158Y-132145886D01*
X106090500Y-132134500D01*
X106322502Y-132134500D01*
X106324950Y-132134307D01*
X106324958Y-132134307D01*
X106353421Y-132132067D01*
X106353426Y-132132066D01*
X106359831Y-132131562D01*
X106459769Y-132102528D01*
X106511988Y-132087357D01*
X106511990Y-132087356D01*
X106519601Y-132085145D01*
X106558394Y-132062203D01*
X106655980Y-132004491D01*
X106655983Y-132004489D01*
X106662807Y-132000453D01*
X106780453Y-131882807D01*
X106784489Y-131875983D01*
X106784491Y-131875980D01*
X106861108Y-131746427D01*
X106865145Y-131739601D01*
X106867415Y-131731790D01*
X106909767Y-131586008D01*
X106911562Y-131579831D01*
X106912074Y-131573336D01*
X106914307Y-131544958D01*
X106914307Y-131544950D01*
X106914500Y-131542502D01*
X106914500Y-131539984D01*
X107208001Y-131539984D01*
X107208195Y-131544920D01*
X107210430Y-131573336D01*
X107212730Y-131585931D01*
X107255107Y-131731790D01*
X107261352Y-131746221D01*
X107337911Y-131875678D01*
X107347551Y-131888104D01*
X107453896Y-131994449D01*
X107466322Y-132004089D01*
X107595779Y-132080648D01*
X107610210Y-132086893D01*
X107744605Y-132125939D01*
X107758706Y-132125899D01*
X107762000Y-132118630D01*
X107762000Y-131160615D01*
X107757525Y-131145376D01*
X107756135Y-131144171D01*
X107748452Y-131142500D01*
X107226116Y-131142500D01*
X107210877Y-131146975D01*
X107209672Y-131148365D01*
X107208001Y-131156048D01*
X107208001Y-131539984D01*
X106914500Y-131539984D01*
X106914500Y-130616385D01*
X107208000Y-130616385D01*
X107212475Y-130631624D01*
X107213865Y-130632829D01*
X107221548Y-130634500D01*
X107743885Y-130634500D01*
X107759124Y-130630025D01*
X107760329Y-130628635D01*
X107762000Y-130620952D01*
X107762000Y-129664122D01*
X107758027Y-129650591D01*
X107750129Y-129649456D01*
X107610210Y-129690107D01*
X107595779Y-129696352D01*
X107466322Y-129772911D01*
X107453896Y-129782551D01*
X107347551Y-129888896D01*
X107337911Y-129901322D01*
X107261352Y-130030779D01*
X107255107Y-130045210D01*
X107212731Y-130191065D01*
X107210430Y-130203667D01*
X107208193Y-130232084D01*
X107208000Y-130237014D01*
X107208000Y-130616385D01*
X106914500Y-130616385D01*
X106914500Y-130234498D01*
X106914307Y-130232042D01*
X106912067Y-130203579D01*
X106912066Y-130203574D01*
X106911562Y-130197169D01*
X106870862Y-130057077D01*
X106867357Y-130045012D01*
X106867356Y-130045010D01*
X106865145Y-130037399D01*
X106780453Y-129894193D01*
X106783478Y-129892404D01*
X106763302Y-129841215D01*
X106777112Y-129771575D01*
X106822491Y-129722766D01*
X106836120Y-129714332D01*
X106842348Y-129710478D01*
X106967305Y-129585303D01*
X106973975Y-129574483D01*
X107056275Y-129440968D01*
X107056276Y-129440966D01*
X107060115Y-129434738D01*
X107115797Y-129266861D01*
X107116768Y-129257389D01*
X107126172Y-129165598D01*
X107126500Y-129162400D01*
X107126500Y-128361600D01*
X107115526Y-128255834D01*
X107110624Y-128241139D01*
X107061868Y-128095002D01*
X107059550Y-128088054D01*
X106966478Y-127937652D01*
X106879891Y-127851216D01*
X106845812Y-127788934D01*
X106850815Y-127718114D01*
X106879736Y-127673025D01*
X106962134Y-127590483D01*
X106967305Y-127585303D01*
X106973975Y-127574483D01*
X107056275Y-127440968D01*
X107056276Y-127440966D01*
X107060115Y-127434738D01*
X107115797Y-127266861D01*
X107116768Y-127257389D01*
X107126172Y-127165598D01*
X107126500Y-127162400D01*
X107126500Y-126361600D01*
X107115526Y-126255834D01*
X107110624Y-126241139D01*
X107061868Y-126095002D01*
X107059550Y-126088054D01*
X106966478Y-125937652D01*
X106841303Y-125812695D01*
X106835072Y-125808854D01*
X106696968Y-125723725D01*
X106696966Y-125723724D01*
X106690738Y-125719885D01*
X106637832Y-125702337D01*
X106579473Y-125661906D01*
X106552236Y-125596342D01*
X106551500Y-125582744D01*
X106551500Y-124520594D01*
X106571502Y-124452473D01*
X106588405Y-124431499D01*
X107413499Y-123606405D01*
X107475811Y-123572379D01*
X107502594Y-123569500D01*
X108003800Y-123569500D01*
X108071921Y-123589502D01*
X108091147Y-123605843D01*
X108091420Y-123605540D01*
X108096332Y-123609963D01*
X108100747Y-123614866D01*
X108115933Y-123625899D01*
X108243878Y-123718857D01*
X108255248Y-123727118D01*
X108261276Y-123729802D01*
X108261278Y-123729803D01*
X108423681Y-123802109D01*
X108429712Y-123804794D01*
X108523113Y-123824647D01*
X108610056Y-123843128D01*
X108610061Y-123843128D01*
X108616513Y-123844500D01*
X108807487Y-123844500D01*
X108813939Y-123843128D01*
X108813944Y-123843128D01*
X108917389Y-123821140D01*
X108990312Y-123805639D01*
X109061102Y-123811041D01*
X109117734Y-123853858D01*
X109142228Y-123920495D01*
X109134350Y-123970858D01*
X109134305Y-123970940D01*
X109132333Y-123978622D01*
X109129267Y-123990562D01*
X109122863Y-124009266D01*
X109114819Y-124027855D01*
X109113580Y-124035678D01*
X109113577Y-124035688D01*
X109107901Y-124071524D01*
X109105495Y-124083144D01*
X109094500Y-124125970D01*
X109094500Y-124146224D01*
X109092949Y-124165934D01*
X109089780Y-124185943D01*
X109090526Y-124193835D01*
X109093941Y-124229961D01*
X109094500Y-124241819D01*
X109094500Y-125566803D01*
X109074498Y-125634924D01*
X109020842Y-125681417D01*
X109008377Y-125686326D01*
X108960998Y-125702133D01*
X108960996Y-125702134D01*
X108954054Y-125704450D01*
X108947830Y-125708301D01*
X108947829Y-125708302D01*
X108921967Y-125724306D01*
X108803652Y-125797522D01*
X108678695Y-125922697D01*
X108674855Y-125928927D01*
X108674854Y-125928928D01*
X108654815Y-125961438D01*
X108585885Y-126073262D01*
X108569945Y-126121321D01*
X108547713Y-126188349D01*
X108530203Y-126241139D01*
X108529503Y-126247975D01*
X108529502Y-126247978D01*
X108527995Y-126262692D01*
X108519500Y-126345600D01*
X108519500Y-127146400D01*
X108530474Y-127252166D01*
X108532655Y-127258702D01*
X108532655Y-127258704D01*
X108537993Y-127274704D01*
X108586450Y-127419946D01*
X108679522Y-127570348D01*
X108684704Y-127575521D01*
X108766109Y-127656784D01*
X108800188Y-127719066D01*
X108795185Y-127789886D01*
X108766264Y-127834975D01*
X108690940Y-127910431D01*
X108678695Y-127922697D01*
X108674855Y-127928927D01*
X108674854Y-127928928D01*
X108664992Y-127944928D01*
X108585885Y-128073262D01*
X108530203Y-128241139D01*
X108529503Y-128247975D01*
X108529502Y-128247978D01*
X108527995Y-128262692D01*
X108519500Y-128345600D01*
X108519500Y-129146400D01*
X108530474Y-129252166D01*
X108532655Y-129258702D01*
X108532655Y-129258704D01*
X108537993Y-129274704D01*
X108586450Y-129419946D01*
X108590304Y-129426174D01*
X108590305Y-129426176D01*
X108673508Y-129560629D01*
X108692346Y-129629081D01*
X108671185Y-129696850D01*
X108616744Y-129742422D01*
X108546308Y-129751326D01*
X108502225Y-129735386D01*
X108436221Y-129696352D01*
X108421790Y-129690107D01*
X108287395Y-129651061D01*
X108273294Y-129651101D01*
X108270000Y-129658370D01*
X108270000Y-130616385D01*
X108274475Y-130631624D01*
X108275865Y-130632829D01*
X108283548Y-130634500D01*
X108805884Y-130634500D01*
X108821123Y-130630025D01*
X108822328Y-130628635D01*
X108823999Y-130620952D01*
X108823999Y-130237017D01*
X108823805Y-130232080D01*
X108821570Y-130203664D01*
X108819270Y-130191069D01*
X108776893Y-130045210D01*
X108770648Y-130030779D01*
X108698563Y-129908889D01*
X108681104Y-129840073D01*
X108703621Y-129772741D01*
X108758965Y-129728272D01*
X108829566Y-129720784D01*
X108873133Y-129737490D01*
X108949032Y-129784275D01*
X108955262Y-129788115D01*
X109003501Y-129804115D01*
X109008168Y-129805663D01*
X109066527Y-129846094D01*
X109093764Y-129911658D01*
X109094500Y-129925256D01*
X109094500Y-130621733D01*
X109093973Y-130632916D01*
X109092298Y-130640409D01*
X109092547Y-130648335D01*
X109092547Y-130648336D01*
X109094438Y-130708486D01*
X109094500Y-130712445D01*
X109094500Y-130740356D01*
X109094997Y-130744290D01*
X109094997Y-130744291D01*
X109095005Y-130744356D01*
X109095938Y-130756193D01*
X109097327Y-130800389D01*
X109099538Y-130807999D01*
X109102497Y-130818185D01*
X109107500Y-130853337D01*
X109107500Y-131391500D01*
X109087498Y-131459621D01*
X109033842Y-131506114D01*
X108981500Y-131517500D01*
X108950000Y-131517500D01*
X108881879Y-131497498D01*
X108835386Y-131443842D01*
X108824000Y-131391500D01*
X108824000Y-131160615D01*
X108819525Y-131145376D01*
X108818135Y-131144171D01*
X108810452Y-131142500D01*
X108288115Y-131142500D01*
X108272876Y-131146975D01*
X108271671Y-131148365D01*
X108270000Y-131156048D01*
X108270000Y-131771158D01*
X108252453Y-131835297D01*
X108206855Y-131912399D01*
X108160438Y-132072169D01*
X108159934Y-132078574D01*
X108159933Y-132078579D01*
X108157693Y-132107042D01*
X108157500Y-132109498D01*
X108157500Y-133417502D01*
X108160438Y-133454831D01*
X108179049Y-133518892D01*
X108204643Y-133606986D01*
X108206855Y-133614601D01*
X108223893Y-133643411D01*
X108287509Y-133750980D01*
X108287511Y-133750983D01*
X108291547Y-133757807D01*
X108409193Y-133875453D01*
X108416017Y-133879489D01*
X108416020Y-133879491D01*
X108480745Y-133917769D01*
X108552399Y-133960145D01*
X108560010Y-133962356D01*
X108560012Y-133962357D01*
X108612231Y-133977528D01*
X108712169Y-134006562D01*
X108718574Y-134007066D01*
X108718579Y-134007067D01*
X108738098Y-134008603D01*
X108739944Y-134008748D01*
X108806285Y-134034034D01*
X108849890Y-134095423D01*
X108893473Y-134229556D01*
X108988960Y-134394944D01*
X109116747Y-134536866D01*
X109271248Y-134649118D01*
X109277276Y-134651802D01*
X109277278Y-134651803D01*
X109439681Y-134724109D01*
X109445712Y-134726794D01*
X109539113Y-134746647D01*
X109626056Y-134765128D01*
X109626061Y-134765128D01*
X109632513Y-134766500D01*
X109823487Y-134766500D01*
X109829939Y-134765128D01*
X109829944Y-134765128D01*
X109916887Y-134746647D01*
X110010288Y-134726794D01*
X110016319Y-134724109D01*
X110178722Y-134651803D01*
X110178724Y-134651802D01*
X110184752Y-134649118D01*
X110339253Y-134536866D01*
X110467040Y-134394944D01*
X110562527Y-134229556D01*
X110621542Y-134047928D01*
X110621682Y-134046599D01*
X110654482Y-133985844D01*
X110716632Y-133951523D01*
X110787471Y-133956252D01*
X110844508Y-133998528D01*
X110866276Y-134046192D01*
X110866458Y-134047928D01*
X110925473Y-134229556D01*
X111020960Y-134394944D01*
X111148747Y-134536866D01*
X111303248Y-134649118D01*
X111309276Y-134651802D01*
X111309278Y-134651803D01*
X111471681Y-134724109D01*
X111477712Y-134726794D01*
X111571113Y-134746647D01*
X111658056Y-134765128D01*
X111658061Y-134765128D01*
X111664513Y-134766500D01*
X111855487Y-134766500D01*
X111861939Y-134765128D01*
X111861944Y-134765128D01*
X111948887Y-134746647D01*
X112042288Y-134726794D01*
X112048319Y-134724109D01*
X112210722Y-134651803D01*
X112210724Y-134651802D01*
X112216752Y-134649118D01*
X112371253Y-134536866D01*
X112499040Y-134394944D01*
X112594527Y-134229556D01*
X112637739Y-134096564D01*
X112677813Y-134037958D01*
X112743209Y-134010321D01*
X112757572Y-134009500D01*
X112992502Y-134009500D01*
X112994950Y-134009307D01*
X112994958Y-134009307D01*
X113023421Y-134007067D01*
X113023426Y-134007066D01*
X113029831Y-134006562D01*
X113129769Y-133977528D01*
X113181988Y-133962357D01*
X113181990Y-133962356D01*
X113189601Y-133960145D01*
X113216148Y-133944445D01*
X113284964Y-133926986D01*
X113352295Y-133949503D01*
X113396764Y-134004848D01*
X113404374Y-134034904D01*
X113404394Y-134034900D01*
X113404502Y-134035410D01*
X113405595Y-134039725D01*
X113405767Y-134041357D01*
X113406458Y-134047928D01*
X113465473Y-134229556D01*
X113560960Y-134394944D01*
X113688747Y-134536866D01*
X113843248Y-134649118D01*
X113849276Y-134651802D01*
X113849278Y-134651803D01*
X114011681Y-134724109D01*
X114017712Y-134726794D01*
X114111113Y-134746647D01*
X114198056Y-134765128D01*
X114198061Y-134765128D01*
X114204513Y-134766500D01*
X114395487Y-134766500D01*
X114401939Y-134765128D01*
X114401944Y-134765128D01*
X114488887Y-134746647D01*
X114582288Y-134726794D01*
X114588319Y-134724109D01*
X114750722Y-134651803D01*
X114750724Y-134651802D01*
X114756752Y-134649118D01*
X114911253Y-134536866D01*
X115039040Y-134394944D01*
X115134527Y-134229556D01*
X115193542Y-134047928D01*
X115194781Y-134036145D01*
X115210907Y-133882708D01*
X115237920Y-133817051D01*
X115247122Y-133806782D01*
X115588957Y-133464948D01*
X115651269Y-133430923D01*
X115722085Y-133435988D01*
X115778920Y-133478535D01*
X115799049Y-133518892D01*
X115824642Y-133606986D01*
X115824643Y-133606988D01*
X115826855Y-133614601D01*
X115843893Y-133643411D01*
X115907509Y-133750980D01*
X115907511Y-133750983D01*
X115911547Y-133757807D01*
X116029193Y-133875453D01*
X116036017Y-133879489D01*
X116036020Y-133879491D01*
X116100745Y-133917769D01*
X116172399Y-133960145D01*
X116180010Y-133962356D01*
X116180012Y-133962357D01*
X116232231Y-133977528D01*
X116332169Y-134006562D01*
X116338574Y-134007066D01*
X116338579Y-134007067D01*
X116367042Y-134009307D01*
X116367050Y-134009307D01*
X116369498Y-134009500D01*
X116802502Y-134009500D01*
X116804950Y-134009307D01*
X116804958Y-134009307D01*
X116833421Y-134007067D01*
X116833426Y-134007066D01*
X116839831Y-134006562D01*
X116939769Y-133977528D01*
X116991988Y-133962357D01*
X116991990Y-133962356D01*
X116999601Y-133960145D01*
X117071255Y-133917769D01*
X117135980Y-133879491D01*
X117135983Y-133879489D01*
X117142807Y-133875453D01*
X117260453Y-133757807D01*
X117264489Y-133750983D01*
X117264491Y-133750980D01*
X117328107Y-133643411D01*
X117345145Y-133614601D01*
X117347358Y-133606986D01*
X117372951Y-133518892D01*
X117391562Y-133454831D01*
X117394500Y-133417502D01*
X117394500Y-132260500D01*
X117414502Y-132192379D01*
X117468158Y-132145886D01*
X117520500Y-132134500D01*
X117752502Y-132134500D01*
X117754950Y-132134307D01*
X117754958Y-132134307D01*
X117783421Y-132132067D01*
X117783426Y-132132066D01*
X117789831Y-132131562D01*
X117889769Y-132102528D01*
X117941988Y-132087357D01*
X117941990Y-132087356D01*
X117949601Y-132085145D01*
X117988394Y-132062203D01*
X118085980Y-132004491D01*
X118085983Y-132004489D01*
X118092807Y-132000453D01*
X118210453Y-131882807D01*
X118214489Y-131875983D01*
X118214491Y-131875980D01*
X118291108Y-131746427D01*
X118295145Y-131739601D01*
X118297415Y-131731790D01*
X118339767Y-131586008D01*
X118341562Y-131579831D01*
X118342074Y-131573336D01*
X118344307Y-131544958D01*
X118344307Y-131544950D01*
X118344500Y-131542502D01*
X118344500Y-130234498D01*
X118344307Y-130232042D01*
X118342067Y-130203579D01*
X118342066Y-130203574D01*
X118341562Y-130197169D01*
X118300862Y-130057077D01*
X118297357Y-130045012D01*
X118297356Y-130045010D01*
X118295145Y-130037399D01*
X118210453Y-129894193D01*
X118213478Y-129892404D01*
X118193302Y-129841215D01*
X118207112Y-129771575D01*
X118252491Y-129722766D01*
X118266120Y-129714332D01*
X118272348Y-129710478D01*
X118397305Y-129585303D01*
X118403975Y-129574483D01*
X118486275Y-129440968D01*
X118486276Y-129440966D01*
X118490115Y-129434738D01*
X118545797Y-129266861D01*
X118546768Y-129257389D01*
X118556172Y-129165598D01*
X118556500Y-129162400D01*
X118556500Y-128361600D01*
X118545526Y-128255834D01*
X118540624Y-128241139D01*
X118491868Y-128095002D01*
X118489550Y-128088054D01*
X118396478Y-127937652D01*
X118309891Y-127851216D01*
X118275812Y-127788934D01*
X118280815Y-127718114D01*
X118309736Y-127673025D01*
X118392134Y-127590483D01*
X118397305Y-127585303D01*
X118403975Y-127574483D01*
X118486275Y-127440968D01*
X118486276Y-127440966D01*
X118490115Y-127434738D01*
X118545797Y-127266861D01*
X118546768Y-127257389D01*
X118556172Y-127165598D01*
X118556500Y-127162400D01*
X118556500Y-126501595D01*
X118576502Y-126433474D01*
X118593405Y-126412500D01*
X118756253Y-126249652D01*
X118764539Y-126242112D01*
X118771018Y-126238000D01*
X118817644Y-126188348D01*
X118820398Y-126185507D01*
X118840135Y-126165770D01*
X118842615Y-126162573D01*
X118850320Y-126153551D01*
X118875159Y-126127100D01*
X118880586Y-126121321D01*
X118884405Y-126114375D01*
X118884407Y-126114372D01*
X118890348Y-126103566D01*
X118901199Y-126087047D01*
X118908758Y-126077301D01*
X118913614Y-126071041D01*
X118916759Y-126063772D01*
X118916762Y-126063768D01*
X118931174Y-126030463D01*
X118936391Y-126019813D01*
X118957695Y-125981060D01*
X118962733Y-125961437D01*
X118969137Y-125942734D01*
X118974033Y-125931420D01*
X118974033Y-125931419D01*
X118977181Y-125924145D01*
X118978420Y-125916322D01*
X118978423Y-125916312D01*
X118984099Y-125880476D01*
X118986505Y-125868856D01*
X118995528Y-125833711D01*
X118995528Y-125833710D01*
X118997500Y-125826030D01*
X118997500Y-125805776D01*
X118999051Y-125786065D01*
X119000980Y-125773886D01*
X119002220Y-125766057D01*
X118998059Y-125722038D01*
X118997500Y-125710181D01*
X118997500Y-123638524D01*
X119017502Y-123570403D01*
X119029858Y-123554221D01*
X119103040Y-123472944D01*
X119198527Y-123307556D01*
X119257542Y-123125928D01*
X119258232Y-123119364D01*
X119259254Y-123114556D01*
X119292982Y-123052083D01*
X119355132Y-123017762D01*
X119425971Y-123022491D01*
X119483008Y-123064767D01*
X119508135Y-123131168D01*
X119508500Y-123140754D01*
X119508500Y-133543405D01*
X119488498Y-133611526D01*
X119471595Y-133632500D01*
X117651500Y-135452595D01*
X117589188Y-135486621D01*
X117562405Y-135489500D01*
X117506513Y-135489500D01*
X117500061Y-135490872D01*
X117500056Y-135490872D01*
X117413112Y-135509353D01*
X117319712Y-135529206D01*
X117313682Y-135531891D01*
X117313681Y-135531891D01*
X117151278Y-135604197D01*
X117151276Y-135604198D01*
X117145248Y-135606882D01*
X116990747Y-135719134D01*
X116862960Y-135861056D01*
X116767473Y-136026444D01*
X116708458Y-136208072D01*
X116707768Y-136214633D01*
X116707768Y-136214635D01*
X116699492Y-136293379D01*
X116688496Y-136398000D01*
X116708458Y-136587928D01*
X116767473Y-136769556D01*
X116862960Y-136934944D01*
X116990747Y-137076866D01*
X117145248Y-137189118D01*
X117151276Y-137191802D01*
X117151278Y-137191803D01*
X117313681Y-137264109D01*
X117319712Y-137266794D01*
X117413112Y-137286647D01*
X117500056Y-137305128D01*
X117500061Y-137305128D01*
X117506513Y-137306500D01*
X117697487Y-137306500D01*
X117703939Y-137305128D01*
X117703944Y-137305128D01*
X117790888Y-137286647D01*
X117884288Y-137266794D01*
X117890319Y-137264109D01*
X118052722Y-137191803D01*
X118052724Y-137191802D01*
X118058752Y-137189118D01*
X118213253Y-137076866D01*
X118341040Y-136934944D01*
X118436527Y-136769556D01*
X118495542Y-136587928D01*
X118512907Y-136422706D01*
X118539920Y-136357050D01*
X118549122Y-136346782D01*
X120534247Y-134361657D01*
X120542537Y-134354113D01*
X120549018Y-134350000D01*
X120595659Y-134300332D01*
X120598413Y-134297491D01*
X120618134Y-134277770D01*
X120620612Y-134274575D01*
X120628318Y-134265553D01*
X120653158Y-134239101D01*
X120658586Y-134233321D01*
X120668346Y-134215568D01*
X120679199Y-134199045D01*
X120686753Y-134189306D01*
X120691613Y-134183041D01*
X120709176Y-134142457D01*
X120714383Y-134131827D01*
X120735695Y-134093060D01*
X120737666Y-134085383D01*
X120737668Y-134085378D01*
X120740732Y-134073442D01*
X120747138Y-134054730D01*
X120749914Y-134048317D01*
X120755181Y-134036145D01*
X120759521Y-134008748D01*
X120762097Y-133992481D01*
X120764504Y-133980860D01*
X120773528Y-133945711D01*
X120773528Y-133945710D01*
X120775500Y-133938030D01*
X120775500Y-133917769D01*
X120777051Y-133898058D01*
X120778979Y-133885885D01*
X120780219Y-133878057D01*
X120776059Y-133834046D01*
X120775500Y-133822189D01*
X120775500Y-112092767D01*
X120776027Y-112081584D01*
X120777702Y-112074091D01*
X120775562Y-112006000D01*
X120775500Y-112002043D01*
X120775500Y-111974144D01*
X120774996Y-111970153D01*
X120774063Y-111958311D01*
X120772923Y-111922036D01*
X120772674Y-111914111D01*
X120770462Y-111906497D01*
X120770461Y-111906492D01*
X120767023Y-111894659D01*
X120763012Y-111875295D01*
X120762112Y-111868166D01*
X120760474Y-111855203D01*
X120757557Y-111847836D01*
X120757556Y-111847831D01*
X120744198Y-111814092D01*
X120740354Y-111802865D01*
X120730230Y-111768022D01*
X120728018Y-111760407D01*
X120717707Y-111742972D01*
X120709012Y-111725224D01*
X120701552Y-111706383D01*
X120675564Y-111670613D01*
X120669048Y-111660693D01*
X120650580Y-111629465D01*
X120650578Y-111629462D01*
X120646542Y-111622638D01*
X120632221Y-111608317D01*
X120619380Y-111593283D01*
X120612131Y-111583306D01*
X120607472Y-111576893D01*
X120573395Y-111548702D01*
X120564616Y-111540712D01*
X118613652Y-109589747D01*
X118606112Y-109581461D01*
X118602000Y-109574982D01*
X118576034Y-109550598D01*
X118552349Y-109528357D01*
X118549507Y-109525602D01*
X118529770Y-109505865D01*
X118526573Y-109503385D01*
X118517551Y-109495680D01*
X118504122Y-109483069D01*
X118485321Y-109465414D01*
X118478375Y-109461595D01*
X118478372Y-109461593D01*
X118467566Y-109455652D01*
X118451047Y-109444801D01*
X118450583Y-109444441D01*
X118435041Y-109432386D01*
X118427772Y-109429241D01*
X118427768Y-109429238D01*
X118394463Y-109414826D01*
X118383813Y-109409609D01*
X118345060Y-109388305D01*
X118325437Y-109383267D01*
X118306734Y-109376863D01*
X118295420Y-109371967D01*
X118295419Y-109371967D01*
X118288145Y-109368819D01*
X118280322Y-109367580D01*
X118280312Y-109367577D01*
X118244476Y-109361901D01*
X118232856Y-109359495D01*
X118197711Y-109350472D01*
X118197710Y-109350472D01*
X118190030Y-109348500D01*
X118169776Y-109348500D01*
X118150065Y-109346949D01*
X118137886Y-109345020D01*
X118130057Y-109343780D01*
X118100786Y-109346547D01*
X118086039Y-109347941D01*
X118074181Y-109348500D01*
X107266767Y-109348500D01*
X107255584Y-109347973D01*
X107248091Y-109346298D01*
X107240165Y-109346547D01*
X107240164Y-109346547D01*
X107180001Y-109348438D01*
X107176043Y-109348500D01*
X107148144Y-109348500D01*
X107144154Y-109349004D01*
X107132320Y-109349936D01*
X107088111Y-109351326D01*
X107080497Y-109353538D01*
X107080492Y-109353539D01*
X107068659Y-109356977D01*
X107049296Y-109360988D01*
X107029203Y-109363526D01*
X107021836Y-109366443D01*
X107021831Y-109366444D01*
X106988092Y-109379802D01*
X106976865Y-109383646D01*
X106934407Y-109395982D01*
X106927581Y-109400019D01*
X106916972Y-109406293D01*
X106899224Y-109414988D01*
X106880383Y-109422448D01*
X106873967Y-109427110D01*
X106873966Y-109427110D01*
X106844613Y-109448436D01*
X106834693Y-109454952D01*
X106803465Y-109473420D01*
X106803462Y-109473422D01*
X106796638Y-109477458D01*
X106782317Y-109491779D01*
X106767284Y-109504619D01*
X106750893Y-109516528D01*
X106745843Y-109522632D01*
X106745838Y-109522637D01*
X106722707Y-109550598D01*
X106714717Y-109559379D01*
X106221499Y-110052596D01*
X106159187Y-110086621D01*
X106132404Y-110089500D01*
X106076513Y-110089500D01*
X106070061Y-110090872D01*
X106070056Y-110090872D01*
X105983112Y-110109353D01*
X105889712Y-110129206D01*
X105883682Y-110131891D01*
X105883681Y-110131891D01*
X105721278Y-110204197D01*
X105721276Y-110204198D01*
X105715248Y-110206882D01*
X105560747Y-110319134D01*
X105432960Y-110461056D01*
X105429659Y-110466774D01*
X105343792Y-110615500D01*
X105337473Y-110626444D01*
X105278458Y-110808072D01*
X105258496Y-110998000D01*
X105278458Y-111187928D01*
X105337473Y-111369556D01*
X105432960Y-111534944D01*
X105437378Y-111539851D01*
X105437379Y-111539852D01*
X105488383Y-111596498D01*
X105560747Y-111676866D01*
X105715248Y-111789118D01*
X105721276Y-111791802D01*
X105721278Y-111791803D01*
X105847120Y-111847831D01*
X105889712Y-111866794D01*
X105983112Y-111886647D01*
X106070056Y-111905128D01*
X106070061Y-111905128D01*
X106076513Y-111906500D01*
X106267487Y-111906500D01*
X106273939Y-111905128D01*
X106273944Y-111905128D01*
X106360887Y-111886647D01*
X106454288Y-111866794D01*
X106460315Y-111864111D01*
X106460323Y-111864108D01*
X106564252Y-111817836D01*
X106634619Y-111808402D01*
X106698916Y-111838509D01*
X106736729Y-111898598D01*
X106741500Y-111932943D01*
X106741500Y-112948134D01*
X106748255Y-113010316D01*
X106799385Y-113146705D01*
X106886739Y-113263261D01*
X107003295Y-113350615D01*
X107139684Y-113401745D01*
X107201866Y-113408500D01*
X108848134Y-113408500D01*
X108910316Y-113401745D01*
X109046705Y-113350615D01*
X109163261Y-113263261D01*
X109250615Y-113146705D01*
X109301745Y-113010316D01*
X109303312Y-112995892D01*
X109330554Y-112930330D01*
X109388917Y-112889904D01*
X109428575Y-112883500D01*
X114571425Y-112883500D01*
X114639546Y-112903502D01*
X114686039Y-112957158D01*
X114696688Y-112995892D01*
X114698255Y-113010316D01*
X114749385Y-113146705D01*
X114836739Y-113263261D01*
X114953295Y-113350615D01*
X115089684Y-113401745D01*
X115151866Y-113408500D01*
X115615500Y-113408500D01*
X115683621Y-113428502D01*
X115730114Y-113482158D01*
X115741500Y-113534500D01*
X115741500Y-122276476D01*
X115721498Y-122344597D01*
X115709142Y-122360779D01*
X115635960Y-122442056D01*
X115540473Y-122607444D01*
X115481458Y-122789072D01*
X115480768Y-122795633D01*
X115480768Y-122795635D01*
X115464124Y-122953996D01*
X115461036Y-122961500D01*
X115462101Y-122973241D01*
X115461496Y-122979000D01*
X115462186Y-122985565D01*
X115476939Y-123125928D01*
X115481458Y-123168928D01*
X115540473Y-123350556D01*
X115635960Y-123515944D01*
X115640378Y-123520851D01*
X115640379Y-123520852D01*
X115728522Y-123618745D01*
X115763747Y-123657866D01*
X115918248Y-123770118D01*
X115924276Y-123772802D01*
X115924278Y-123772803D01*
X116086681Y-123845109D01*
X116092712Y-123847794D01*
X116186113Y-123867647D01*
X116273056Y-123886128D01*
X116273061Y-123886128D01*
X116279513Y-123887500D01*
X116470487Y-123887500D01*
X116476939Y-123886128D01*
X116476944Y-123886128D01*
X116563887Y-123867647D01*
X116657288Y-123847794D01*
X116663319Y-123845109D01*
X116825722Y-123772803D01*
X116825724Y-123772802D01*
X116831752Y-123770118D01*
X116986253Y-123657866D01*
X117021478Y-123618745D01*
X117109621Y-123520852D01*
X117109622Y-123520851D01*
X117114040Y-123515944D01*
X117209527Y-123350556D01*
X117256653Y-123205518D01*
X117296727Y-123146913D01*
X117362124Y-123119276D01*
X117432080Y-123131383D01*
X117484386Y-123179389D01*
X117496319Y-123205518D01*
X117529473Y-123307556D01*
X117624960Y-123472944D01*
X117698137Y-123554215D01*
X117728853Y-123618221D01*
X117730500Y-123638524D01*
X117730500Y-125431406D01*
X117710498Y-125499527D01*
X117693595Y-125520501D01*
X117597501Y-125616595D01*
X117535189Y-125650621D01*
X117508406Y-125653500D01*
X116847600Y-125653500D01*
X116844354Y-125653837D01*
X116844350Y-125653837D01*
X116748692Y-125663762D01*
X116748688Y-125663763D01*
X116741834Y-125664474D01*
X116735298Y-125666655D01*
X116735296Y-125666655D01*
X116628378Y-125702326D01*
X116574054Y-125720450D01*
X116423652Y-125813522D01*
X116298695Y-125938697D01*
X116294855Y-125944927D01*
X116294854Y-125944928D01*
X116215748Y-126073262D01*
X116205885Y-126089262D01*
X116195252Y-126121321D01*
X116153242Y-126247978D01*
X116150203Y-126257139D01*
X116139500Y-126361600D01*
X116139500Y-127162400D01*
X116139837Y-127165646D01*
X116139837Y-127165650D01*
X116149356Y-127257389D01*
X116150474Y-127268166D01*
X116206450Y-127435946D01*
X116299522Y-127586348D01*
X116304704Y-127591521D01*
X116386109Y-127672784D01*
X116420188Y-127735066D01*
X116415185Y-127805886D01*
X116386264Y-127850975D01*
X116320874Y-127916479D01*
X116298695Y-127938697D01*
X116294855Y-127944927D01*
X116294854Y-127944928D01*
X116215748Y-128073262D01*
X116205885Y-128089262D01*
X116203581Y-128096209D01*
X116153242Y-128247978D01*
X116150203Y-128257139D01*
X116139500Y-128361600D01*
X116139500Y-129162400D01*
X116139837Y-129165646D01*
X116139837Y-129165650D01*
X116149356Y-129257389D01*
X116150474Y-129268166D01*
X116206450Y-129435946D01*
X116277892Y-129551394D01*
X116296729Y-129619846D01*
X116275568Y-129687616D01*
X116221127Y-129733187D01*
X116150690Y-129742090D01*
X116106607Y-129726150D01*
X116056223Y-129696353D01*
X116041790Y-129690107D01*
X115907395Y-129651061D01*
X115893294Y-129651101D01*
X115890000Y-129658370D01*
X115890000Y-130616385D01*
X115894475Y-130631624D01*
X115895865Y-130632829D01*
X115903548Y-130634500D01*
X116425884Y-130634500D01*
X116441123Y-130630025D01*
X116442328Y-130628635D01*
X116443999Y-130620952D01*
X116443999Y-130237017D01*
X116443805Y-130232080D01*
X116441570Y-130203664D01*
X116439270Y-130191069D01*
X116396893Y-130045210D01*
X116390648Y-130030779D01*
X116333454Y-129934068D01*
X116315995Y-129865251D01*
X116338512Y-129797920D01*
X116393857Y-129753451D01*
X116464457Y-129745963D01*
X116508024Y-129762669D01*
X116569032Y-129800275D01*
X116575262Y-129804115D01*
X116628168Y-129821663D01*
X116686527Y-129862094D01*
X116713764Y-129927658D01*
X116714500Y-129941256D01*
X116714500Y-130621733D01*
X116713973Y-130632916D01*
X116712298Y-130640409D01*
X116712547Y-130648335D01*
X116712547Y-130648336D01*
X116714438Y-130708486D01*
X116714500Y-130712445D01*
X116714500Y-130740356D01*
X116714997Y-130744290D01*
X116714997Y-130744291D01*
X116715005Y-130744356D01*
X116715938Y-130756193D01*
X116717327Y-130800389D01*
X116719538Y-130807999D01*
X116722497Y-130818185D01*
X116727500Y-130853337D01*
X116727500Y-131391500D01*
X116707498Y-131459621D01*
X116653842Y-131506114D01*
X116601500Y-131517500D01*
X116570000Y-131517500D01*
X116501879Y-131497498D01*
X116455386Y-131443842D01*
X116444000Y-131391500D01*
X116444000Y-131160615D01*
X116439525Y-131145376D01*
X116438135Y-131144171D01*
X116430452Y-131142500D01*
X114846116Y-131142500D01*
X114830877Y-131146975D01*
X114829672Y-131148365D01*
X114828001Y-131156048D01*
X114828001Y-131539984D01*
X114828195Y-131544920D01*
X114830430Y-131573336D01*
X114832730Y-131585931D01*
X114875107Y-131731790D01*
X114881352Y-131746221D01*
X114957911Y-131875678D01*
X114967551Y-131888104D01*
X115073898Y-131994451D01*
X115087039Y-132004645D01*
X115128604Y-132062203D01*
X115132451Y-132133095D01*
X115097361Y-132194814D01*
X115083869Y-132206138D01*
X115051113Y-132229936D01*
X115041193Y-132236452D01*
X115009965Y-132254920D01*
X115009962Y-132254922D01*
X115003138Y-132258958D01*
X114988817Y-132273279D01*
X114973784Y-132286119D01*
X114957393Y-132298028D01*
X114952343Y-132304132D01*
X114952338Y-132304137D01*
X114929207Y-132332098D01*
X114921217Y-132340879D01*
X114349499Y-132912596D01*
X114287187Y-132946621D01*
X114260404Y-132949500D01*
X114204513Y-132949500D01*
X114198061Y-132950872D01*
X114198056Y-132950872D01*
X114111112Y-132969353D01*
X114017712Y-132989206D01*
X114011682Y-132991891D01*
X114011681Y-132991891D01*
X113849278Y-133064197D01*
X113849276Y-133064198D01*
X113843248Y-133066882D01*
X113837907Y-133070762D01*
X113837906Y-133070763D01*
X113784561Y-133109521D01*
X113717694Y-133133379D01*
X113648542Y-133117299D01*
X113599062Y-133066386D01*
X113584500Y-133007585D01*
X113584500Y-132260500D01*
X113604502Y-132192379D01*
X113658158Y-132145886D01*
X113710500Y-132134500D01*
X113942502Y-132134500D01*
X113944950Y-132134307D01*
X113944958Y-132134307D01*
X113973421Y-132132067D01*
X113973426Y-132132066D01*
X113979831Y-132131562D01*
X114079769Y-132102528D01*
X114131988Y-132087357D01*
X114131990Y-132087356D01*
X114139601Y-132085145D01*
X114178394Y-132062203D01*
X114275980Y-132004491D01*
X114275983Y-132004489D01*
X114282807Y-132000453D01*
X114400453Y-131882807D01*
X114404489Y-131875983D01*
X114404491Y-131875980D01*
X114481108Y-131746427D01*
X114485145Y-131739601D01*
X114487415Y-131731790D01*
X114529767Y-131586008D01*
X114531562Y-131579831D01*
X114532074Y-131573336D01*
X114534307Y-131544958D01*
X114534307Y-131544950D01*
X114534500Y-131542502D01*
X114534500Y-130616385D01*
X114828000Y-130616385D01*
X114832475Y-130631624D01*
X114833865Y-130632829D01*
X114841548Y-130634500D01*
X115363885Y-130634500D01*
X115379124Y-130630025D01*
X115380329Y-130628635D01*
X115382000Y-130620952D01*
X115382000Y-129664122D01*
X115378027Y-129650591D01*
X115370129Y-129649456D01*
X115230210Y-129690107D01*
X115215779Y-129696352D01*
X115086322Y-129772911D01*
X115073896Y-129782551D01*
X114967551Y-129888896D01*
X114957911Y-129901322D01*
X114881352Y-130030779D01*
X114875107Y-130045210D01*
X114832731Y-130191065D01*
X114830430Y-130203667D01*
X114828193Y-130232084D01*
X114828000Y-130237014D01*
X114828000Y-130616385D01*
X114534500Y-130616385D01*
X114534500Y-130234498D01*
X114534307Y-130232042D01*
X114532067Y-130203579D01*
X114532066Y-130203574D01*
X114531562Y-130197169D01*
X114490862Y-130057077D01*
X114487357Y-130045012D01*
X114487356Y-130045010D01*
X114485145Y-130037399D01*
X114400453Y-129894193D01*
X114403478Y-129892404D01*
X114383302Y-129841215D01*
X114397112Y-129771575D01*
X114442491Y-129722766D01*
X114456120Y-129714332D01*
X114462348Y-129710478D01*
X114587305Y-129585303D01*
X114593975Y-129574483D01*
X114676275Y-129440968D01*
X114676276Y-129440966D01*
X114680115Y-129434738D01*
X114735797Y-129266861D01*
X114736768Y-129257389D01*
X114746172Y-129165598D01*
X114746500Y-129162400D01*
X114746500Y-128361600D01*
X114735526Y-128255834D01*
X114730624Y-128241139D01*
X114681868Y-128095002D01*
X114679550Y-128088054D01*
X114586478Y-127937652D01*
X114499891Y-127851216D01*
X114465812Y-127788934D01*
X114470815Y-127718114D01*
X114499736Y-127673025D01*
X114582134Y-127590483D01*
X114587305Y-127585303D01*
X114593975Y-127574483D01*
X114676275Y-127440968D01*
X114676276Y-127440966D01*
X114680115Y-127434738D01*
X114735797Y-127266861D01*
X114736768Y-127257389D01*
X114746172Y-127165598D01*
X114746500Y-127162400D01*
X114746500Y-126361600D01*
X114735526Y-126255834D01*
X114730624Y-126241139D01*
X114681868Y-126095002D01*
X114679550Y-126088054D01*
X114586478Y-125937652D01*
X114461303Y-125812695D01*
X114455072Y-125808854D01*
X114316968Y-125723725D01*
X114316966Y-125723724D01*
X114310738Y-125719885D01*
X114257832Y-125702337D01*
X114199473Y-125661906D01*
X114172236Y-125596342D01*
X114171500Y-125582744D01*
X114171500Y-124012594D01*
X114191502Y-123944473D01*
X114208405Y-123923499D01*
X114250499Y-123881405D01*
X114312811Y-123847379D01*
X114339594Y-123844500D01*
X114395487Y-123844500D01*
X114401939Y-123843128D01*
X114401944Y-123843128D01*
X114488887Y-123824647D01*
X114582288Y-123804794D01*
X114588319Y-123802109D01*
X114750722Y-123729803D01*
X114750724Y-123729802D01*
X114756752Y-123727118D01*
X114774808Y-123714000D01*
X114858828Y-123652955D01*
X114911253Y-123614866D01*
X114947019Y-123575144D01*
X115034621Y-123477852D01*
X115034625Y-123477847D01*
X115039040Y-123472944D01*
X115134527Y-123307556D01*
X115193542Y-123125928D01*
X115210876Y-122961004D01*
X115213964Y-122953500D01*
X115212899Y-122941759D01*
X115213504Y-122936000D01*
X115201992Y-122826470D01*
X115194232Y-122752635D01*
X115194232Y-122752633D01*
X115193542Y-122746072D01*
X115134527Y-122564444D01*
X115039040Y-122399056D01*
X115022881Y-122381109D01*
X114915675Y-122262045D01*
X114915674Y-122262044D01*
X114911253Y-122257134D01*
X114756752Y-122144882D01*
X114750724Y-122142198D01*
X114750722Y-122142197D01*
X114588319Y-122069891D01*
X114588318Y-122069891D01*
X114582288Y-122067206D01*
X114488887Y-122047353D01*
X114401944Y-122028872D01*
X114401939Y-122028872D01*
X114395487Y-122027500D01*
X114204513Y-122027500D01*
X114198061Y-122028872D01*
X114198056Y-122028872D01*
X114111113Y-122047353D01*
X114017712Y-122067206D01*
X114011682Y-122069891D01*
X114011681Y-122069891D01*
X113849278Y-122142197D01*
X113849276Y-122142198D01*
X113843248Y-122144882D01*
X113688747Y-122257134D01*
X113684326Y-122262044D01*
X113684325Y-122262045D01*
X113577120Y-122381109D01*
X113560960Y-122399056D01*
X113465473Y-122564444D01*
X113406458Y-122746072D01*
X113405768Y-122752633D01*
X113405768Y-122752635D01*
X113389093Y-122911292D01*
X113362080Y-122976949D01*
X113352878Y-122987218D01*
X113145742Y-123194353D01*
X113137463Y-123201887D01*
X113130982Y-123206000D01*
X113088730Y-123250994D01*
X113084357Y-123255651D01*
X113081602Y-123258493D01*
X113061865Y-123278230D01*
X113059385Y-123281427D01*
X113051682Y-123290447D01*
X113021414Y-123322679D01*
X113017595Y-123329625D01*
X113017593Y-123329628D01*
X113011652Y-123340434D01*
X113000801Y-123356953D01*
X112988386Y-123372959D01*
X112985241Y-123380228D01*
X112985238Y-123380232D01*
X112970826Y-123413537D01*
X112965609Y-123424187D01*
X112944305Y-123462940D01*
X112942334Y-123470615D01*
X112942334Y-123470616D01*
X112939267Y-123482562D01*
X112932863Y-123501266D01*
X112924819Y-123519855D01*
X112923580Y-123527678D01*
X112923577Y-123527688D01*
X112917901Y-123563524D01*
X112915495Y-123575144D01*
X112907469Y-123606405D01*
X112904500Y-123617970D01*
X112904500Y-123638224D01*
X112902949Y-123657934D01*
X112899780Y-123677943D01*
X112900526Y-123685835D01*
X112903941Y-123721961D01*
X112904500Y-123733819D01*
X112904500Y-125582803D01*
X112884498Y-125650924D01*
X112830842Y-125697417D01*
X112818377Y-125702326D01*
X112770998Y-125718133D01*
X112770996Y-125718134D01*
X112764054Y-125720450D01*
X112757830Y-125724301D01*
X112757829Y-125724302D01*
X112690354Y-125766057D01*
X112613652Y-125813522D01*
X112488695Y-125938697D01*
X112484855Y-125944927D01*
X112484854Y-125944928D01*
X112405748Y-126073262D01*
X112395885Y-126089262D01*
X112385252Y-126121321D01*
X112343242Y-126247978D01*
X112340203Y-126257139D01*
X112329500Y-126361600D01*
X112329500Y-127162400D01*
X112329837Y-127165646D01*
X112329837Y-127165650D01*
X112339356Y-127257389D01*
X112340474Y-127268166D01*
X112396450Y-127435946D01*
X112489522Y-127586348D01*
X112494704Y-127591521D01*
X112576109Y-127672784D01*
X112610188Y-127735066D01*
X112605185Y-127805886D01*
X112576264Y-127850975D01*
X112510874Y-127916479D01*
X112488695Y-127938697D01*
X112484855Y-127944927D01*
X112484854Y-127944928D01*
X112405748Y-128073262D01*
X112395885Y-128089262D01*
X112393581Y-128096209D01*
X112343242Y-128247978D01*
X112340203Y-128257139D01*
X112329500Y-128361600D01*
X112329500Y-129162400D01*
X112329837Y-129165646D01*
X112329837Y-129165650D01*
X112339356Y-129257389D01*
X112340474Y-129268166D01*
X112396450Y-129435946D01*
X112467892Y-129551394D01*
X112486729Y-129619846D01*
X112465568Y-129687616D01*
X112411127Y-129733187D01*
X112340690Y-129742090D01*
X112296607Y-129726150D01*
X112246223Y-129696353D01*
X112231790Y-129690107D01*
X112097395Y-129651061D01*
X112083294Y-129651101D01*
X112080000Y-129658370D01*
X112080000Y-130616385D01*
X112084475Y-130631624D01*
X112085865Y-130632829D01*
X112093548Y-130634500D01*
X112615884Y-130634500D01*
X112631123Y-130630025D01*
X112632328Y-130628635D01*
X112633999Y-130620952D01*
X112633999Y-130237017D01*
X112633805Y-130232080D01*
X112631570Y-130203664D01*
X112629270Y-130191069D01*
X112586893Y-130045210D01*
X112580648Y-130030779D01*
X112523454Y-129934068D01*
X112505995Y-129865251D01*
X112528512Y-129797920D01*
X112583857Y-129753451D01*
X112654457Y-129745963D01*
X112698024Y-129762669D01*
X112759032Y-129800275D01*
X112765262Y-129804115D01*
X112818168Y-129821663D01*
X112876527Y-129862094D01*
X112903764Y-129927658D01*
X112904500Y-129941256D01*
X112904500Y-130621733D01*
X112903973Y-130632916D01*
X112902298Y-130640409D01*
X112902547Y-130648335D01*
X112902547Y-130648336D01*
X112904438Y-130708486D01*
X112904500Y-130712445D01*
X112904500Y-130740356D01*
X112904997Y-130744290D01*
X112904997Y-130744291D01*
X112905005Y-130744356D01*
X112905938Y-130756193D01*
X112907327Y-130800389D01*
X112909538Y-130807999D01*
X112912497Y-130818185D01*
X112917500Y-130853337D01*
X112917500Y-131391500D01*
X112897498Y-131459621D01*
X112843842Y-131506114D01*
X112791500Y-131517500D01*
X112760000Y-131517500D01*
X112691879Y-131497498D01*
X112645386Y-131443842D01*
X112634000Y-131391500D01*
X112634000Y-131160615D01*
X112629525Y-131145376D01*
X112628135Y-131144171D01*
X112620452Y-131142500D01*
X112098115Y-131142500D01*
X112082876Y-131146975D01*
X112081671Y-131148365D01*
X112080000Y-131156048D01*
X112080000Y-131771158D01*
X112062453Y-131835297D01*
X112016855Y-131912399D01*
X111970438Y-132072169D01*
X111969934Y-132078574D01*
X111969933Y-132078579D01*
X111967693Y-132107042D01*
X111967500Y-132109498D01*
X111967500Y-132702405D01*
X111947498Y-132770526D01*
X111930595Y-132791501D01*
X111809499Y-132912596D01*
X111747187Y-132946621D01*
X111720404Y-132949500D01*
X111664513Y-132949500D01*
X111658061Y-132950872D01*
X111658056Y-132950872D01*
X111571112Y-132969353D01*
X111477712Y-132989206D01*
X111471682Y-132991891D01*
X111471681Y-132991891D01*
X111309278Y-133064197D01*
X111309276Y-133064198D01*
X111303248Y-133066882D01*
X111148747Y-133179134D01*
X111020960Y-133321056D01*
X111017659Y-133326774D01*
X110940159Y-133461008D01*
X110925473Y-133486444D01*
X110866458Y-133668072D01*
X110866318Y-133669401D01*
X110833518Y-133730156D01*
X110771368Y-133764477D01*
X110700529Y-133759748D01*
X110643492Y-133717472D01*
X110621724Y-133669808D01*
X110621542Y-133668072D01*
X110562527Y-133486444D01*
X110547842Y-133461008D01*
X110470341Y-133326774D01*
X110467040Y-133321056D01*
X110339253Y-133179134D01*
X110184752Y-133066882D01*
X110178724Y-133064198D01*
X110178722Y-133064197D01*
X110016319Y-132991891D01*
X110016318Y-132991891D01*
X110010288Y-132989206D01*
X110003836Y-132987834D01*
X110003831Y-132987833D01*
X109874303Y-132960301D01*
X109811829Y-132926572D01*
X109777508Y-132864423D01*
X109774500Y-132837054D01*
X109774500Y-132260500D01*
X109794502Y-132192379D01*
X109848158Y-132145886D01*
X109900500Y-132134500D01*
X110132502Y-132134500D01*
X110134950Y-132134307D01*
X110134958Y-132134307D01*
X110163421Y-132132067D01*
X110163426Y-132132066D01*
X110169831Y-132131562D01*
X110269769Y-132102528D01*
X110321988Y-132087357D01*
X110321990Y-132087356D01*
X110329601Y-132085145D01*
X110368394Y-132062203D01*
X110465980Y-132004491D01*
X110465983Y-132004489D01*
X110472807Y-132000453D01*
X110590453Y-131882807D01*
X110594489Y-131875983D01*
X110594491Y-131875980D01*
X110671108Y-131746427D01*
X110675145Y-131739601D01*
X110677415Y-131731790D01*
X110719767Y-131586008D01*
X110721562Y-131579831D01*
X110722074Y-131573336D01*
X110724307Y-131544958D01*
X110724307Y-131544950D01*
X110724500Y-131542502D01*
X110724500Y-131539984D01*
X111018001Y-131539984D01*
X111018195Y-131544920D01*
X111020430Y-131573336D01*
X111022730Y-131585931D01*
X111065107Y-131731790D01*
X111071352Y-131746221D01*
X111147911Y-131875678D01*
X111157551Y-131888104D01*
X111263896Y-131994449D01*
X111276322Y-132004089D01*
X111405779Y-132080648D01*
X111420210Y-132086893D01*
X111554605Y-132125939D01*
X111568706Y-132125899D01*
X111572000Y-132118630D01*
X111572000Y-131160615D01*
X111567525Y-131145376D01*
X111566135Y-131144171D01*
X111558452Y-131142500D01*
X111036116Y-131142500D01*
X111020877Y-131146975D01*
X111019672Y-131148365D01*
X111018001Y-131156048D01*
X111018001Y-131539984D01*
X110724500Y-131539984D01*
X110724500Y-130616385D01*
X111018000Y-130616385D01*
X111022475Y-130631624D01*
X111023865Y-130632829D01*
X111031548Y-130634500D01*
X111553885Y-130634500D01*
X111569124Y-130630025D01*
X111570329Y-130628635D01*
X111572000Y-130620952D01*
X111572000Y-129664122D01*
X111568027Y-129650591D01*
X111560129Y-129649456D01*
X111420210Y-129690107D01*
X111405779Y-129696352D01*
X111276322Y-129772911D01*
X111263896Y-129782551D01*
X111157551Y-129888896D01*
X111147911Y-129901322D01*
X111071352Y-130030779D01*
X111065107Y-130045210D01*
X111022731Y-130191065D01*
X111020430Y-130203667D01*
X111018193Y-130232084D01*
X111018000Y-130237014D01*
X111018000Y-130616385D01*
X110724500Y-130616385D01*
X110724500Y-130234498D01*
X110724307Y-130232042D01*
X110722067Y-130203579D01*
X110722066Y-130203574D01*
X110721562Y-130197169D01*
X110680862Y-130057077D01*
X110677357Y-130045012D01*
X110677356Y-130045010D01*
X110675145Y-130037399D01*
X110590453Y-129894193D01*
X110589726Y-129893466D01*
X110564902Y-129830243D01*
X110578801Y-129760620D01*
X110624104Y-129711956D01*
X110652348Y-129694478D01*
X110777305Y-129569303D01*
X110859508Y-129435946D01*
X110866275Y-129424968D01*
X110866276Y-129424966D01*
X110870115Y-129418738D01*
X110922332Y-129261308D01*
X110923632Y-129257389D01*
X110923632Y-129257387D01*
X110925797Y-129250861D01*
X110936500Y-129146400D01*
X110936500Y-128345600D01*
X110936163Y-128342350D01*
X110926238Y-128246692D01*
X110926237Y-128246688D01*
X110925526Y-128239834D01*
X110869550Y-128072054D01*
X110776478Y-127921652D01*
X110689891Y-127835216D01*
X110655812Y-127772934D01*
X110660815Y-127702114D01*
X110689736Y-127657025D01*
X110772134Y-127574483D01*
X110777305Y-127569303D01*
X110859508Y-127435946D01*
X110866275Y-127424968D01*
X110866276Y-127424966D01*
X110870115Y-127418738D01*
X110922332Y-127261308D01*
X110923632Y-127257389D01*
X110923632Y-127257387D01*
X110925797Y-127250861D01*
X110936500Y-127146400D01*
X110936500Y-126345600D01*
X110936163Y-126342350D01*
X110926238Y-126246692D01*
X110926237Y-126246688D01*
X110925526Y-126239834D01*
X110869550Y-126072054D01*
X110776478Y-125921652D01*
X110651303Y-125796695D01*
X110533867Y-125724306D01*
X110506968Y-125707725D01*
X110506966Y-125707724D01*
X110500738Y-125703885D01*
X110447832Y-125686337D01*
X110389473Y-125645906D01*
X110362236Y-125580342D01*
X110361500Y-125566744D01*
X110361500Y-124520594D01*
X110381502Y-124452473D01*
X110398405Y-124431499D01*
X111111047Y-123718857D01*
X111173359Y-123684831D01*
X111244174Y-123689896D01*
X111274202Y-123706015D01*
X111297907Y-123723238D01*
X111297910Y-123723240D01*
X111303248Y-123727118D01*
X111309276Y-123729802D01*
X111309278Y-123729803D01*
X111471681Y-123802109D01*
X111477712Y-123804794D01*
X111571113Y-123824647D01*
X111658056Y-123843128D01*
X111658061Y-123843128D01*
X111664513Y-123844500D01*
X111855487Y-123844500D01*
X111861939Y-123843128D01*
X111861944Y-123843128D01*
X111948887Y-123824647D01*
X112042288Y-123804794D01*
X112048319Y-123802109D01*
X112210722Y-123729803D01*
X112210724Y-123729802D01*
X112216752Y-123727118D01*
X112234808Y-123714000D01*
X112318828Y-123652955D01*
X112371253Y-123614866D01*
X112407019Y-123575144D01*
X112494621Y-123477852D01*
X112494625Y-123477847D01*
X112499040Y-123472944D01*
X112594527Y-123307556D01*
X112653542Y-123125928D01*
X112673504Y-122936000D01*
X112661992Y-122826470D01*
X112654232Y-122752635D01*
X112654232Y-122752633D01*
X112653542Y-122746072D01*
X112594527Y-122564444D01*
X112499040Y-122399056D01*
X112482881Y-122381109D01*
X112375675Y-122262045D01*
X112375674Y-122262044D01*
X112371253Y-122257134D01*
X112216752Y-122144882D01*
X112210724Y-122142198D01*
X112210722Y-122142197D01*
X112048319Y-122069891D01*
X112048318Y-122069891D01*
X112042288Y-122067206D01*
X111948887Y-122047353D01*
X111861944Y-122028872D01*
X111861939Y-122028872D01*
X111855487Y-122027500D01*
X111664513Y-122027500D01*
X111658061Y-122028872D01*
X111658056Y-122028872D01*
X111571113Y-122047353D01*
X111477712Y-122067206D01*
X111471682Y-122069891D01*
X111471681Y-122069891D01*
X111309278Y-122142197D01*
X111309276Y-122142198D01*
X111303248Y-122144882D01*
X111148747Y-122257134D01*
X111144332Y-122262037D01*
X111139420Y-122266460D01*
X111137748Y-122264603D01*
X111086889Y-122295927D01*
X111057674Y-122300311D01*
X110990014Y-122302438D01*
X110986055Y-122302500D01*
X110958144Y-122302500D01*
X110954210Y-122302997D01*
X110954209Y-122302997D01*
X110954144Y-122303005D01*
X110942307Y-122303938D01*
X110910490Y-122304938D01*
X110906029Y-122305078D01*
X110898110Y-122305327D01*
X110880454Y-122310456D01*
X110878658Y-122310978D01*
X110859306Y-122314986D01*
X110852235Y-122315880D01*
X110839203Y-122317526D01*
X110831834Y-122320443D01*
X110831832Y-122320444D01*
X110798097Y-122333800D01*
X110786869Y-122337645D01*
X110744407Y-122349982D01*
X110737585Y-122354016D01*
X110737579Y-122354019D01*
X110726968Y-122360294D01*
X110709218Y-122368990D01*
X110697756Y-122373528D01*
X110697751Y-122373531D01*
X110690383Y-122376448D01*
X110683968Y-122381109D01*
X110654625Y-122402427D01*
X110644707Y-122408943D01*
X110626019Y-122419995D01*
X110606637Y-122431458D01*
X110592313Y-122445782D01*
X110577281Y-122458621D01*
X110560893Y-122470528D01*
X110532712Y-122504593D01*
X110524722Y-122513373D01*
X109821127Y-123216968D01*
X109758815Y-123250994D01*
X109688000Y-123245929D01*
X109631164Y-123203382D01*
X109606353Y-123136862D01*
X109606722Y-123114703D01*
X109624814Y-122942565D01*
X109625504Y-122936000D01*
X109613992Y-122826470D01*
X109606232Y-122752635D01*
X109606232Y-122752633D01*
X109605542Y-122746072D01*
X109546527Y-122564444D01*
X109451040Y-122399056D01*
X109434881Y-122381109D01*
X109327675Y-122262045D01*
X109327674Y-122262044D01*
X109323253Y-122257134D01*
X109168752Y-122144882D01*
X109162724Y-122142198D01*
X109162722Y-122142197D01*
X109000319Y-122069891D01*
X109000318Y-122069891D01*
X108994288Y-122067206D01*
X108900887Y-122047353D01*
X108813944Y-122028872D01*
X108813939Y-122028872D01*
X108807487Y-122027500D01*
X108616513Y-122027500D01*
X108610061Y-122028872D01*
X108610056Y-122028872D01*
X108523113Y-122047353D01*
X108429712Y-122067206D01*
X108423682Y-122069891D01*
X108423681Y-122069891D01*
X108261278Y-122142197D01*
X108261276Y-122142198D01*
X108255248Y-122144882D01*
X108100747Y-122257134D01*
X108096332Y-122262037D01*
X108091420Y-122266460D01*
X108090295Y-122265211D01*
X108036986Y-122298051D01*
X108003800Y-122302500D01*
X107266767Y-122302500D01*
X107255584Y-122301973D01*
X107248091Y-122300298D01*
X107240165Y-122300547D01*
X107240164Y-122300547D01*
X107180014Y-122302438D01*
X107176055Y-122302500D01*
X107148144Y-122302500D01*
X107144210Y-122302997D01*
X107144209Y-122302997D01*
X107144144Y-122303005D01*
X107132307Y-122303938D01*
X107100490Y-122304938D01*
X107096029Y-122305078D01*
X107088110Y-122305327D01*
X107070454Y-122310456D01*
X107068658Y-122310978D01*
X107049306Y-122314986D01*
X107042235Y-122315880D01*
X107029203Y-122317526D01*
X107021834Y-122320443D01*
X107021832Y-122320444D01*
X106988097Y-122333800D01*
X106976869Y-122337645D01*
X106934407Y-122349982D01*
X106927585Y-122354016D01*
X106927579Y-122354019D01*
X106916968Y-122360294D01*
X106899218Y-122368990D01*
X106887756Y-122373528D01*
X106887751Y-122373531D01*
X106880383Y-122376448D01*
X106873968Y-122381109D01*
X106844625Y-122402427D01*
X106834707Y-122408943D01*
X106816019Y-122419995D01*
X106796637Y-122431458D01*
X106782313Y-122445782D01*
X106767281Y-122458621D01*
X106750893Y-122470528D01*
X106722712Y-122504593D01*
X106714722Y-122513373D01*
X105525747Y-123702348D01*
X105517461Y-123709888D01*
X105510982Y-123714000D01*
X105505557Y-123719777D01*
X105464357Y-123763651D01*
X105461602Y-123766493D01*
X105441865Y-123786230D01*
X105439385Y-123789427D01*
X105431682Y-123798447D01*
X105401414Y-123830679D01*
X105397595Y-123837625D01*
X105397593Y-123837628D01*
X105391652Y-123848434D01*
X105380801Y-123864953D01*
X105368386Y-123880959D01*
X105365241Y-123888228D01*
X105365238Y-123888232D01*
X105350826Y-123921537D01*
X105345609Y-123932187D01*
X105324305Y-123970940D01*
X105322334Y-123978615D01*
X105322334Y-123978616D01*
X105319267Y-123990562D01*
X105312863Y-124009266D01*
X105304819Y-124027855D01*
X105303580Y-124035678D01*
X105303577Y-124035688D01*
X105297901Y-124071524D01*
X105295495Y-124083144D01*
X105284500Y-124125970D01*
X105284500Y-124146224D01*
X105282949Y-124165934D01*
X105279780Y-124185943D01*
X105280526Y-124193835D01*
X105283941Y-124229961D01*
X105284500Y-124241819D01*
X105284500Y-125582803D01*
X105264498Y-125650924D01*
X105210842Y-125697417D01*
X105198377Y-125702326D01*
X105150998Y-125718133D01*
X105150996Y-125718134D01*
X105144054Y-125720450D01*
X105137830Y-125724301D01*
X105137829Y-125724302D01*
X105070354Y-125766057D01*
X104993652Y-125813522D01*
X104868695Y-125938697D01*
X104864855Y-125944927D01*
X104864854Y-125944928D01*
X104785748Y-126073262D01*
X104775885Y-126089262D01*
X104765252Y-126121321D01*
X104723242Y-126247978D01*
X104720203Y-126257139D01*
X104709500Y-126361600D01*
X104709500Y-127162400D01*
X104709837Y-127165646D01*
X104709837Y-127165650D01*
X104719356Y-127257389D01*
X104720474Y-127268166D01*
X104776450Y-127435946D01*
X104869522Y-127586348D01*
X104874704Y-127591521D01*
X104956109Y-127672784D01*
X104990188Y-127735066D01*
X104985185Y-127805886D01*
X104956264Y-127850975D01*
X104890874Y-127916479D01*
X104868695Y-127938697D01*
X104864855Y-127944927D01*
X104864854Y-127944928D01*
X104785748Y-128073262D01*
X104775885Y-128089262D01*
X104773581Y-128096209D01*
X104723242Y-128247978D01*
X104720203Y-128257139D01*
X104709500Y-128361600D01*
X104709500Y-129162400D01*
X104709837Y-129165646D01*
X104709837Y-129165650D01*
X104719356Y-129257389D01*
X104720474Y-129268166D01*
X104776450Y-129435946D01*
X104847892Y-129551394D01*
X104866729Y-129619846D01*
X104845568Y-129687616D01*
X104791127Y-129733187D01*
X104720690Y-129742090D01*
X104676607Y-129726150D01*
X104626223Y-129696353D01*
X104611790Y-129690107D01*
X104477395Y-129651061D01*
X104463294Y-129651101D01*
X104460000Y-129658370D01*
X104460000Y-130616385D01*
X104464475Y-130631624D01*
X104465865Y-130632829D01*
X104473548Y-130634500D01*
X104995884Y-130634500D01*
X105011123Y-130630025D01*
X105012328Y-130628635D01*
X105013999Y-130620952D01*
X105013999Y-130237017D01*
X105013805Y-130232080D01*
X105011570Y-130203664D01*
X105009270Y-130191069D01*
X104966893Y-130045210D01*
X104960648Y-130030779D01*
X104903454Y-129934068D01*
X104885995Y-129865251D01*
X104908512Y-129797920D01*
X104963857Y-129753451D01*
X105034457Y-129745963D01*
X105078024Y-129762669D01*
X105139032Y-129800275D01*
X105145262Y-129804115D01*
X105198168Y-129821663D01*
X105256527Y-129862094D01*
X105283764Y-129927658D01*
X105284500Y-129941256D01*
X105284500Y-130621733D01*
X105283973Y-130632916D01*
X105282298Y-130640409D01*
X105282547Y-130648335D01*
X105282547Y-130648336D01*
X105284438Y-130708486D01*
X105284500Y-130712445D01*
X105284500Y-130740356D01*
X105284997Y-130744290D01*
X105284997Y-130744291D01*
X105285005Y-130744356D01*
X105285938Y-130756193D01*
X105287327Y-130800389D01*
X105289538Y-130807999D01*
X105292497Y-130818185D01*
X105297500Y-130853337D01*
X105297500Y-131391500D01*
X105277498Y-131459621D01*
X105223842Y-131506114D01*
X105171500Y-131517500D01*
X105140000Y-131517500D01*
X105071879Y-131497498D01*
X105025386Y-131443842D01*
X105014000Y-131391500D01*
X105014000Y-131160615D01*
X105009525Y-131145376D01*
X105008135Y-131144171D01*
X105000452Y-131142500D01*
X104478115Y-131142500D01*
X104462876Y-131146975D01*
X104461671Y-131148365D01*
X104460000Y-131156048D01*
X104460000Y-131771158D01*
X104442453Y-131835297D01*
X104396855Y-131912399D01*
X104350438Y-132072169D01*
X104349934Y-132078574D01*
X104349933Y-132078579D01*
X104347693Y-132107042D01*
X104347500Y-132109498D01*
X104347500Y-133417502D01*
X100508500Y-133417502D01*
X100508500Y-131474000D01*
X100528502Y-131405879D01*
X100582158Y-131359386D01*
X100634500Y-131348000D01*
X103230000Y-131348000D01*
X103230000Y-131342680D01*
X103236502Y-131340771D01*
X103307498Y-131340771D01*
X103367225Y-131379154D01*
X103396718Y-131443734D01*
X103398001Y-131461667D01*
X103398001Y-131539984D01*
X103398195Y-131544920D01*
X103400430Y-131573336D01*
X103402730Y-131585931D01*
X103445107Y-131731790D01*
X103451352Y-131746221D01*
X103527911Y-131875678D01*
X103537551Y-131888104D01*
X103643896Y-131994449D01*
X103656322Y-132004089D01*
X103785779Y-132080648D01*
X103800210Y-132086893D01*
X103934605Y-132125939D01*
X103948706Y-132125899D01*
X103952000Y-132118630D01*
X103952000Y-129664122D01*
X103948027Y-129650591D01*
X103940129Y-129649456D01*
X103800210Y-129690107D01*
X103785779Y-129696352D01*
X103656322Y-129772911D01*
X103643896Y-129782551D01*
X103537551Y-129888896D01*
X103527911Y-129901323D01*
X103464454Y-130008624D01*
X103412561Y-130057077D01*
X103342711Y-130069782D01*
X103277079Y-130042707D01*
X103236505Y-129984447D01*
X103230000Y-129944485D01*
X103230000Y-108444669D01*
X106742001Y-108444669D01*
X106742371Y-108451490D01*
X106747895Y-108502352D01*
X106751521Y-108517604D01*
X106796676Y-108638054D01*
X106805214Y-108653649D01*
X106881715Y-108755724D01*
X106894276Y-108768285D01*
X106996351Y-108844786D01*
X107011946Y-108853324D01*
X107132394Y-108898478D01*
X107147649Y-108902105D01*
X107198514Y-108907631D01*
X107205328Y-108908000D01*
X107752885Y-108908000D01*
X107768124Y-108903525D01*
X107769329Y-108902135D01*
X107771000Y-108894452D01*
X107771000Y-108889884D01*
X108279000Y-108889884D01*
X108283475Y-108905123D01*
X108284865Y-108906328D01*
X108292548Y-108907999D01*
X108844669Y-108907999D01*
X108851490Y-108907629D01*
X108902352Y-108902105D01*
X108917604Y-108898479D01*
X109038054Y-108853324D01*
X109053649Y-108844786D01*
X109155724Y-108768285D01*
X109168285Y-108755724D01*
X109244786Y-108653649D01*
X109253324Y-108638054D01*
X109298478Y-108517606D01*
X109302105Y-108502351D01*
X109307631Y-108451486D01*
X109308000Y-108444672D01*
X109308000Y-108444669D01*
X114692001Y-108444669D01*
X114692371Y-108451490D01*
X114697895Y-108502352D01*
X114701521Y-108517604D01*
X114746676Y-108638054D01*
X114755214Y-108653649D01*
X114831715Y-108755724D01*
X114844276Y-108768285D01*
X114946351Y-108844786D01*
X114961946Y-108853324D01*
X115082394Y-108898478D01*
X115097649Y-108902105D01*
X115148514Y-108907631D01*
X115155328Y-108908000D01*
X115702885Y-108908000D01*
X115718124Y-108903525D01*
X115719329Y-108902135D01*
X115721000Y-108894452D01*
X115721000Y-108889884D01*
X116229000Y-108889884D01*
X116233475Y-108905123D01*
X116234865Y-108906328D01*
X116242548Y-108907999D01*
X116794669Y-108907999D01*
X116801490Y-108907629D01*
X116852352Y-108902105D01*
X116867604Y-108898479D01*
X116988054Y-108853324D01*
X117003649Y-108844786D01*
X117105724Y-108768285D01*
X117118285Y-108755724D01*
X117194786Y-108653649D01*
X117203324Y-108638054D01*
X117248478Y-108517606D01*
X117252105Y-108502351D01*
X117257631Y-108451486D01*
X117258000Y-108444672D01*
X117258000Y-108022115D01*
X117253525Y-108006876D01*
X117252135Y-108005671D01*
X117244452Y-108004000D01*
X116247115Y-108004000D01*
X116231876Y-108008475D01*
X116230671Y-108009865D01*
X116229000Y-108017548D01*
X116229000Y-108889884D01*
X115721000Y-108889884D01*
X115721000Y-108022115D01*
X115716525Y-108006876D01*
X115715135Y-108005671D01*
X115707452Y-108004000D01*
X114710116Y-108004000D01*
X114694877Y-108008475D01*
X114693672Y-108009865D01*
X114692001Y-108017548D01*
X114692001Y-108444669D01*
X109308000Y-108444669D01*
X109308000Y-108022115D01*
X109303525Y-108006876D01*
X109302135Y-108005671D01*
X109294452Y-108004000D01*
X108297115Y-108004000D01*
X108281876Y-108008475D01*
X108280671Y-108009865D01*
X108279000Y-108017548D01*
X108279000Y-108889884D01*
X107771000Y-108889884D01*
X107771000Y-108022115D01*
X107766525Y-108006876D01*
X107765135Y-108005671D01*
X107757452Y-108004000D01*
X106760116Y-108004000D01*
X106744877Y-108008475D01*
X106743672Y-108009865D01*
X106742001Y-108017548D01*
X106742001Y-108444669D01*
X103230000Y-108444669D01*
X103230000Y-107477885D01*
X106742000Y-107477885D01*
X106746475Y-107493124D01*
X106747865Y-107494329D01*
X106755548Y-107496000D01*
X107752885Y-107496000D01*
X107768124Y-107491525D01*
X107769329Y-107490135D01*
X107771000Y-107482452D01*
X107771000Y-107477885D01*
X108279000Y-107477885D01*
X108283475Y-107493124D01*
X108284865Y-107494329D01*
X108292548Y-107496000D01*
X109289884Y-107496000D01*
X109305123Y-107491525D01*
X109306328Y-107490135D01*
X109307999Y-107482452D01*
X109307999Y-107477885D01*
X114692000Y-107477885D01*
X114696475Y-107493124D01*
X114697865Y-107494329D01*
X114705548Y-107496000D01*
X115702885Y-107496000D01*
X115718124Y-107491525D01*
X115719329Y-107490135D01*
X115721000Y-107482452D01*
X115721000Y-107477885D01*
X116229000Y-107477885D01*
X116233475Y-107493124D01*
X116234865Y-107494329D01*
X116242548Y-107496000D01*
X117239884Y-107496000D01*
X117255123Y-107491525D01*
X117256328Y-107490135D01*
X117257999Y-107482452D01*
X117257999Y-107055331D01*
X117257629Y-107048510D01*
X117252105Y-106997648D01*
X117248479Y-106982396D01*
X117203324Y-106861946D01*
X117194786Y-106846351D01*
X117118285Y-106744276D01*
X117105724Y-106731715D01*
X117003649Y-106655214D01*
X116988054Y-106646676D01*
X116867606Y-106601522D01*
X116852351Y-106597895D01*
X116801486Y-106592369D01*
X116794672Y-106592000D01*
X116247115Y-106592000D01*
X116231876Y-106596475D01*
X116230671Y-106597865D01*
X116229000Y-106605548D01*
X116229000Y-107477885D01*
X115721000Y-107477885D01*
X115721000Y-106610116D01*
X115716525Y-106594877D01*
X115715135Y-106593672D01*
X115707452Y-106592001D01*
X115155331Y-106592001D01*
X115148510Y-106592371D01*
X115097648Y-106597895D01*
X115082396Y-106601521D01*
X114961946Y-106646676D01*
X114946351Y-106655214D01*
X114844276Y-106731715D01*
X114831715Y-106744276D01*
X114755214Y-106846351D01*
X114746676Y-106861946D01*
X114701522Y-106982394D01*
X114697895Y-106997649D01*
X114692369Y-107048514D01*
X114692000Y-107055328D01*
X114692000Y-107477885D01*
X109307999Y-107477885D01*
X109307999Y-107055331D01*
X109307629Y-107048510D01*
X109302105Y-106997648D01*
X109298479Y-106982396D01*
X109253324Y-106861946D01*
X109244786Y-106846351D01*
X109168285Y-106744276D01*
X109155724Y-106731715D01*
X109053649Y-106655214D01*
X109038054Y-106646676D01*
X108917606Y-106601522D01*
X108902351Y-106597895D01*
X108851486Y-106592369D01*
X108844672Y-106592000D01*
X108297115Y-106592000D01*
X108281876Y-106596475D01*
X108280671Y-106597865D01*
X108279000Y-106605548D01*
X108279000Y-107477885D01*
X107771000Y-107477885D01*
X107771000Y-106610116D01*
X107766525Y-106594877D01*
X107765135Y-106593672D01*
X107757452Y-106592001D01*
X107205331Y-106592001D01*
X107198510Y-106592371D01*
X107147648Y-106597895D01*
X107132396Y-106601521D01*
X107011946Y-106646676D01*
X106996351Y-106655214D01*
X106894276Y-106731715D01*
X106881715Y-106744276D01*
X106805214Y-106846351D01*
X106796676Y-106861946D01*
X106751522Y-106982394D01*
X106747895Y-106997649D01*
X106742369Y-107048514D01*
X106742000Y-107055328D01*
X106742000Y-107477885D01*
X103230000Y-107477885D01*
X103230000Y-106819716D01*
X103250002Y-106751595D01*
X103303658Y-106705102D01*
X103342616Y-106695010D01*
X103342578Y-106694772D01*
X103345044Y-106694381D01*
X103346115Y-106694104D01*
X103347467Y-106693998D01*
X103347473Y-106693997D01*
X103352403Y-106693609D01*
X103598591Y-106634505D01*
X103603164Y-106632611D01*
X103827928Y-106539511D01*
X103827932Y-106539509D01*
X103832502Y-106537616D01*
X104048376Y-106405328D01*
X104225867Y-106253736D01*
X104237142Y-106244106D01*
X104240898Y-106240898D01*
X104405328Y-106048376D01*
X104537616Y-105832502D01*
X104568065Y-105758993D01*
X104632611Y-105603164D01*
X104632612Y-105603162D01*
X104634505Y-105598591D01*
X104662309Y-105482777D01*
X104692454Y-105357216D01*
X104692455Y-105357210D01*
X104693609Y-105352403D01*
X104713474Y-105100000D01*
X104711077Y-105069544D01*
X105486936Y-105069544D01*
X105488932Y-105100000D01*
X105500861Y-105282006D01*
X105502283Y-105287604D01*
X105502283Y-105287606D01*
X105525006Y-105377075D01*
X105553272Y-105488372D01*
X105555689Y-105493615D01*
X105592389Y-105573223D01*
X105642411Y-105681731D01*
X105765296Y-105855609D01*
X105917809Y-106004181D01*
X105922605Y-106007386D01*
X105922608Y-106007388D01*
X105989577Y-106052135D01*
X106094843Y-106122471D01*
X106100146Y-106124749D01*
X106100149Y-106124751D01*
X106182324Y-106160056D01*
X106290470Y-106206519D01*
X106366316Y-106223681D01*
X106492501Y-106252234D01*
X106492506Y-106252235D01*
X106498138Y-106253509D01*
X106503909Y-106253736D01*
X106503911Y-106253736D01*
X106565252Y-106256146D01*
X106710891Y-106261869D01*
X106716600Y-106261041D01*
X106716604Y-106261041D01*
X106915890Y-106232145D01*
X106915894Y-106232144D01*
X106921605Y-106231316D01*
X107123223Y-106162876D01*
X107308993Y-106058840D01*
X107326642Y-106044162D01*
X107468255Y-105926384D01*
X107472693Y-105922693D01*
X107608840Y-105758993D01*
X107712876Y-105573223D01*
X107781316Y-105371605D01*
X107783403Y-105357216D01*
X107811337Y-105164561D01*
X107811337Y-105164559D01*
X107811869Y-105160891D01*
X107813463Y-105100000D01*
X119286526Y-105100000D01*
X119306391Y-105352403D01*
X119307545Y-105357210D01*
X119307546Y-105357216D01*
X119337691Y-105482777D01*
X119365495Y-105598591D01*
X119367388Y-105603162D01*
X119367389Y-105603164D01*
X119431936Y-105758993D01*
X119462384Y-105832502D01*
X119594672Y-106048376D01*
X119759102Y-106240898D01*
X119762858Y-106244106D01*
X119774133Y-106253736D01*
X119951624Y-106405328D01*
X120167498Y-106537616D01*
X120172068Y-106539509D01*
X120172072Y-106539511D01*
X120396836Y-106632611D01*
X120401409Y-106634505D01*
X120486032Y-106654821D01*
X120642784Y-106692454D01*
X120642790Y-106692455D01*
X120647597Y-106693609D01*
X120900000Y-106713474D01*
X121152403Y-106693609D01*
X121157210Y-106692455D01*
X121157216Y-106692454D01*
X121313968Y-106654821D01*
X121398591Y-106634505D01*
X121403164Y-106632611D01*
X121627928Y-106539511D01*
X121627932Y-106539509D01*
X121632502Y-106537616D01*
X121848376Y-106405328D01*
X122025867Y-106253736D01*
X122037142Y-106244106D01*
X122040898Y-106240898D01*
X122205328Y-106048376D01*
X122337616Y-105832502D01*
X122368065Y-105758993D01*
X122432611Y-105603164D01*
X122432612Y-105603162D01*
X122434505Y-105598591D01*
X122462309Y-105482777D01*
X122492454Y-105357216D01*
X122492455Y-105357210D01*
X122493609Y-105352403D01*
X122513474Y-105100000D01*
X122493609Y-104847597D01*
X122483203Y-104804250D01*
X122435660Y-104606221D01*
X122434505Y-104601409D01*
X122428846Y-104587746D01*
X122339511Y-104372072D01*
X122339509Y-104372068D01*
X122337616Y-104367498D01*
X122205328Y-104151624D01*
X122040898Y-103959102D01*
X121848376Y-103794672D01*
X121632502Y-103662384D01*
X121627932Y-103660491D01*
X121627928Y-103660489D01*
X121403164Y-103567389D01*
X121403162Y-103567388D01*
X121398591Y-103565495D01*
X121313968Y-103545179D01*
X121157216Y-103507546D01*
X121157210Y-103507545D01*
X121152403Y-103506391D01*
X120900000Y-103486526D01*
X120647597Y-103506391D01*
X120642790Y-103507545D01*
X120642784Y-103507546D01*
X120486032Y-103545179D01*
X120401409Y-103565495D01*
X120396838Y-103567388D01*
X120396836Y-103567389D01*
X120172072Y-103660489D01*
X120172068Y-103660491D01*
X120167498Y-103662384D01*
X119951624Y-103794672D01*
X119759102Y-103959102D01*
X119594672Y-104151624D01*
X119462384Y-104367498D01*
X119460491Y-104372068D01*
X119460489Y-104372072D01*
X119371154Y-104587746D01*
X119365495Y-104601409D01*
X119364340Y-104606221D01*
X119316798Y-104804250D01*
X119306391Y-104847597D01*
X119286526Y-105100000D01*
X107813463Y-105100000D01*
X107793981Y-104887976D01*
X107783998Y-104852579D01*
X107737754Y-104688611D01*
X107737753Y-104688609D01*
X107736186Y-104683052D01*
X107689187Y-104587746D01*
X107644570Y-104497273D01*
X107642015Y-104492092D01*
X107514622Y-104321491D01*
X107358271Y-104176963D01*
X107178201Y-104063347D01*
X106980441Y-103984449D01*
X106974781Y-103983323D01*
X106974777Y-103983322D01*
X106777282Y-103944038D01*
X106777280Y-103944038D01*
X106771615Y-103942911D01*
X106765840Y-103942835D01*
X106765836Y-103942835D01*
X106659161Y-103941439D01*
X106558716Y-103940124D01*
X106553019Y-103941103D01*
X106553018Y-103941103D01*
X106354564Y-103975203D01*
X106354561Y-103975204D01*
X106348874Y-103976181D01*
X106149116Y-104049875D01*
X105966134Y-104158739D01*
X105806054Y-104299125D01*
X105674238Y-104466333D01*
X105671549Y-104471444D01*
X105671547Y-104471447D01*
X105617085Y-104574961D01*
X105575100Y-104654762D01*
X105573386Y-104660283D01*
X105573384Y-104660287D01*
X105520494Y-104830623D01*
X105511961Y-104858102D01*
X105486936Y-105069544D01*
X104711077Y-105069544D01*
X104693609Y-104847597D01*
X104683203Y-104804250D01*
X104635660Y-104606221D01*
X104634505Y-104601409D01*
X104628846Y-104587746D01*
X104539511Y-104372072D01*
X104539509Y-104372068D01*
X104537616Y-104367498D01*
X104405328Y-104151624D01*
X104240898Y-103959102D01*
X104048376Y-103794672D01*
X103832502Y-103662384D01*
X103827932Y-103660491D01*
X103827928Y-103660489D01*
X103603164Y-103567389D01*
X103603162Y-103567388D01*
X103598591Y-103565495D01*
X103352403Y-103506391D01*
X103347473Y-103506003D01*
X103347467Y-103506002D01*
X103346115Y-103505896D01*
X103345631Y-103505712D01*
X103342578Y-103505228D01*
X103342680Y-103504587D01*
X103279773Y-103480611D01*
X103237633Y-103423473D01*
X103230000Y-103380284D01*
X103230000Y-103348000D01*
X100634500Y-103348000D01*
X100566379Y-103327998D01*
X100519886Y-103274342D01*
X100508500Y-103222000D01*
X100508500Y-102053250D01*
X100510246Y-102032345D01*
X100512770Y-102017344D01*
X100512770Y-102017341D01*
X100513576Y-102012552D01*
X100513729Y-102000000D01*
X100513040Y-101995186D01*
X100513039Y-101995176D01*
X100512157Y-101989017D01*
X100511206Y-101962172D01*
X100523038Y-101796723D01*
X100525596Y-101778934D01*
X100566999Y-101588607D01*
X100572063Y-101571359D01*
X100640136Y-101388850D01*
X100647604Y-101372498D01*
X100740952Y-101201542D01*
X100750672Y-101186418D01*
X100867402Y-101030486D01*
X100879175Y-101016900D01*
X101016900Y-100879175D01*
X101030486Y-100867402D01*
X101186418Y-100750672D01*
X101201542Y-100740952D01*
X101372498Y-100647604D01*
X101388850Y-100640136D01*
X101571359Y-100572063D01*
X101588608Y-100566999D01*
X101778936Y-100525596D01*
X101796715Y-100523039D01*
X101958605Y-100511460D01*
X101976565Y-100512207D01*
X101984845Y-100512308D01*
X101993724Y-100513691D01*
X102025286Y-100509564D01*
X102041621Y-100508500D01*
X102250886Y-100508500D01*
X102319007Y-100528502D01*
G37*
G04 #@! TD.AperFunction*
M02*
